<mxfile host="65bd71144e">
    <diagram id="5AZ1GmgCF6q_EZpZAgw-" name="第 1 页">
        <mxGraphModel dx="734" dy="565" grid="1" gridSize="10" guides="1" tooltips="1" connect="1" arrows="1" fold="1" page="1" pageScale="1" pageWidth="827" pageHeight="1169" math="0" shadow="0">
            <root>
                <mxCell id="0"/>
                <mxCell id="1" parent="0"/>
                <mxCell id="3" value="String在内存上的行为" style="rounded=0;whiteSpace=wrap;html=1;fontStyle=1;fontSize=21;" vertex="1" parent="1">
                    <mxGeometry x="130" y="10" width="240" height="60" as="geometry"/>
                </mxCell>
                <mxCell id="7" value="let s1 = String::from(&quot;hello&quot;)&lt;br&gt;在内存中的行为" style="text;html=1;align=center;verticalAlign=middle;resizable=0;points=[];autosize=1;strokeColor=none;fillColor=none;fontSize=21;" vertex="1" parent="1">
                    <mxGeometry x="20" y="175" width="270" height="60" as="geometry"/>
                </mxCell>
                <mxCell id="10" value="" style="shape=image;verticalLabelPosition=bottom;labelBackgroundColor=#ffffff;verticalAlign=top;aspect=fixed;imageAspect=0;image=data:image/png,iVBORw0KGgoAAAANSUhEUgAAAzAAAAFSCAYAAAAtqzpjAAAgAElEQVR4nOzde1xUdfrA8c+Z+6AmeMUyFdMKy1ZcbQVtU8y2cNsSNrfg5+4q5pbQTandlLISa1OpraR2XbHdDNxqxczAysTKErusWJpYmnhLJzVFQxjmdn5/HG4DAwIBw+jzfr18OXPOmXOeOczAec73+32+yv79u1WEEEIIIYQQIgDo/B2AEEIIIYQQQjSVJDBCCCGEEEKIgCEJjBBCCCGEECJgSAIjhBBCCCGECBiSwAghhBBCCCEChiQwQgghhBBCiIAhCYwQQgghhBAiYEgCI4QQQgghhAgYksAIIYQQQgghAoYkMEIIIYQQQoiAIQmMEEIIIYQQImBIAiOEEEIIIYQIGJLACCE6HN1XX6Ozfe9znX7L5+i+OwKAcvJUe4YlhAh0bjf6wi9RSk7XW6UcP4FSWqo9qahAOfhdOwcnhGgqSWCEEB2O5bGnMLyz0ec660PzMby7EaXkNEG/S8S86Dkor2jnCIUQAanCiTX5z+i+3FFvlSU9A0vSgwCYX1yO9b45YLe3d4RCiCaQBEYIEVDUIAuK04kafAEV8x7E8O4HdJqW3GCLjRBCnI3usA39pgJcN8cA4Ii/Fd3JU5heyvZzZEIIXySBEUIEFNVigQoHAK7RV1O2/DlcUSPx9Ozh58iEEIHK+PobqFYrzhuuA0Dt1QNHfBz6XXvA5fFzdEKIugz+DkAIIQAMH36M/uPPAFBOlmD44GOUwzbUPr1x/PH2mg2tVpQff0S3dx+6o8dQbMfBbMa84GnUiy/CMTXeT+9ACBGIlDNnML71DnggaMZ9NSvcLtDpCfrjzOpF9rn34wm/zA9RCiFqkwRGCNExeEDxeFBdLpSycjwej/bc7caYsxbDR5+gfH8M3aFD6Ir3Y8hdr70uyIKnd288vXuhDjL79z0IITok46o3Mf73TRRVe25Jz0B9cTnuERGoZguU2XFHDMU1boy2QWkZ5qX/xnnLjXgGDqjej9pDWnqF6AgkgRFCdAiusaNxjR2NYctnGN/diHvcNTj+cBsAxpy1qF264L5kAMaPPKidOlHxl3vx9O6B2rkzKIqfoxdCdGSewQNxxVwPTiemzFdw/XwYalh/cLkw/Surehtn3G8AUE6cwLz037ijRuEafbU/QxdC+CAJjBB+1q/fIH+H0KGULnoBB9D5wBHMB49hHB0J991fsz7pfjwHDtAjeoL/ghRCBJZ+g+DXt6CeKeNk5iuE3PpbTNdfx+lbE3B3DUbR6+nSJZjelb+PPdZjlAA9e/bBKL+jO6TDh/fjcjn9HYbwE0lghBAdhlp6BufbWtcw17YvcN1dSNf1b6F071a9ja5bCK6thXiOHsOz/wDu/QfwHDiI58BB3AcOcsGrK8Bo9NdbEEIECPVkCe6vvyHokTnYM/5Oxeo3cRZ8oq10ugA48/BjKIueBkDXvTtdsv/lr3CFELVIAiOE6DDs/1yO0qM7CmD+7SQc77zHmT+nYvlTIo43c3EfPIj7ix14jh+n5OdR2ov0enQXXYh+QH/0l1+GarejSAIjhDgLpVsIF6xaiX7QJdgz/o7hiiGYJmldyNTTP1L2aBqmX12H/ooh2vYWiz/DFULUIgmMEKJD8Bz6DnvGP7A+eD/2l7PBaKTTwgU489/HY7Ph/Px/6C/ui37YUDzvbaTTU2kYR0eiu+hCMBhQz5ShdAry99sQQgQQ/aWDaz0ehPnWWAA8x45R9mgaxjGjMV43zl/hCSEaIAmMEKJDKFv0DHQKwnzbrVoCAxiGXYVh2FUAmG6aCIB7z7ecem8jqCq6/v3A6aTs4cdxbNhI17dyULqF+O09CCGEEKLtSQIjhOgQ9Bf3xZj6F5QLLmh8u7ABKF264Px4C8bx4yi9825cX3xJ0Jw/o4QEt1O0Qohzgttd/bDi1VU43tvotfzMg3MhyAqALrQ3F/w3u91DFELUJwmMEKJDsNwx9azJCwB6PaZfXYfj3Q2cvnELmExcsOo/GIYPw5H3DsZfjkHp3KntAxZCBCzXps048t7Bmf8+XXNXA2AYNRLzbbcCoJ46zZnZf8F822/R/2woAIrV6rd4hRDeJIERQnQISteuZ9/I4aDizVxc275EPX0a/bCr6PJyJkpIMOrJEkr/lIz1z7OxJt/Z9gELIQKGa+s2nOs34PzwYwDs/34F/SVhmCf/FqWrduNE378fpl9p5dk9x44BYBgeIWNghOiAJIERQnRsLhfOTz/H+d5GHG+sxXPsGIaRP8dw1VDc3xajlpaihATj+nI7AMYxUX4OWAjR0TjeWY99aSbGX1xN0CNzMF43Dn3YAH+HJYRoIUlghBAdl6py+pbf4friS5ROQRgnjMcy7Q8YIn6G57vDnIq5hdOTfkenp5/C/o9lKF26YLjyCn9HLYToYKx33oE1+U6ULl0a3KZi5Ws4ct/Wnrg9AJTe/4BX+WTrPUmYp9zeprEKIc5OEhghRMelKATNm4N6+kcMYyJRzObqVbqLLuSC17P48Y8z+DFhKgDWB+4Hg95f0QohOqimFPgwjhl91uREf8nA1gpJCPETSAIjhOhwzDf/GsOV2uRxhpE/b3A7/aWD6brxbZzvrAcVTBNvaK8QhRDnEON149GHX4Zx7C/9HYoQogmU/ft3q/4OQojzWb9+g/wdghBCCBFQDh/ej8vl9HcYwk90/g5ACCGEEEIIIZpKEhghhBBCCCFEwJAERgghhBBCCBEwJIERQgghhBBCBAxJYIQQQgghhBABQxIYIYQQQgghRMCQBEYIIYQQQggRMCSBEUIIIYQQQgQMSWCEEEIIIYQQAUMSGCGEEEIIIUTAkARGCCGEEEIIETAkgRFCCCGEEEIEDElghBDip3LZKHgphYmDF1Dg71iEEEKIc5wkMEII0VIlxeQtSmDIxX2ImpZO3h5/BySEEEKc+ySBEUKIFioptRL9QBa5C2P9HYoQQghx3pAERgghWii4bygWICx8OKH+DkYIIYQ4T0gCI4QQP1VoGFH+jkEIIYQ4T0gCI4QQQgghhAgYksAIIUQVVzF586cTNVhBUfowJHo6KYvSSfmNVBcTQgghOgpJYIQQAgAbOdOiSCuPJWe7iqoeYevLiYRtX0z6Wn/HJoQQQogqBn8HIIQQHcK2LNJWDCepOIZQi7bI0jeSpBeyKF4v7S9CCCFERyEtMEIIAWC3U0geOeuKvJd3jiZhlsU/MQkhhBCiHklghBACYFgkc0Mhb2Y042dkkLenpHpVxAOzifRjaEIIIYSoIQmMEEIAWKJJK1jF7HGQ/89kJg4OYWBMCplbbP6OTAghhBC1SAIjhBBVBsSyOP8IR/KXkHRjGMXr0pke2YeB03Io9ndsQgghhAAkgRFCiHpCxyWxJG8vR/IXEzsIil+KI+GZQn+HJYQQQggkgRFCCM2WdNK3eS8KHTebVWuXEA0UFBQhncmEEEII/5MERgghALCz+Ons+l3FBoQTAdAjmAZrkdnLKWlonRBCCCFalSQwQghRybYigfGT08nfZ9cWuErIX5RKemgMy+6JIdjXi1x2ijblkQ/AZjZvkVRGCCGEaEuSwAghRKXoO5KILskjOdKKoigoF0eRfiSBDYW5JF5ef3vbyjgUo5Uh03Iql+SREhmCosSRfahdQxdCCCHOG8r+/btVfwchxPmsX79B/g5BCCGECCiHD+/H5XL6OwzhJ9ICI4QQQgghhAgYksAIIYQQQgghAoYkMEIIIYQQQoiAIQmMEEIIIYQQImBIAiOEEEIIIYQIGJLACCGEEEIIIQKGJDBCCCGEEEKIgCEJjBBCCCGEECJgSAIjhBBCCCGECBgGfwcghGgba9as4dNPP/V3GKKOb775BoABAwZgMpn8HE3Hc/XVV3PzzTf7OwxRy5o1a/wdQodW9XtWp9MxYsQIP0fTMcl3WrQ2SWCEOEd98sknPPnkk/4OQ4hmWbp0qb9DEHXcfvvtlJeX+zsMEaASEhIkgRGtThIYIc5xAwYM8HcIopb9+/ejqir9+/dHURR/h9Oh7Nu3z98hiAbo9Xpuu+02f4fRIW3atIkDBw4wduxYLrroIn+H06FkZWX5OwRxjpIERohz3KxZs7j77rv9HYaopNfrUVWVzz77jJ49e/o7nA5j1qxZPPPMM/4OQzTilVde8XcIHVL//v0BuPbaa3n00Uf9HE3HsWbNGklgRJuRQfxCCCGEEEKIgCEJjBBCCCGEECJgSAIjhBBCCCGECBiSwAghhBBCCCEChiQwQgghhBBCiIAhCYwQQgghhBAiYEgCI4QQ5yNXCUXrMkiOGUjcSpu/oxGBblcmE/v0YfyTBdjb4XAl23JYMFk+u3WV7MojY+ZEBk7ORs6MOJdJAiOEEOeZkvULiIuNYWJMMhnriv0djjgHFBfkkGezkT9nFZvbMIMp+TyD6dF9CImII/V1+exWO57PgskTiblpIskv5iFnRpzrJIERQojzTPCEuax6M4fFU/wdiThXhI1LJHFQKNFPxBFlabvjBI9IYll+IVm3tt0xAlKPaOa+lkvOE/H+jkSIdmHwdwBCCCH8IZQ+g/0dgzhnDIhl2e7YdjpYKGFDgdfb6XABJPTiIf4OQYh2IS0wQgghhBBCiIAhCYwQQgghhBAiYEgCI4QQQgghhAgYksAIIVrEfryIvOeTmTg4juxDACUUrUxh4tA+KEofhsSnU3Dc1ytLKFq9gOnRQ+ijKCiKQp+h45k+P4eiUh9bV5YFHdJnAQUALhv5i6YTNVhBUQYy8cHsWq+rE8NvUsje1UhJJFs+GTPjKvel0GfoRJKfL6Dkp52altmyAKXyfNT+t2BLrW0OZRNXe71XqdTmnVffCljQyPEL5nuva7CEbUc6r6Id2LFty/Fdvtdlp3hLNgvih9BnfoG2zJZP+rQoBioKyuCJpKwsarj0sstG/vPJxEUO1D53g6OYviif4vKzhHTWz6CN7Mn1v2/V36m638eq2Jul/vep/r7qxlH1+7Ry7cYMkidXnqvK9x83M6OB360NRDG/kePXfZ8NlV8uKSJn/nTGD+1T83No1u8WIVqXJDBCiGaykf/MAtIeTGTiPRnk7QFcxeRMiyFlk4Xo3ycQfyUUrUwh6veZdcp52imYH8OQ2FxCH8jniKqiOk+SNbmczEfiiJ6ZU/PH83gBmU+mkjIzkeQX8yiyAaUFLIhNJOfHcOImxRMeWkzeogSiH8yjhGJypkURt9JORFUMa9NJGJdKvo8/ssVrk4malEPIjEw271ZRj20lfdxJMu6JIvz32e1fhnTUXNRjm1l8U2jlgiRyT6rMHVVrm77xrFJ3smQCxC7fS/lr8WhbN+O8NiqSuapK+e5l+BqOHfmwinpsA3OHNbyHDndeRds6lE/6k2mk3hVXr3yv/fNsFjyfSvKkBFJXFmED7FsWMHFSJkfC44i/K4awPXmkx0eTttFHClNawILrI0hYHUzi6ztRVRW1IIPI7QkkPNlwSE37DIYS/5rKycJlxFd95cYsYWfVd2rUXPa+HAuh0czNO0L5w5EtODmRzHWeZPPTMVR/q988ieq1Ly2OnS9Ew63L2Fu+ivi+le9jZQIR0WmcnJDJVlVFVcvZ+0gYm19MJuqmBRQ2sVx15MMqavlelvmq3DZqLqrzJBsejmjw9fZt6UwcmULRmDRytx9BLT/Chmkh5D4Sx5AJCyiQJEb4gSQwQohmCiX6/rmkvZDGbACKyVqYR9jTm8l9IY3ZDywma2MGiQDrssnfU+ulh3JY/EgBMJGJN1b+STcEE/2Ati/bilVsrrrS7hFJ4kNpLHs8sXJBPpkryknMyWXJ47OZvTCLnesWEwHYXkwjYUY2lid2svPNJaQ9sJis7XksHgbY0snZWOfe/7Z0En5zhOSVS4gfFlx5vAjin8tg8TCwrUgg+SU/XGr3iGT202nEAGDH7vKxjf0IR35cTOrUMKqr1TbnvDaBZdAQhjcY4xCGNFS9rKOeV9F2+kYz+6E0Fs9JqrfKMiKeufcvZsnj0dqCvCWkH4sntyCLxQ/MJu2FXFYtjABsLFi3uU4rTDHZM2NJLUog6800YvpWftp7RJD4QhazQ/GtmZ/B4GGJZK5OIxLgozTSXq/8opQWkP3CEdJW55J2YygtrgxtCCby/iWk3ag99fmdxs6Rg+UsnpNIWPWBCsiOz8ZGFBNvDEd7JxbCpqSRNgHYsoS8Hc2IwxLGkKENxzgkPMz3uuN5pNyYRcRLq5g7rvI8WEKJfiiLjKnAllRin8hvl8lLhahNEhghRMtYrIQAEEbCnCQigmut6xFB9CSAfGy1uzr0CGf4KAibGo7Xn8vqffm4aDdYKx9Ek3hXNKG1i78PiyKu8mHMrLnEeF3URBBV2YxwpLT2n1c7+a8tpuCuRGIG1H1T4URM0B7lrcz3T2vBoDgSpwJkkrm6fgTFK9MpuicBr/ulLTmvra6Dn1fRpoJ79mlwnbVz5S+HmGTm3uR9oRwRqaXr7LN5dTEsWZvO7BU2ImYlEN25zg47RxN3h68jtewzaBk1l6zseEKxkX3PbLL3FZM9M4Gd92Qxd1RrTGoTRtwd2o2YzH+uqv/535NF+p5kEoZ5vyZ8Siih46II71F7uRVrMIAN2vw7DcVrM8gITSBuTN3zEExEpJaY2p7Ma9PJS4XwRRIYIUQbsPqeZcoSwdwClb3LY7UuFa4SitZlkByTQOpPOl4BJU0eYFFI/pM2eHEiIfX6p1sZv6hys/W2Jna7am3BxN6jtSzlPZJJvteFQSE5SyNImlTn9nObndfm6OjnVXRI1TcoarORtyIDGxAT2UDXJqOvhS3/DIbdnkHmXaFgyyYhbCBLBmeReXsDrRItEDwpSWsRXpdKZp3ucoWrM4m4Kxbvb3UosS8f4Uj+bCIsAHZsW7JZEB/N7Hab/6aYgrV5sC2F4T7G8gyckV+9na0ZY3KEaA2SwAgh2l+JNnZlSEQCGXvCSHp5GWntdexDxRQBPLxZ61Pf4L+5tKTXe6sYFkvSjYBtARmraw3TX5vJqtg4ohu6KSznVZwTitlZeZFubc502z/pMxhMzMIc0qrGnHW2tLzbmE8RxN4TA9hY8GLtsX55ZObEETeugaO5bBS8lMLEocOZvR6iF+aS7mssS5uwUbwamJTF3kbPZ824HSHaiyQwQoh2VbI+lfHhUWS4EskvzGXJ3TGE9/B1F7aNbdnZgbsyhZHwwFxCgZyFWRQCUMyqF+2kTPV9R1rOqzhnVCUiLdXSz+DxYnaWhhEGFMxKYsGW1u0XFXb7bOaGAq8vJmubtqx4bQb2BxPx9a2278pkengfZhcOZ/GmnWQ9HE9kXz98p1dvpVi6iIkORhIYIUS7sX++gJjrF7BzSharHqoznqW99AjVxomsz/EuMFBH8UvZlYmDf1jGxZEyCtiWQsbqEuxbsskcFk9Mj/rbynkV55S+YdVFJPK3NyMV+SmfwdICFkzLZeLavWzIjieUAlInJZK9r1mRN84STdyDkUAhKc/lUGIvIHtpBPE3Btff9lAOieOmkzl4GVnPxRPuY5O2F0roBIAs8jY1nMHY12eSI/1CRTuTBEYI0W6K1i+hAIiKGNLK3TOawTKcqKkAeUyfsoACX2Nn9mWzoDiU8HYOzVsEiQ9WDfzNIH1pLnGTo32et9Y/r1UXLs0QMOdVdHzhhE/VHuWvPkvRB1etCWFa/BksJntmKjyRSfwACLs9k5yHI8CWzexHWrf0d8SUFK1C40uZZCzKJHey7y6htoJVZNuAyCG01kic0NDoZr4ijOETtCpx6b9vIJkrLSB9JUQ0VBVOiDYiCYwQok2V16qUY3dpt+ly6lyU2Nblklv1xAWUFlFUazK3n6qktPasd8HEzKwsm7ollaiRcSxYmU+RrYSSkmIKV6cTNyGLyN/7ThbaU/CN8VqXk3WppJJCYgPzr7T4vDobOnIIfQZpjzZ73QEvoWjFYrJ2V+0zMM+r6IBcUPNpCiZmRprWrWrddBLm150EtYSTx7RHObtr3/pvyWfQTsH86eTeuKxWxTELkQ9mkDZKK7ucML+g9coE94gh/qFQII/URyBlSgNFClyVR8zJ9ZpnpWRHLrmbtMfa79YSivbUOjuuhmf4DAmtTNsKvLvYlezIZvGKyiVePweIuD1VmyfHlk1C5HimP59D4b4SSkpsFG3MJOU3CZy8PaHVkiwhmkoSGCFEi5RszGUVADmsWl/nHuXxrWyt/COb925+9cVHxBhtXAevJzA+JpnURSkkRE5kCcOJDtX2teTxFJLvyaMkGMBOcdHWyldvZece78sI+56dVK8tKva+yLAXs3O79jB/fb5XH27LiLlkvZao/dHdk0Nq/HiG9AkhJGQgw2MzCHliCYmDWnhiWpMlmsQnYoBQ5k6JoaFeJM0/r0BJPrlrtYc5q3Mp9irJGkzUjUmEAnkzohg/I5X0RSkkRKaweWQiCZXzwOQ8OJ3pD6aSvUM7uQFzXkUrKyE/T/ttwOuryK19p95VTO7qHO1xTi75XpmInaLCzdrD1avIr/U6y6jZZFZOAFnwSBTDY5LJWJ1P/upMUqal1nRZmp9AVGwyGVu0HTfrM+gqIf/JicQ+Ekz0yDqX4J0jiZmsDfUveCSWxH8WUtIqZYstRE/T5noKfch3l1CA0JEx2nxQ2xYQG5lAyqJUkmOiSPmsD1HXaNtkLkwhZVoqRYbqLzX57+ZpD+v+HIDgyBiSQoF104mKnk7qonRS4qNIKYggcUrl+189m+kzUkhdUaT9Pu0bS+bqNO33iC2fzHviGB4WQkhIH4ZEp1I4IYu0CXJLQrQ/SWCEEM1kI3uyQkj0gup+5DnTBqIocWQf0tYpPSeSXnmBUTh/PCFKHNmHwDIulfzs2cQMguJ1eeQX9SFxdS5pN8YSNyeaUMII6TGcpOdmE9m5gAWKlYHTcqqOwvTBVpTJ2dgqY7AOnk5OrRislcexrYxDsQ5kelW50denM9CqsGBLzbsIu3UZW7evIm1qZOXdw1DCb5pN1vatLLu149xPDLspiaRJaSQ2VKWI5p7XyvMTMp4FlQOJeX06A40KcStr7mYH37S4cp828v+ZzaqiPiSvXUbi5SFAKOG3p5G1OoslC9OIv7ImtkA5r6KVHMomTglh/Pzq3wZMD1NQ5hfAlgUoxlrfw20LGB9Sa51iZcjMvPqvA8BCxP25FG1aQtJN4ZSvyyB5ZjKZO0JIfHoJiUMrP4MFm8nPWULSqJr0vqmfwYInQxg/Jx8bOUwfrP3uqF43X2H4rKpYbGTPGE6IcQEFtIJBcSTdFUvatEZaIwclkrVpMfFXhmLbkU/eJjtRC/NYNjWGhKlJhBFKSOc+xC1cQuwAGv45TM6uqXjWI4bFG7OYfWMYto2ZZOcU0WdmHsvuCCcECL0ynrTsHLKeW0zalPDq2Cyj5rKhcANL7oohvLKrWNioRBbnF7LhoUhpURV+oezfv1v1dxBCnM/69WubW9Jz5szhySef5LnnnuPuu+9uk2OI5tPr9Xg8Ho4ePUrPnj39HU6HMWvWLJ555hmWLl3KHXf4nKVQ+ElQUBAOhwOXqx1mTgxA/fv358CBA8ybN49HH33U3+F0GGvWrOGWW24hISGBV155pdX3f/jwflyuBvvBinOctMAIIYQQQgghAoYkMEIIIYQQQoiAIQmMEEIIIYQQImBIAiOEEEIIIYQIGJLACCGEEEIIIQKGJDBCCCGEEEKIgCEJjBBCCCGEECJgSAIjhBBCCCGECBiSwAghhBBCCCEChsHfAQgh2sa+ffsA+Oabb1i8eLGfoxFVVFUFICMjg86dO/s5mo7jwIEDAOzatcvPkYi6PB4PqqrK75EGnD59GoDNmzfLOaqlvLwcAJvN5udIxLlI2b9/t+rvIIQ4n/XrN6hN9hsVFUVBQUGb7FuItjJlyhRefvllf4chalEUxd8hiAA2YMAAiouLW32/hw/vx+Vytvp+RWCQFhghznGhoaH+DkHUUnU3slevXuh00ou3NrlT2zHp9Xo8Hg+9e/f2dygd0rFjx3C73XTu3FlaVeuQ77RoK5LACHGOGjt2LAUFBcyZM4e7777b3+GISlUXgzt27KBnz57+DqfDmDVrFs888wzXXHONv0MRdZhMJhwOB0eOHPF3KB1S//79OXDgALNnz+bRRx/1dzgdxpo1a7jlllsYPXq0v0MR56B6t/+UM2cwrn0b5YeT1csMH3+K4f2PW+WAysHv0BduR3G7W76PM2cw5ryFcvR4i/eh31OM7quvfa90eTC98jq6vftaFt/xExg2fNj81/1wEtOLy9F/+ZXP9boD32F6cTm6b1vWFKvbsxfj2rfB5WleXAe/Q7+jCHz8zBSXC8MHm1FOl579+F/vRr97b6PbGD76BP22HWfdl/6rXeg/3Nz48fYf0t6vw9Hodsa33kG3/2DNvrfvxJj77lljqEs5XYpuz15QG++VqTvwHcZVb6L8+GOzjyGEEEIIcb6r33/h5CnMf30W3YGaCzpD3rsYV+f63oPHg27XNxj//Z+Gt6nFlLMW691/RjnW8uTD8NEnmNMz0O0/1OJ9mNJfwJq2GMVZv/+kfvtXmF5cjnK4ZU2fpn9lY5n3VwwFnzbvdf/+D6aVOai9fd+VNS1fgSlnLWqfljXjGz7bivmvz4LH1by4VryGZeYDKKdO1Vun2/I5ljnz0W/+5Oz7WbYC44rXGt9meRaGNXln3Zfh7XzMSxvvJ6//cgfmvz6LUmZvdDvzwufRb91es++CzzEuz/a9saqi238Q42trMC1b4R3TuxsI+kMSuqLdjcdV9DXmp19EOVH/fAohhBBCiMY1uwuZ4nKh7P4W/c6v0X+xE/3nW1FO/YjaqROu665t/MWqiv7DAtxXD8cT2rSLcGPuu1Ba5r3svY2g16P/9tsmt5I4b7kRzObq5xX3TCdo+n0Y/7Max5TJXtsaPtoCZjPuEcOatO+6KpKno/9yJ+Z5C3G/thw1+IKzvhz8+ToAACAASURBVEb5/hiGNXmoFgumjOX11jv+eBuGDZtQg4Mx//W5euvd14zCOWEsoLUu4ePuvvKd1vyv37YDjPV/9J4B/VBDgr0X2u0YNm7CPWEsardu9V5jfPd9sJpx/bJlTcS6Xd+g9u6JGhLSote3Obcb3f6D2uf9y6/Qf1aotfyZTLiG/wzF7UbV6wEwvP8xau+eeMIH+zloIYQQQohzV5MTGN23+7DOuB/dN9+iOJ2oXbrgufwSnL+LxTUiAs9lg9F/VdnNSK/H8N776D/b5r2Tigp0tqN4ugVjfvJvjRxMR8Wf79ECfH0NuqPHatY5XShl5RBkwfjyq01+o67rx8GZM9XP1d49cUyfgjtiKMqJE9pCvRH1gs7oNxXgHhkBFkuD+zOt/C+6HY2U+zSZoJMV86L6yUaVivvuQu3ZHQDzshWgKLjGjkZ36jSqXofapUvN7jJfAbMRV9RIreuR240aXJNsqEZjzbbP/xP954UNHtd6/1yfy+2P/RnXdVoSpPxwEsPmT9Dt3YdSVo7apZPWHQtQu3TBNXY0Slk5ho+24AntWb2uNk/4YNxXXdFgHABBifdScc+fcP7ulka3a2+6UyVYk/+M/utvoMwOVjPuSwfh/FU07pERuIcOQf/Nt+DxgF6PcvIk+m07UIODsTw4z2tfrvHX4rphvJ/eiRBCCCHEuaU6gTH+eyXG9R9Ud6kyp6WD1Yrr2qjKLTy4h16B83e34Ln8UjwXhkKt0opKyWmsM1Owz52FK2YC+q92YXx3I+4rLvM6oDtiKAC67w77DEj5/hi6749VJzDl/8rwWm9+7h8YVr1FWfay6ov/plBOnKDTTQn1V9TqBuS+6goq7rsT3XdH4NgPdIqZXG9zNTiYsuyl6HbsQv/5F7hH/Mzn8Ty9e0DvHj7X6Y4dR/fV1zhm/BEVML6xDkPeehzJiThui8N6VwqKQU/FY39BNRrRf7gZ60Pzqbj/Tpy/vRnrQ/NRjhylfM5s1K5dfB7DPSKC8icf8VpmfH015qUvcyb3VVSTqSae4z8QdPt07xgPHNS6m1W/9s2a9xbWH9fY0Rje2QgVFSjHTmgJVvVJUlHKynBMSzhrAtMgVUX3zbcYPv4Ew0dbKE9//KytNIYPNqP/3xdUzLrrrLs3rn8f47//oz1xuzG99ArGVW/ivvQSCO0NbhXPwAE4Y67DE34pnn59obKlpSo+y4PzcP7mRhx3TsXw5jugqrivuBRF8e6ZqUilKSGEEEKIVlOdwHguG4wLBeXUKYyvvoH758NQL+qDZ9BAdN8dxtO9G467pze4I/0X2sBrz+U13Wc8PbtTvmRhswIyrfwvphf/5XOd7vujGFa9hes3Wnew6paTxig6rVtUly6U/+1JACwPP4F7+FCck27y2lTtbMX895cAqJgaX93lTCktxbQ8C9cN43FfNaRm+4v6YF+Q2qz3B2DY+BGW1AUA6L/4CvMzS3APuxLH5EmgqlTcfxfWP83CuGwFztvisCx8DveV4Tgn/VqL7b4/YU28F3P6EuyPP+T7IHodBHm3ICkmrZVGDbJoLURV78NipiHlS5/BfcXl1c/Njy3UBuI7HJheXol75LDq81p9nB9/pNMNk7VjuDzVyapSbkf1aIPrMZvwhPbyfp3TCRUVGLZtxxD7e62rltUM5RVgNqM7bMP4+hva2/vyK5QffsD87N8BcP4qGt2evRg+/LhJCYy7bx+Uyi53pn++jDv8UjxDLsfTszs621FUgwHHvTOqu4fVpdt/EOXUj3guG4xSVoZpZQ6uUSOxPxUAFWhU1evmgxBCCCFEIKlOYNyjRuAeNQLl0GGMr76B68bxuCOuAkC37wCm9R9gfubv2h3qOhc/yvEfML2Ri9r3QjwD+rVZsMbMLAAcUyZjefiJRrtJVVF7dufMG6+gGo24R1aOadGBp++FNc8rGbZ8hv7TrQC4R1+N55IwAO2CfXkWzl9fX31OqrndGDZuavJ7cI0Z5b3A6cA9oD/2Jx4BvR7TshXoinZjT5uDJ2IoypHvQa+n4qH7qlsA1O7dcN4Sg/vahsedKAcO1RvkrttRBGjd0RR9rd6DZ7zHGDWF8Y11KEePU/GEjwSushVPNZlQSksJir/Da7Vhy2d4LhtM2XKte51+2w70X+7A8On/oMyO2rM7zkm/xjXmF+i/LMK8+HktYT1Thv6Lndr7O34cyiuqn7uvHt5grJannvXqYue89Te4hw7BEX5Z9flwj7oa56QYLb4PNqOUlWF+bBHuqyNQdd5JjPJjKYa8d7VuZSN+hvF1raKY2j0E42rvAgTuIYPx9OuH4q5VLKK8Qvv/TBlKaSlq5SzOmEwojXRbbC1lT6Vjuv46DMNbNsZLCCFEB3G8iLyVGWQ8d4SEjauI7+vvgIRoH00aA+OIvQnl0GH0n/0P/Udb6m+g1+EeFIbjzqnQQHcZw9sb0G/3XR4YRUdFSnKjMegOfIdx3Xs4b74BtVcPHHff4XOgOgBOF6bMV9DvKMI97Eof690oBqP3MpcH03P/xHNhKLrDNnT7D1UnMFXlmtVeNdXB7I88oN3JdruxPL640dhRVW2sBHBm9Qpc10RRun41WEzQvy/ly5/XxlEc/A7jitdwXzMKd2Wiow4ayJn/LNdaIqoPbsf0UjYVvXviHjzQ5yGV06XoCr/0Xlb5PvTbdnj9nBRH82ey1ZWU4Bp/LZ6w/vWP7aiscmYyoXbpRNmqfwNgXvA0qtWMY1YS+oLPsf5plhbPx1vwjIygYuYdGF/LwX35pTj+cJu27rNtYNCh6vW4Bw+sTnrM6S+gL/yy+jmAaec3voM9dQrFWNPihI/Kc7W5rhmFY8pkDB9/iu4rH+OcFFD7hFJ+75+0cUqlpbhHjcCwaTPKuvfA46lOmBzTEjC/tBL9poJ6uwm6414AqgqWW2YkEvTwXxqNrTXoLriA07dMxjJ1CtYHZ6N0CmrzYwohxE9WUkTO8+ksfjmTgj1hRE5NIu2J2USfl3P1lpA/P5H0vELythQDsfjoJC/EOavRBKZqrhbVaq4ek9JS+sLtGPI34Rka7n0M21F0hw43msAoLhfmJ54Gj0cbjA+4B4X53vbQYazznkL5tpiK2Uk4J030uT/9Oxuw1ro4dQ8aiGo24XjwHsxpi9Ed/K5m+z3fgsWCp/YsxLUqmpV++FaDsev27MXy1LPovv4Wx+2x0D1E695lqHWnXa/XxlSkZ6AYDDhmJjY+X0pZuRaX7Wj1dp7grtVjghzxcaDTaYUIajGt/C+mJZmUP/9Xry5klFdg2LgJzxXeP5vGVMz4A8qJEwQl3IljWgKuiRNqVlYmRKrZBHp9dVcx1WICixVPaC/0OlBDe8OOIhwzE3HeNgmgfjGAigpU009rlbA/8UiTKsHh8YDLBSYTjjunagl5Ezj/9EdcP5zA07sX5qUvY3jzbc68VVOG2fO/bSi/jKp+rt++E+Ob66j40x9Re3Sne3ft/OgvHdS8N9ZChqtHgKpiX/4yjnc30Omv8zFeK5MHCiE6sH15JN8+ka0jV5G1fRlhFjvFKxKJ6hNFckE+c0e1fet1xxJM9MOriH4gnxTreNL9HY4Q7cw7gVFVdN8fBcCcsRxl/wHKlyxEf+KE75aXOpwJk7XB/Q1Qwy6m/Ok0r2XG1XmYn3mh0f2anl2KfrvWVQh9wzmX/sPNWOcvwtOrF+WZz1a3oNTjckG3YNRe2iB7/cdbULtegD1jEWqQFU/4pdqEhFX7/WoX7iGXgaEZg7ErKjC9lI1p5X/xXDKQ8mXPat3vGmB4ewP6zwpxRV6NajAQ9Meksx7C9K+V8K+VADhui8Nx93R0+w6guNyAG8PH3vPQ6IoPaMcq+BwMdc5j1wvQ7d2PJzjYq7XH+Pob6PNrihHov94NlV2q1JAQPJcOwrzoeTyDwvBcpl2AK1UTR5oa/lk5b47BeXMMnd97v9HxGEp5uVey2NqU74+BqmJc/RamzJdx3Hsn7n59Mb559rloXDdOwH1lOKrBgNq7V4PbuX/u3VVL0evgzXW4rx2Np39fzP3aJ3GpYrjqSi2BdTjwHPqOH/9vGua4WwiaNxelbhntDqhkdTp5I2dLVwkhGvDoo4/ywQcfMG/ePMaOHevvcFpBIem3TyTDPpfNT8QSZgGwEDYlk6ztYYyflEhYQRbxA/wdpx9YrHTQSQiEaFPVV5imf76Mcc06lJMlAKhOB67bYlF79US35XMMue/hrnUXuTaltBT9J//DFXM9NJLAtCjAde9hzFmLp//FNbOlNzAxoSF/E57gYMqXPIVqtnhvZzZqLR0VFeDx4Jh0E66Y6wAI+r87UYOsqEFWQCtoYFqehVJaCjod+k8LcU6Nb1bclkeexPBpoXYn/9bYRpMf/fadmJ+q7AqlqKjdunHm1Uztqd2OWmdchHKmjKBpd1Mx4w+4xv9SW9i5s3YO1r6L6T+rvCtmVansxmZJXVA/afB4QFU582omat8LqxfrdhejqzWhp1JyqmY+GEWh4s/3EDTlLixz5lP+UgbqBZ1RHTVjYFpEVVHOnAFFwbD1C9ReTa8211TGt97B+NJKdLbvtQVlZThvmIAr/FL0u/difGOdNreNj/ly8LgxbPwI9xVD4MpwTP9Zhb7gf4DWAsjp01jvnVO9uWNqvO+ujL6oKvalmTjf34Trq53oLuyDftAl6AcPQn/JQPSDL0EfNsC7Ba25TCYMw67C9enn1YsqVr2B4/0P6fT4w5humtiBB/kXs+qfm7GOnO3vQITo0N5//33ef/99AMaOHRvQyUzxS6mkbIGIp+OI7Fx7jYXo2GRCF6Uye2ECMS/E0PFvwQghWkP11Zly5gzuYVfiHjwQ89KXcdx3p/eA9c6dsT/uu3++bu8+gj75X+tHV16B5ekMPIMGUjFrJtaZKQB0iplcXe7Zl06/vr3esrLMZ/Fcfql2xx3gglrlhyvnlaniGn01pheXY3h3I6CgOJ24fjWuer3+q10Y3s5vNHT9rt2oF3RGOXy0ulJWXeqFvXBdOwbLXx6DbsF4qhIVgw6174UY1+RhfPk1yv/1vNecMJSWav93C/ZKNqr3GxLi1YWpSlUXstINq+tdAFeVaq6rYs79vquQVR0r+ALsc+/HOvthzI8txL7o0ZoWmJ/QchL02z+inNbeZ8WMP7R4Pw0qs6MOuJiKhDjMT7+IM2Fy9SB+Kt9fxdz7UDt3rv9ah4POGz+qfqp26oSnm/ZnU//DCdDpqp9D8xI5x1vrKEt7qvq5+2QJ7q+KvDfS69H3uxj9oEvQDRqoJTeDLkE/aCBKF99ltesyXj3CK4EBUH84QWnS/RhXv0mnJx5H16fjdSwvXplK6jqku4QQzVCVzFQlMIGVzBSS85zWIh5Tp1s0AMMiSQDSX8xg1awYEtu3QVsI4SfVCUzFfVrpWeXQ4XrVqwBQ3ehsR33uRDn2Q5MOphz7AdOK17yW6X0Nkq5iNVOROAX3uDHVF7MAFU+mgqf+5sZXV6M7dpyK5Dvqrau60K+aFNPTo6bRVSkrR7Vaq597wvrjHhmBMScX5fRpXKOvxhNaM/5FOfWjNsFhYyrHqTS2nbuiAuPpt8Hhovy5v2J+5kXv9RE/w/TM3zGnZ2B/tO0Hd7eUe9QIHAm/Rb2oj3bnviq5bGkrgaJQMSsZ5cRJPBeFoob11woyXHF5vZYB3WEb+vc+QGmg3HFDnJNvxjn5ZgDMf/uH7zBsR1E6+6jQVqfogfOmG+CmG7R9VY6BqZj3YLPiqVL2VBMuzd1u3MX7cBfvg/UbvFbpeveqTGYuYdjXe7jGbMVaeqZe6WTDyJ83uHvnexs5teUGguY8iDnhtgYLc7S3kvWpJMRnYyPW36EIEZCqWmSqkpl587RJdzt0MrMtn6xtALEM8dVFzBJG+ARgfR55n9lIHNTxbrwIIVpfk6qQgTZRZVDcT7wTfvKUVn62Ds/FFzX4Eudt2sWKvlYC44q82ue2hvc/QrWX4xrtez2Abu8BVKMRtWp8jKqilJ+BTp3qHHcSltlaaWNHkvf8N66okbiiRjZ4DABrsnYBe7Z5cJRjP+AaPszneB1Pv4twJv4fpr+/hHH0KJwTmvhHxuPS5lqp64TWPVB/4DuvssKgTa75UzhmJlY/Viq0FhifLQ9OF4aPP8WwPh/7g/c1uD/XhGurHxvX5GFe+Dzl/34B96AwdN8fRXfoO3T7DxJ061RUoxFnZdWy1hT0h7OPQ2pt+ov74tl/oMWv93x/FM/3R3F+XMB1wHU9L4IXMjm54jX0gwZWJzdKrYp6vqilZzgzZx4Vb6yl08In0Dc0nqwljheRtzaTrKePMHFdFvGhxeQ9mUrKC9kU2XxVFiohf34cCY/ko3VmzCHhYqWy4k4am9W5RLrsFH+eQ/ZzaSwJz+TIwxEUrUwleVY6O8PTyHlzbp2uJ0Kc3wKli5lt91a0CRPCCfM57s2KtbLBO2dPMXC+JzAlFK1MI+WJLPJ2QPjtqWS9kESE9K0T55gmJzBqSFfOvNbABJP7DlSXhG10H5cOpGzp35oeXRswvL8Jz+WDay7gnU5weVCttcaZqCq6ot3aQ0VBd8SGp//FbRKP2rM77p4Nj/Fwxseh2/4VnuCuTd6ncurHenOv1Gb9w8xmxdhslS0willLYBSXC/3nhegPHkY5+B2GDz/GfdUV3nOjVHJfGY7a2/viumouHOx2gqbfh67oa23biKG4fhWNa9wY1M6dMWW+0qpv48zqFT67kCkOB50m/u6sr1fKyjAuX4n7+rGNFnCozTj2GpwfbW52rGej/vgjrsIvcBV+0azXuT79nFPX/xrrfclY77qjfvGHZrGRt2gJeRuzyVinlf2c6Come1oUqbuHEDYgjCJbMQUvpTB+3VayqgflBhP98AaOPFzAAiWKVGLJOlgz34H982wWbNrK1hfSydkDPA7FK5NJfG4zxTaw2VJZvDaRVbef7xc2QvjWkZOZI3uqumtbG9gilLChwOvA9mJsRJ6/KYyrmLxZyWTYI4j+fQKWpenkrExmuCuEI6/Fn7/nRZyTmnE1Un9m92qWs3cVctw1DSrLMjdKbbvBw7r9h9B/udNrpnbdAa2lQu1S2QKjqpj+8S9MK17DNXECuq++xvzgY5D2kDaou6ncHq1c8k+k6vXYFz7W9O17dsMdMRT7X+q3bhjXvo3pldcpe+Xv9VpgDEXfYHjlNRSjAbX2a15djaF7TXc7/a5vGq0EBzVdCtUgK7q9+7De9QBKaSme0F44p8bjvGF8dZc+Va/XiiVUqv2z0TZQ0W/9Ek/fC/Fc2BsqKqiY8Qfcvxrn1a2vTQRZfH7m1caq0akewINh3XuYX3gJTp3C/YuGu2vVZZmRiO6iiyh7NA3P9767bLY7h4PyhU/jWJtHp8VPYLhqaAt3FErMA2nE3B2NpbLs5+al2UQ/foS9lV1DSnZkkjRhOtm2bBJmRhOZl8jZ2n4sI+KZOyKe4h7F5Pw+B7YvIXtQGpsLwij5KJPF70LcTfKnW4im8JXM+JPdVVlEZkKoXIA3qphVL+ST+kguuZWtLbOnRjG9ZxyZr68if1/8+VmlTZyzaq5EXR7QK+iOVFZlqnuntU5lpdqU8rPP5N7gPBxuN0qFA9ViRvF40O36RqsY1hQej9avX1G0rmBHvkdt6A6xy4MlbRFqUBCuX47GlPkKaqcgjO99qO1q8CCUkycx//VZDB99gvO2SVQk34FScgrrvXOwPJSGc8JYnHdNxeOjZK5y8hSobujaFb47gv7rPbh+flW97VrMbgeDCQw6dHv3act8zNruvC22uttdPZU/A89FfeqNT3H2vdBnFzX913vwWGoG4ysnTlXPNwOgK/oa3eHvUbt2ga5dtXFOK/+rDWzv3RNUBdeN0bjGXoP7qiH1xlOogy/B+NqaykH1dfoHVFSg/9929F/twhEfh9qtG2UrvMcJ6T/bhmVB5USiZ8pQ7BV0uuX/tOeVM94HTbkL9DWJsdqrB2UvPK193o8e0xJrHyWfLX9+DOpOeAqNJuLKnr0oJ09hSUvHPTKCillJePo13EWy/g4UTL++EVPMr/AcPoJ7z7e49+zV/t+9B/e3e1F/ONH0/bUid9EuTt/0WyzTp2JNuRfF2tAd0bOoLvtZQvjv5xJb649q8JWJZCwtJP83GdjWZZCzLZHZwxrYTx3Wqh9h5ziSbtfSnuAxiaSNaVmY54trr72WDz/8sEWvHT9+fKvFsXu31ur99NNP8+qrr7bafgPdhg0bzr5RG6mdzCiK4lUIoN0FWxtsgxEAYcTNTPTuKtYjguhJkLk6h2IbIAmMOIfUlFF+6RVM2avA5UINCsIz0HuGdcVoxFOrGpWXkyXovvq6RQEodjudrv9tZTQ6cHlqSgOfhe7oMYJ+Nw21i3Zhrpws0SZx9EH/5XZ0O7+h4oF7ULsFY/zPapSyMrCatVnf7eUEJaXA6VIq7r0T562/AUVBDQmmfMlCzOkZGNe/j37vfsr+taTehbjhnQ2Yn/+n1zJ3A2N1WsL8j39pF/pWM5RXaDPTD236xJMtZX/kgUarkOm/+Rbzwue9XqMajdrEp5UD66sKRPjc/4PJWBYuwfjfNSguV731apcuuG68Dkfi//l8vdqrh1a+uxnULkEYN36Iaf5iFEXVJv28sv65dF9+WXU3OK/Xu13oC7+sv+OKCvRf70ENCaHigWRcv4xseTlinQ5d34vQ9b0I41jv74N6sqQysfkW9+5vcX+7F/fuPXgOfacN1m9LHg/2pZk43n6XTk+lYRzju7R60wQT4mNcSvCEWBLIIJ1CNhfZmD2smfddw/pIKdV20hYX17t27WLXrkaKuwi/UFW1OqF59NFH2z+A3Uc4gq8RLjaO7G7/cDqkevfhrM3qZyNEIKn+aLsmjEXtFgw6Pa4Rw1BrDWp3XzIA503XUzHj9z53ohw9juJyodYap+GKvLrRwflV1E6dsD/+EFQ4UDxu1OBg3JEj6m3nCe6Kc/LNqN271Szr1ZOKaVNQPB5wu/FcGIr7+nH1XgvgjrgK+5xZ2twvisKZd/9bc7Gn04HDgfsXI3BMvhnPZYO9Y7ygM/bH/oxh7Gg8vXr6rMrkHjWCigoHiqqiKgqeywfjvnr4Wd9/ba4xo8Dku/XJecN12sSbLg8Y9bhGDm92FypPWH9cMRNQ9HrOdpnr6d8X+9zZeC7s4x3HH2/HWVbT4uaKvgZP/37gcGj/jEY8gwaidm/a1FqeywZTlvlss95H3Tgb+lw2RvnhJNz3J1BV3FeGe41x8oT2xBUzAccd/+ezlUtxu9GdKEHtW+dPqdlM+VPzULt3r54k1WfMvXrgvibSe9xVc2IPCcYw8uf1Kompdjuevftw79mDe89etq1+A9fub7ncYkXflO6bzeA5cJAfb/8D5t/9lqCH/4LSteljtM7KMoTht6L1aRdtbuHCxguNtJdnn32WlStX8tBDD3HzzTf7O5yAtmzZMpYtW9Yq+xo7diwfffQRqqr6JXEJGxQL5MA2O75ngNM6KAAwNEy6mQlxnqhOYDwD+uEZ0M/nRu4xo3CPGdXgTtRePbDPneX9mquHN/kCviktLmrP7lTce6f3Qp2u6dWnFAXXxAlez73ujptM2B9OaTzOcQ33RWns/DVVg12/AM9lg3Bc9tMK3LtGjcQ1qvHqaVXUbt2qJ/r0iqNOMQO1S5emT9LYgajdQ3DG3uRznSf8MuxzL2v4tXp9vc977deejTviKsojWrF7YSXFYkE/5HL0Q7QWs7XHbTz50Uae/9vfmHnLpMquaHtwf72bitdzWuWYFa/+F2f+BwSlzcMU86tW2adoX7/4xS/8HQIAoaHapWdYWFiHiSlQrVu37ifvY968edUJS1BQEI6q+b3aWejg4YSSg40jnCyB+s2rRyjepD1KGtb2vRKEEB1Dx5jgQQjRZlSdDl3/fhjHj8Xyp+kYIn7WKvtVunfDdNNErCn3YrhySKvss67wi+V+qhDtZd68eWzcuNFvrS0+jYgmORRgFYV7fKwvOcIRG0AsUVIrWIjzhvSOFOI84jn+A2V/bdk89kqQFcOoX2AcE4lxTBT6yy5to0kui7U7qqFzia7fm1QI0Yqqqox1mISlnkjiH48hdUYe+YXFzB3hXZfQ/lk+GUDoA0nE+pwnRghxLpIERojzSPkTC1FPn27axgYDhuHDMF4zGuPoSK3l5ifNA1NXDpu324nv6z0WqGRtFktsocRnJxLtc5hQMUeOA32BfQUUWCKJrN1Q82M5dqBlI4yEOPd1/KTFW9iUNNKW55H6Qg6Fd8wmonpNCfmrsyA0nvSZ0fKdr18Hp1p5I+uECESSwAhxnnB9+vlZx77orwjHOGY0xjGRGK4eiRLUtoVLM6bF0Sc7k9njQrFgx7YxncQZGYQ9vpnM2+vOABNOxF3Ai4Wk3DWdkxMsFNqiyVwKuGxs3lQ5AeiKTHJmRBE/6Ly/nBGiWqAlLV4sEcxdmcXOyASS5oST83gModjIX5RI4uohpK3OPG/nOCnZmE8uADms2lhM7NSwmkTu+Fa2Vo4Pyns3n5Qx0VKhUZwzJIER4nzgcnFmTv0J6fQD+mMYE4lxdBTGqFEo3ZpWPa51xLJsdRIlS2MZEl1AMaGE3xRHUvYRksb5GvsSTMyDuczel0z6unwKr0lj8dOxhG5ZgBKZWrOZLZuEwdkk3Jols0+L81pAJy11DYgna3sYGY+kEX3xRIoIJ2ZSElmFSUSfl19yG9mT+5BQq1pjzrSBWKfFknUwA2Z5ryucP56Q+bFkHVxFvHS1E+cASWCEOA/Yl/8b99ffoOvRQ0tYxkRhHB2Jrm8zJtlsA9a+0SQu38zs5U18wYAYFuftZXHtZaPmoqpz2yA6IQLT2LFjz42kpa4ekSS9kEvSC/4OpCMIJf41lfiGVje2TohzgCQwQpzjFI8HpWtXum7IQz94UMsn1xRCBISxY8f6OwQhrdkK0QAAIABJREFUhGhTksAIcY5TdTrMv/utv8MQQgghhGgVMg+MEMJ/pDKOEEIIIZpJEhghRLuqWzXH7ud4hBBCCBFYJIERQrSPQ9nEKQoh0akUVC7KmTYQqxJH9iG/RiaEEEKIACJjYIQQ7aNvPKtUqYsjhBBCiJ9GWmCEEEIIIYQQAUMSGCGEEEIIIUTAkARGCCGEEEIIETBkDIwQ56jDhw8DsH//fpYvb+pU96K9ZGdn06VLF3+H0WHYbDYAiouL/RyJqMvj8aCqqvweacCZM2cA2LZtm5yjWn744QcAjh8/7udIxLlI2b9/t+rvIIQ4n/XrN6hN9hsVFUVBQcHZNxSiA5kyZQovv/yyv8MQtSiK4u8QRAAbMGBAm9yYOHx4Py6Xs9X3KwKDtMAIcY7r1q2bv0MQtZw4cQKA4OBgdDrpxVtb1bkRHYtOp0NVVUJCQvwdSodUUlKCx+PBarVitVr9HU6HIt9p0VYkgRHiHDV27FgKCgp49NFHufvuu/0djqik1+vxeDx888039Px/9u48rqoyf+D455xzNxAVzQVSU8xyKRfULCxbKCtpx19Nwtgitmqbmi3QZmCTim2ijYk2mrQ40OJINSbWWOJMJqalpSZmLtelIAXufs7vj4vohYsCooB+368Xr5f3LM/5nsvi+d7neb5P27YNHU6jMW7cOF555RWGDBnS0KGISqxWK263u2JIkAjUuXNntm/fzsSJE3n++ecbOpxG4+OPP+bmm2/m4osvbuhQxClIPv4TQgghhBBCNBnSAyNEY6DrOKa/juv9f6LYbJhiLsSWdCda93MbOjIhhBBCiEZFEhghGgHHaxk4XsuoeO3b9iuudz/AfOkl2O65G/NlQ0Am0gohhBBCyBAyIRoDd87HQbd7/vM1B0cm8eeVcbje/QDD6TzJkQkhhBBCNC6nTQKj7tmLumET6HqVfUrxAUxffIlyoKQBIjsxFJ8P8+LPMC/5N/h8x92eun0npuVfg8N1fA0ZBualX6IUFde5CdNny9A2b62yXfvxJ0zL/lPndrXvf0Tdubvu53+7Fm1Ffp3e72MlJr7NWyidmEzxhZfiSH8Nvb7q6nu99dOOEEIIIcRJUv0QMocLdc8elAMHMVo0R49sD1brcV/Q/MHHoCl4ht943G3Vhil7MeZPPqds8UKMSqVL1Z27sD33MmWZr2G0qH7OgeL1oq1YVafrG2YTvksu8r8oc6LodX9wNEwmsNmq3a+UlGBLnoy2fgOOKc+BptX5WoeYvsnHMiOTsux/oIe0q3M7qn0v1pdexdSjG87X/+a/l1qy/u01PCNvw3dO18AYP8vDtGIl3isvrVNsIeOTcd90Pe6HRtfpfOvf34bSEsoOfZ9rc+5f/i9gCFl1jD+KcLw6A0fG37HG34TtnruPa56Mc+4/MF0wEFN03zq3IYQQQghxMlV5elR+24l1zjuYln0FxhFrXFqtONIn4YvuU+eLKSUlWF97E1QVz7CrIbT6h/B6ZRiYlv0H75WXYJjNdW/H6cSWkla3EFo2pzT3AwBCUlLR/vtdncPwxg3FmTwu6D7Vvgfb+GdRt23HF90b05r1mNasDx5Ts1Dcif9XtyAMw98bU8vvoR7ZHtcTD2OdNBXz3IW4772zbtdvQOoue5VEVnG7UTf+jK/vef4kvQaMs87EGzMIgJBxD4Oq4sj4O7jdxz7Z48H1/j9xvf9PzEMuPjxPppbrihjFf3LwjiRafPg+Wreza3VunXiL2bh0IRlvpLN75EqyR0Sc+GsKIYQQ4pQSkMCo9j2EPDgRpagI72WD8fXtDYqCarejfbkSDh4eYqX8eRDLzEyMsLAaf2JthIXhTBmPYjKdvOQFUDdsQrXvxXXhQEJvG1Vlv1L+wBjy5CQMi6XKfseMKRjt2lS8dj12P54bhwUcY85ZgvWN2ZQueR+j0r1ZZ83F9HlexWvPdUNrnQiq27Zj+mwZAIa1aowA2op8bC+/ARj4+pwHPh21YF3VtvbsRdmzD/2sDtUmMKbPlqFt34k7cThGs2ZV9ltnzEH773c43pyGERZWpX3L67OPfkOhNrSNm7Alpwbd7et9Ht7rh9Ls5r9W3enxYP7He1je/WeV7Xh1wq66OWCzoWiULs0G8A8T9FaTIOiguBwo1Sy8ZYSFgcWC8ttOLP/ICtxZUgb4v0+WbVlBzq7Ke+nFFQkMqkrIuIex3pGAa34WzvkLMX6v2QJgnhXf4FnxDVq3s7HdczeW+JtQjtJDF3BPTpc/iUm8mxYffYAaeeISiuKlaSS9sYSCxfkUAvEjT9ilRA0ULx5LzxszsFfe0W8aawrGE90QQQlRA/ZVmUyblEarZ7eSXPsObyHEKSAggTG/l4Pyxx+4HroHz+3xAQcqDyaBw3H49e+/Y/7X53jjhtbqgt5hVx1HuHVjzvsKPaIdvgsG4Bl5oMp+ZeduLAs+wBt3NXpkkOFRYZUe4DUzVE50zP5hWobFUmWfoQZ2dHmvvKzmwft8WN7/CO2Lr8Ck4r5jBJ47bw+Mf88+bK/MQluRj+/CATifeRyjVcvq23prPr5B/XGmTAh6ScXnw/LWAv+LUQlBj/FeFoNp0cfYnpyE85W0wJ6t0jJMX36Dr3cvjDOCr9zsHTSg2lvW/rcGNBPe4dfjeuT+KvutU2fgixl4eEheOdPny1E3b8U9NqnSDR2u3mV7ZjLa6oJqr23+MBfzh7lB9zmnvID34kH4LhxQ0ZsGoJSWEvp/d+EdNBDnC09U23ZNqG3aEDLuYWxj7sP94Sc4Z8/Ft3lLjc71bfmF0idSKHs5HdvIBJrVZMJ/efKu79rtT2Jy3kMJD/KzUw/ChyaTPTSJnDsiGb7ghFxC1Fgh2bOCJC9A3MPxkryIRqiYwk8zSZk4jawf/D+5qc82cEhCiAYT2APzs39itC/mgioHGpoGlT5prxHDQCk+AM2b1Xi+g/LHHygOF3pEu6PP33A6UffsR2/bpvoeHbcb09Iv8QyNhRArnhuurXKI9uNPsOADPJdehN6j8ay7ofy2E1vadLT1G9C7n4Pj6UfRu1Wa95G7FNv0DNDB/WAS7vgbsM6cg/eGa/Gde3hIkPrTJmzpGSibtuJ6MAnPrTdWO9xIW/olqn0ProkPVfs98/U5H9eTj2JLS8eaOh3nc49Xac8z8i94Lx5U6/sO/as/aTHM5qDfL0v6TPRzu1XZp27airpjZ9BzjqRHdcZ17x0B2xSPB9uzf8NzTSzeywNXDVZ37cH6RvU9SuasbJSDpbhH3lpt701lRkgzCKl+TplitWK9/Vasf/k/PP/5GufsuXj+83XN2v6jCMdrGdyrqoS3akfLfdVP+Ddch4sy+DZv4eDd99I8622UkJAaXav2Iog85wQ1LWrMuTyTtPOXsDtrMJX/ctrCwxskJiGOar+TkCvGs3BxJM6oRHIaOh4hRIMKeDo12rYGQPtqJfodf6n2pND4O1HLq0iZPs8jbLm/8lPZP2ahd4gkNOkRlF27KJv/JraJz6Ft+gXP9dfgeupRmt2UiNGyJWXzZwa0p1jMlM1+FVtyKtqa7/3xNGuG64mHq0zKVrbv8D/Yb/jZX1XMasX10L2oWwsxf7qUsjenVzzoW3IWo/xeBC38yZeyYxchz/4t8IYc/uE/tklTwRb44OZ46RmM9m0D37Qvv0bZsStgm7b5F8A/kbvyQ78pyDCuo9J1zNn/wjprLoau+xOTv8SDqWrCoZ97Nt5BA3CPvQf9zAgUjwdl1x5sjz6F442X/THNeQftPyvxDr4A9/yZ6J07HfXalvnvY7Rvi/e6q48apjfuKty/bMPyXjaWtm2q9nwA2pZClG2/1uy2zzwTvdexE0j3I/fh6171Kdh76WD0rl2Oeb4R3gLfpYMDtqm/7vDHEHNBlX0EqXh2iFJUjOX9HLyxQ8BsodkNice8PoB7bBLuETWYf6QomC8bgvmyIfh+3oRzztu4cj6u0TwZTdcZ0awFzMvi4JZt2O4ZVWWejFGpHe/qNZQ88DDN58yCOhRYEE1BIQun5jJmcioRkquIpqJNBBEAXXrSPwJygnUfCiFOGwFPKJ7/uxHTl99g/fvbaJu24Hro3ioP7wDeYVei7t2PKXcpeqcOeC/y99hUzJVwucDhwjrlNRSzCU/89RiHxtY7XGANHNqiOB3gKCNkXAq+7l3x3ngtypatWN7NwTbpZcrO6+HvjcHfKxGa9AiKy4XnluvRz+/hHwI2M9P/ibbDhVJee0ApLcX8j/cCr+V2o/68Gc9tN6FH+GNSd+9G3b4TX8wg9Hb++1V37MKcs9g/r6ISZddutEoPfkr5p9zqxp+r9Bopv/8e5K2vnu2lVzDlfoGvz3m4nnoM/awO1R6rd+uKc/IzFa8Nsxnn5GRCRz9K6P3jwOFC79oF58vP47uw/zGLGJiWr0D99TdcE8bWqMfM/eDdqNu3Y3n3nxjt2+K59Ub0zp0oWfohWCxYM+djXvjPozdSXnbYc/01uHqdS9mcVysespXSUkx5KyoFqaH9shXtlyCJhUnFvPizipeeYVcHTfwqU7b/5g/lzMhjHnsky4L3weHCfeft6O3b4JjxcrXHqoW/Ys2YC4qB75zaT5jXup9Ls6mTCXliXB3myazEs2IlWreu2EbfjWX4zf55Mq6qZbE9y76kdGIyzdL/JotnnoKcq7LIYAzZ/Ro6EiHqIpKoIcCiho5DCNGQAp5QfX3Ow/nys1hT0zEt/xpT/mpcd9zmnw9zRAll9z13oG7d5k9genUPOolfKX/wL5s5vWYPkAdK8PzlQtx3jfBvGHo5aBqWf7yH9vky9Dv9261vLUApK8M56cmAuSS+iy8kZPQjAW1aFmaD14fRpnWV63mvuhzfeT0A0ArWY170CZ64q9DPjirfts6fwAS8Qf7MyHPn7XiuvyZglzn7E6zTZ+F49aUqw9ksb8zB/Om/j/keVLwXu/dgtGqFI2NKrapKqXv2+ksJL/k36s7d+M7viff6q1HXrMOakobrhSfxXja42vOVMgfWN97COKsj3huuqfa4AJqG64UnUe95DOtrb6J37ohvUH8I9SdxrvvuwnXfXcGv5/ViWvhPLPOyMDpE4rm5vDDCERPQleID/sp1RzA8PhSv1/8zWd3b4/GATpXvU3XMX37jv51NW9DP616jc7R1P2DO/gRft6iKn5ugxRkMA/Mnn2KdkYmvc0ecLzyJcVbHGl0jmOObJ7OV0iefqZgno+8NPrzMtSgH5YzWhCYf35we0dgUkzs7hYJPI7guNpfYYcNJHBFPTMeTV1RFCCGEOF5VHv+8MYMoez8T9+3DMbxerLPn02zEPWg/bKx14547R9QoeTnEfdstAa99F1/oD3LXHv8GhwvTsq/QozrjjQ0cVuY792x8/Xsf3qDrmHL+hfveu9CPNSn50GJ+5uDVvSqUJ2VGPayrckwm9djJi66jbvwZy5wFhI56iND4OzFnvoPvvB6UzXkV12P3Y3lnEeZ/L8c3KBp1+w4sCz4I+Dqyt8KcuRBl3+84H7mvZvOV3G6sz7+MumYdzqkv4Lnlenx9z6vR7Wk/bCTk7oewZL6D587bcfwjA71n1cRB7xBJyRcfBXy5J4wBoCxrdpV9FcfcdgtGWGiNehBU+15MeSvQ27fDOm0GljkLAkuIB6H8XoQt+SXw6ijaUd4rr47tmclYp7yB5+ZhOGe/clzJS0AM5fNkWi7Lpfk7czFfekmNzzWKinG8PhPvt6urPcb55hycszPrI9RaKmbjh2mMju1FpKKgKF0ZPCqNnJ8qFSXwOilclUVaQi8iX8z3b7PnkT5qMF0VBeWc65jw7kZqUMrg9LE2k9R5AHY2Ls8hY2IigztF0Sshg4K6ry0rhGgE7MszGHtb+d8/JZJeN44l42v5xRanpqBPXodKI3tvvRHzm/MwL/2SkIeepGzW1FpNcvd1i6rxsUarVlV6Lg5VsFJK/OWb1Z07AdC7dwv6YKq3a0dFaqGqeEbehif+Okz/+qzKsbYHJhwepmT4hzCF/PW+w0mDrlc551C5ZcyNY26AcqCEkMefQylz4r1wIJ7b4/FePAgjJATLex9i+ftcjNat8XWLQtmzD23Pl4fPLXOg7rKjnx2F54ZrUX8pxLLoI7yXXIjvooHHvrbPh+3Zv6GtyMeI6oz7kotwjX+wRnGrG38m5P7x+M7rgXP+TPQuZ9X5Pag2vgMlVco7Bz2upATb+GdA9+Kc/iLad2uxTp+FumcfriceDprIKV4vtpQ0lKKiimRE8fkwXEGGGzrLMC3/GnfSX3HfPhw8Pv8X+D8+qGG546PfRKV5Mm/N88+TCTL8sbbKXvwbSuvWWP/vlmMfXB9KCkhPGE5ezBwyc5OZY3NiX55OUkIKw+ctITU/j+SLbDhXZ5G+Yg0rp6STawcmgXNVGsMf20DP+OEkPNCKrFm5pCeswRZRSOoV0sMAQI8k8gpjWVNYSOHyPHLezSB3i52N746l/7cFZC+dQ/yxp5EJIRqVQnIfTiSVsWTMXMmMD6B4bRYpDyQydkg2K7NWsnBEzZ/HhGgKjvokrke0w/X8ExDZHvP897HMWYhz2gs1avhYq8VXjaRqb4OhVp5LUuTfXs2DqVLpU/Nga5zoERE4Xn0JxeOpmA9iWvYV5k//jXPqJFD8cWi//ILljTmBJ5eXkba8+TaWrMAaKEqx/1OOkAfHo1SOe+++oPEeLyO8BWVvTsc44wz//B/DQPvfGqyZC1B/3lxRcrnyQ7hq34tt/DMYLZvjfMI/7M5o0wbPjdfgqcnEcl3HkjYdbUU+7hH/h7tSwQfLW/P9661UQ93/u7+Ho3UrzNn/qvY4z/Dr65zcKAdKoHnzox6j7t6D9YUpqNu243r8YfQuZ/mvp5mxTn0dZe9+nJOTq5xn+uQztHU/+gtHFP6KtnkrptylWP/2WrXXsmS+gyXznYBt+nndKZv9ap3urzpa93NpNu0lQp4cT+6dSZy7dj1t1OPrMSyd8BRq61aYYy+vpyirU0zuxDgW9sth5VMx5dWxbERckczCmYW0is8k5ZZUYgpTiR2YQPLABArDCuh6bx7kziC9XypL8g/9Jz2e4VH96T+xgLRPV5JyRWyValunJVs44V2iie0SDVfEkzRpGvZPU0kclUbelkyGj4hi5dJkYupQcFII0TAKXknkOvtYtn6QwKG/gOH9EpgxazcroyeQlTCW2AuWkNStQcMUol7VqCvBfdtNmOe/j1pYs2pSwAmZ/HuooICye3fwS+4Kvj1AqA3lgH9eRdmc1zHatcH8+TJ8XTr7526U8/XvjfvG68B2eFiZavcnInp0H/TWgeV7tJ83o+3Zhz6gb9UqZN+tQ9kVWLWsvhgdz/QnLqtWY537DuqPP6OfHYXjrdfRI9pXGe6mbvyZkMdfAIsJx6zp6J39PQhGy+a4JjxU7XU8Q2Px9TkfdJ2Qcclo367Fc+Mw3GNGVflea1t/PXrhgvJFH5Vff0M7ynHektJj3X61lIMHMZpX8xSm65j/+THWWW+DruN6/OHD828Az83DMMwmbC+9Qsj9E/z3eGRcV1+OUlSM5y83VyQtvkH9cU4Jkty7XNiemYzn9nh8/fsG7DKah9b5/o5FbdOGlX3P49ZPF5OTdC+Df/m1xvNkqvD5KLn/YZq/Nx9T/xM483tLNhmzIkksiKmSbIT3jiGWTPLsaeSuSCF2qP+IkLDy38O4sSTfEPgJY3RMHFAA2+wUAyduic6mzEbEsFSW5fciMSaRrFUppC5KYMnd8mmtEE2CM4/sKfmMmZ1Lld/aHtHEAgXkkrW8kKRajIoRorGrtA7MZvRzqw7PUvb4H9yNTkdUaDKVV7OqyWJ59cToEInRrBnaf9eg7tmL3v7wopNq4a9o62s2T8c3MBoUhZAnJ+GY+gLaf9fgvfTCwIM0rWIi+iHKLn/dRtcDd2G0DiwMYM7+BO3btbiS7qi6Js0bczCfoARG8XqxPfQU2rof/D1mTz7iX1y0pIzQhHvwDL8B990J4HBheXshlvey0bt0wTH1BYx2bWp8HaNNa5R1P2Ib/yxKaSnu0SP9PS9BElXHS88EaeEwrWAdIWOfwPX42OCT3o+XrqPu3OVPuIIxFEwrv0Vv3xbni09VTMA/kve6obhMGqYlS6v0+BlhYbiT/hp4yfbtAn4eK5T5fz/0c8+u05o4x8tpGGzpcx7DZs+q9XoyRzIcDg7eOZoWH76P1q32FdRqojA/l1wKyI1WCL7Eavlx+2uYjphO1Fo2p6AuCWTMXknejRnkfpqP/e4oSfiEaApW55FmB25sRcZRDsuz26FqiiNEkxWQwNheTMdoEYb3ikvRu3XBsNrQtvxSUYr4yAUC9XZngKahfbcW9ectKKqK3iECI/TEfapsmM14Rt6G5c152B5LwfX4Q+hdOqL++DO26TMxWras0UKCRsvmOKa8QMgjTxOaeB/KwYN4b7rumOdpBd9jtGzun69zIh1jAnnAoSYT3qGX4o27Eu+wqw73/rRsjvuvt2F9YzZKSQna8m9Qi4pxJd2BN2F4jRcVBf8imJb572P6aiVG+7Y4pjxbfXLQAEz5/0Ox78do1RKsZkx5K1D27sfXu0fwEzQF5wtPYJgsR11M0nNNLJ6hl6P9su0ERX4SHTFPxjH9dRyvvFHrJoziPzmYcBctPvoAtZblpmvCvi0HiGdhYTYJMg/jpAu/IZGxERmkLCqkEOmxEqIpsP/m/+A2eYVBas3ruAjR5AU8xepnR2H64ku0738MOMhoFY5r/JiAssXYbLhHxGN5ZxGho/xDj0rfz4QTmMAAeEbEo+zdhznnX4SMnVix3X3XCNS9+zDlfoFhOfpaJwB61Fl4B1+A+fM8/8Pdoo8wbrkBvec5wYe/uVyY/vcd3sEX1np4nELNExIMA2Xf7zWagH6IJ/6GKtvUXXb/Gh82G+b3PsQbMwjn+AfRI9vXrFFdx7TqO8xZi9AK1oOq4r32SlyP3I/R4jgHyHurFkg4HsrmQqx/fzvwEldehvfm6pNS4xjzYyqoKobPezzhNSquD7JxvDqjzufru+0cTLybFjnvobQ6Easg5rBms5OELjJj5eSL8q+vQZR8TitEE5O/sRAukd9ccfoISGCcLzyB8uAotM1bUfbuwwixYbRv618vxVr1k2r3/XfjG3wh6q/b0c/qBOUPx67nn8BwBV8p3PFaWpWys47pqRWT5wO0aolj9ivoR8xlMEwmXOPH4Bl+A+qGn1F0HV90H/QOkYQ88jQAepDFNw9RPB60r77BmrkQZeduPHfejm61YFn0MaG5X/jLMV92MXqnDhhndcTXsQOEWLEs+gQcLjw3DKu27cNvjBulzIlhs6A4XGhrf6i2oIFp2VdoGzahtwiDkFC09T+i7twdmCzWhNOJtnkr2g8bMOWtQN2wyd9jFTsE783D8PU+75iJl1L0J9rqtWjfrsG0ugBlzz4MkwnPTXG4E4b759vUha6j2vdihLfEMGmY/uNfc8UIqZ+HVM9tN+G7+gpwOlG8PvR2bY8ryVJKSlC3bMMIC8WwWjEvWeqPt6ZzVnS9opqdusdfArw2PV4nimv+QkqTnz/udnxbfuHgXffQ/N35KKH1N0wrIiIWyGPh0pWkDq1m0n1JHplLe5F0i/QP1D8HeCF6SE/pfRGiiQhv409a8j7Mo/CepGo+fCgkc0ExSSOjT2ZoQpxQVZ6qjPZt8R4lAQigKPj6nldl7Y+jlU8OutZHNaWZDbO5YrHJKuccqhh1KJQyB+qmzf7Sy9UlC59+gfX1v6McKMHX9zxcz06oiMdzezzmJUsxLf4My9yFFavDG61aUvbObMzvf4Tvgn74Ljj2JGZ1xy5CRz4QsM0bNzTosUpRMeb3Aiua6Wd1wJ2UeMzrAJg/+hTTh4vRCrf7Y1ZV9HO64nroXv+QspY162kwz38/oBdD734OnmFX4bnl+qALgdaKohB6x/3gOLzqu96+HXpU5+Nr9xCbDT2i/j6xV0pKCRnzeMA2vXMnfDUsIW7NmIP541z0Fi1R/igCk4re45x6i68unH+fQ1nqy/XWnnfNWkruf4jmc9+EekrOoi6II5o8CqYmktR7JQtHVv474iT/lSwYMSfo+eI4bcljYf4YUmfLQ44QTYUtejBJpJP56WgSX+xF7jMxVO4bL3w3jcKOde95F6IxaviPhWtJ3bIV/cwzAybKK14vltdnoxwowf3AqCrn6H17o3eIwDegL94fL8VzwzD/WjJHslrxxF+PJ/56f2/Gpi2oGzahR3XGCG+Ba/yD6O2rn/TuGxiNM3k8itWM0bmTf02U8hXjjXZt8F5+cdDzvHFD8Q3oh+LTMXw+jNat/EnYsRaxPHTdPj0xffU17ssvwde7J75ePasWEagB701xaDt24hsYjfeCaIz6HB6kKLjG3ofy55/g82G0bI43dkjQXr2a0CMi8F5+MYb1GAuPBuG5+goU4+hD2PR2bXFOfgZ8Pv/6LmGhePv1BUvV6/ku6IcR1SnwGkMvx2jRArxeDJOGb1B/9A71P2ekJhSg98r/Ufb1qnpv27P8K0onPEWz6S/X+OfVf2I12/slkjJyGsMX2Mm6YzD2FSmMeTCO2C6tcNrXsGR2GmmmZDbUthSoFxy1POXUVEjuxDRyOyWQ8kAsEUf+9S/OJ21kJoM/zCOu5rU9hGgADhyyNuNhbeIYMzmGzKfzyX92MP3Xp5L6QDyx0ZHYigvJW5TKhOVxLMuVYbni1NLkEhjzkn9j+tdSfAOj0TtEov5ZjLZuA8qOXfh698Lzl5urnOMad7g35GilgivYbPj6nB8wUb26BOQQvXMn9M6HH2SDzUsJxggNxTiOngi9axccr6TV+fyKOFo2x/n0uONupzpHlik+XjXtCQvGe13wnrAAqor3ssE1a++qqmuj6D3OxV2LBV9PpPvCwulesA7ljNb+4hAVXwS+xjhcPKLSfqPKcYf3ubJZOwstAAAgAElEQVQ/QmnThtCUJ2oWUHEeSxb7/5nz4RIKb00iquKvUATxM3NI3RFPynI7eW+NJe+tw6dGXJFKzidHDC3zFrLkw/Ley5wl5D0UQ2xF3u1kY8FK/z8/zCZvWwJJp3thAHsBC6dmkkUmGa/HM/7pROK62LCvziFzfhHx83IZM1AeckTj5vwpj1z/qF5W5udTPDCG8Cb3JFOfbEQ/tZDszVcyfF4hhYtSSFyUcnh3tySyl1Y3tEyIpqvJ/dp7r7wMZe9+tI2b0PL/B63D0c/qgDdhuL9KWm0+CRbiFPdmSTG9xkzioYdqkLifYPZ3hxOZcMRwyUWj6bpoNPFZu8keUT7rIiyG5H8XEDMrlfTZ2eT+YIduMSTdm0rqY0f0GqxKQ4k54j/ptWlc2SoNJq3EGJoXuI8cRkcpjJ60EuOZmBN9m41XRDwZK6YR8ngGmatySB9VwMpb4xh+SxILC2ICe2SEaGx2ZDG8UyJHDrjOHTeYVuMI/BtyWooifu4aNtyQQfqUTDJXFUJET+JGpjDt6QR6noh6K0I0sCb3X5bv/J740lKOfaAQolGJGJGNMaIGB5oiiH1oBrEPHWXM9kXJGEZyNTtjjrLv9BZ+yXjm5I9HZhGJJqdjAtlGQkNH0YiF0/OWZObckiy/3+K0IN0VQgghhBBCiCZDEhghhBBCCCFEkyEJjBBCCCGEEKLJkARGCCGEEEII0WRIAiOEEEIIIYRoMiSBEUIIIYQQQjQZksAIIYQQQgghmgxJYIQQQgghhBBNhiQwQgghhBBCiCbD1NABCCFOjP379wNgt9tZvHhxA0cjKvv8889p2bJlQ4fRaPz+++8A7N69u4EjEZUZhoFhGPJ3pBoOhwOATZs2yXt0hN9++w2AP//8s4EjEaci5ddfNxsNHYQQp7Ozzup2QtodPHgw+fn5J6RtIU6UkSNHMn/+/IYOQxxBUZSGDkE0YV26dKGwsLDe292161e8Xk+9tyuaBumBEeIUFxYW1tAhiCOUlJQA0KxZM3kwrOTQeyMaF1VVMQyDZs2aNXQojVJpaSmGYWCxWLBYLA0dTqMiv9PiRJEERohT1OWXX05+fj6TJ0/moYceauhwRDlN09B1ncLCQtq2bdvQ4TQa48aN45VXXmHIkCENHYqoxGq14na7OXjwYEOH0ih17tyZ7du389RTT/H88883dDiNxscff8zNN9/MxRdf3NChiFOQTOIXQgghhBBCNBmSwAghhBBCCCGaDElghBBCCCGEEE2GJDBCCCGEEEKIJkMSGCGEEEIIIUSTIQmMEEIIIYQQosmQBEYIIYQQQgjRZEgCI4Q4/ezPY0KMQtdROdT/+tBCCNEwin/KJePB6+h6Wxb2hg5GiBNIEhghxGnHuT6X9FVQOC+TvC0NHU3DKF48lkhFQan8FZ1OQUMHJ0RlJRvJeXE0V/aO9P+cnjOY0S9mUbC/oQNrJPbnkXbbdcTdcB1jZ+XKBzPilCcJjBDitGO7YDipV0QQdXcSsd0aOpqGUEj2rIygn9DGPRxP9EmPR4ij2JbL2KG9GP5sJnk/lP/Ubskn89lE+ve+jvS1zoaNrzFoE0vyB0vImZzQ0JEIcVJIAiOEOP2ExZCct5utc+OJCnpAMTlTT90hGM7lmaSdv4TdRUUUVfrKvjv4OyJEwygmd0oSay6Yw8rfHBiGgeFxsDU3mdgIwJ7LhGEp5JU0dJyNQ0SnXg0dghAnhSQwQghR2ZZsMr9t6CBOlEIWTs1lTEIcEeHhhFf6sjV0eEIcaUs2mW1yyHs9iZiO5T+dJhtRw1JZ8mEqMQD2dHKWFzdklEKIk0wSGCGECFBI1qQUchs6jBPEuSqLDMYQ36+hIxHi2OwFxSQ+HBM0sbZdlMTYW/3/zli78aTGJYRoWJLACCFEhWLynk4kccGpOnismNzZKRR8msJ1scMZOzWL/B0yf0A0XhG3jie+TbV7iert/1d8l4iTFZIQohGQBEaI0509n6wXRzP4HOWI6j45bAw2ptyeR8aDww8fq3Rl8G1jyfg6yPCN/RvJnTeBxN6JZO0AvIXkvphIr8jy80alk1ddnlCb69ThPop/yiPrxUR6RaaRX7Exj7TYnlz5UvmWRYmHq3S9mI/93eFVK3Ypw/33dsiqtMD9L+bTqKzNJHUegJ2Ny3PImJjI4E5R9ErIoEBG4IgmK5rBvWXulhCnE0lghGikDKcTDOOEXqP46zSujB7PhoHJ5G00MAwHW5+OJPPZ4fQamkb+kQ//27JIjL6S1JI4Mr81MAwDx+ZUolZkMHZIHGmrD32Sbyd3agpj77iO60alk/WDE7yFZI0azNhcO5FdooBC8udN4MroRLK2VQqqxtepw304C8h6MZ3UiYkkPpvFxiMTqPBYkvN2Y+Sn+l/fupDdhv/6xjMxRIxYyO7cZP+Ye4CHllBkZJPQ8Yg2LkrGOLiEMUD8zA0UPRNDo9IjibzCNSzLy2bOM2OI6wZgZ+O7Y+l/wWhyKn8vhGjUCtmwAhgmQyKFON1IAiNEI+XbvIXiARdz4ObbKJ3wFM7ZmXjyvkT/bQfo+vFfYEsmiUNSCJ+ykNRhUdhMADaibkliDMCqFFLePbyaQP6CRLLsMHjYdfQM92+zdUsgdVIskM+MpYfGoEcQ93gqM3LmML58y8rZWdgm7WZr/jKW5W+laP0cEiIAexaJD2YGrFlQ8+vU4T5s0SQ8M55pkybUoVSwjYhhqWRML09KSqoZemXfzcaIZMbc3ZPwWl/jBLOFE94lmtgr4kmaNIMlmx3sPlTNaUsmw0dUSlqFaMzW5pCxNIbUSYnVVBMUQpyqJIERopEy9T4f2yMP4v2uANf7/6Tsxb9x8M57KB58BUXd+/LntTdSMvYxHK9l4F7yGb5Nm8HjqWHrxeRMHk0uY0i6odJ//eH9ib07CogiumOris1RPRKIiIhl8DmBj+UhYf7Xdm+lB3pbCK3Kr9XzjmTiuxxxifOTyJg9hgiATzPIWXt4X+2uU/v7AKBNZJ0feKLvSWV8BDBvGplrq+4v+DCDonHDiW0S5bz8Sdmy/IX+hHJVCqmLZAk80RQUkzt7GrZJ6Ywf2CR+2YQQ9cjU0AEIIapnuyMRb/5/cS/5LGC74XTi+3Ejvh8r9UZoGlrns9C6nc2QXTvYGtqcM+x7MEpKUcKaHT6ueCV584Ch0RW9HIdFED93K8bcSltvXcjuWw+/du7IJ2feDFJn5hzjLsJpFRZk69B4EskgnQJWbrQzvl9E7a9Th/s4bmGxjJkUR/q9uUybnUvSzLjDPS3OPLKnRzJmRRNbCrJLAhmzV5J3Ywa5n+ZjvzsKmRItGjPn0lTGlqSz7JngFcqEEKc26YERojFTFJpNnYx6VqeaHe/z4dtaiPvfX3DhDz8xs3V7rp3/PkU9+1E8aAgHE+6i7LkXcc3/ghbWENp4y2odkn1VJhPietF/Yh4MTWfJlPhatwGArRf9b61+d42uU1LM7rpd/bhEjRjP+Aiwz0oN6IUp/jSLtGFJDO/WAEEdp/AbEhkbASwqRPpgRKO2LYukl1qxcGaCDB0T4jQlCYwQjZzSvDlhb74OZvNxtaPvtuNZ8Q3OufMpnbqYR9ucSdz/vqKwplV0SzaSOaorkY8V0H/KSjZkJZNwUQQh9d2PW5frLN1Y8/uoD2GxJE6MAfKZNjsXfwGvQrLfWkLyyLjGN/elRqKIGgLcGiUPhaLxKskn7cE8hs9NJiZIz64Q4vQgCYwQTYCp9/mEPvd0vbWntmvJvH07mV/6Dbkrqnvyd5K3IAd/oS47OQ/GMnpeT+YsmEHC+fX7iN6z06EBS7W8Tlg4kQAsrOF91J/okSmMiQD7rBQy14JzeSYpuycw/IqmOqDFAV6Ijukpw8dE41RSQPqoTKJmzgmYUyeEOP1IAiNEY+f14v32O4yiYrBYjrs506CBtPh8Nm2udAJ20p9ND1p5yrkqnSxvtP9h1r6S7AV2YDC96m14VCGFK4CIZGIHlm+q7XXCexI9DGp8H/WpTRxJE2OAAia8nkHmgjQGT0ysQ3WzRmJLHgvzx5A6ssnegTiVlWwk8+EMIqfMIUGSFyFOe5LACNHY6Dq+HzfinJ3JwTvvoej8ARyIvx1H+mvgdh9X07ZRd9Di/QWobfqT+Nh4/0P9qhTiE9LI21beg+F1Urg8jeEji0i4Napim39vNku+PqKno3gjSz5d6f93eQG04p8KCVwTMYeV64Os3bJ4ITPsESRMTzpcsavW14mq3X3UxubdFfNrClflB+3BOdQLw7yxjP00mTG3NOa+i0JyJ45m7Bt52L2VdhXnkzYyk8EfTiOu2lXPhWggJQWkj0qHiTOCJy/OYgqXpzFhgczewuto6AiEOCkkgRGioRkGvm2/4nrnPUoeeJii6Iv489obKXvxb3jyvsQorf1E+8oUq5Ww16YR+sIzYPJPJrENTSV3ehwRgH1xCldGhfhXjzeH0DVhJbGLUok9NMa8YwxxwwAKSLu1P4kT00l58DoGj1tJZMxg/zFvpTJh4mhS1lNlDkjGqOGkLbeXJydO7MvTSLw3g6hJOWSOOCK5qMN1anUf5QqXZuOvaZbNkuWVlqDvEe1fP2btBMaMSiHlwetI+62aqlwVvTAQ3dhLJ9sLWDg1k4yHrySy53AmzMshb3kuWVNHc+WQaYS/kUvyRY35BsRpqTiftBvjmLAok9E9y3+3K3+FtKJrbCGDh53us7eKyft3rv+fi7JZIgvTilOYJDBCNADl9yLMn+dhS0unOOZy/hxyFaVPPYP7X59i/FFUr9cqadGcFh99gCX+pkp7bEQ/toSNK2Yw5obyeQ8RPYl7YAYr1y9hfL8jH2ajSJq/kmkjehJh30jep3k4h0wjd24ScbcmMaYbRLQJJ/LGacyo0tsRz5wPx2NbEE8vRUFRooh9ZTdxWbtZWaUEal2uU5v7yCdNUeg66lBJ5gLSYluh3JZ1uIclPI7xn4wnrhvkryjAOWQaM26tvmclesQEEohjzC2NfOhVRDwZK6aRdFEUbMkhfdQEUmblsrtjEgsLshkzsGmWHhCnMGcBacMGk7L82DPYIp5KOL17D3dkMVxpxZUvFpRvyGF0lBL4t02IU4jy66+bjYYOQohTnXLwIGrBekyrv0dbXYD6628n5bpfOsvY//ij3Dvx8ZNyvUD5pCmDSSGehb9lk9CxAUI4CZzLU4ha0J+Nc+NrVH1M0zR0XWfv3r20bdv2hMfXVIwbN45XXnmF2bNnc8899zR0OOIIoaGhuN1uvN7KYw8FQOfOndm+fTvPPfcczz//fEOH02h8/PHH3HzzzSQmJvLOO+/Ue/u7dv2K11vTxZvFqUYWshTiRHA60dZvRFtdgGn196ibtoCun9QQ/nt+D2777F+8EiLDgk6cYnIXZJI0MqWJlk4WQgghmh5JYISoB4rPh7rhZ7Q169C+LUBdvwGlHj+tVEJCMA0aiPmSwRilpThenVH9saEhNHtlKiu+/grfZ/+qtxhEEFuyySyYQOpcSRKFEEKIk0USGCHqQtdRt25DW/092ncFaGt/QCmrx+ovJg1TdD/MF8dgvmQwpv79KhaydM6cXe1pWlQXwjJnoZ3TDb7+qv7iOV6nyMgT59osMpbuJrxbLLHRRWSNS8E2saDplk4WQgghmiBJYISoCcNA3WVHW12A9t33aGu+Ryn6s14voZ3XE/PFgzFfEoNp0AUozUKDHufbHnz+jHloLGGvTUNp3rxe46qr4uV5LAEgh+zlhcTfHUXT7qewkzM5kQmLDm+JujubZSMac+lkIYQQ4tQjCYwQ1VD++APTd+tQv/UnLap9T722b3TqgHdAH1pdMwzz4ItQWreq0Xn69u2VAlUIGfcwIQ8/CGojKCy4I4vhnRLJOWJTzqiuhIxq6pP5I4i9ezyxK9LJC4tj/KRppIzoKXNfhBBCiJNMEhghyiklJYGVwrZtP/ZJtWCc0QrvwGh8A6PRB/RBb98OAMtZtVva3ndEBTOleXPC3piO+crL6zXW49IxgWwjoaGjOCEihk1j2e5pDR2GEEIIcVqTBEacvlwutHUbMa1Z609YfqrfSmFGWBi+/n3xDezjT1rO6giKcnyNen3oO3cBoJ17DmFzZqJFBVuaWgghhBDi1CQJjDh9eHW0nzehHiptvH4Diqcea8hbrfj69MI3MBrvwL7o55wNmlZ/7QP67t3g82G5IY5mU1+qdp6MEEIIIcSpShIYceoyjMBKYQXr67dSmKbh69Ud34C+/h6W83tglFcKO1F8O3YSmvIEtnuTatWbs73yvBnR4H7//Xccjnr8eRTiBDEM/3rXq1atauBIGieXywXAjh075D06wr59+wAoLS1t4EjEqUj59dfNRkMHIUR9UXfZ0b5bW560rEUpKq7X9vVuXfEN7ItvQDS+fudjhIYcd5tn1WYOjM9X416dp59+mpdeeqmOUQnRMGbPns0999zT0GGIIyjHO/RVnNa6dOlCYWFhvbe7a9eveL31OIpCNCnSAyOaNKWoCG31On9549UFqPa99dq+3iES38Bofy9L/z4YrRq45lQth6T16tXrBAUi6uqXX34BICoqCrUxVI0T4hgURcEwDKxWa0OH0ii53W4Mw0DTNEwmeaw60qHeKSHqm/TAiCZFKS1FK/jBPyRs9feoW7fVa/tG69Z4B/RBv8CftOgR7eu1/WBq1QMjhBAnWWhoKG63G6/3FFmRtp517tyZ7du389xzz/H88883dDiNxscff8zNN99MYmIi77zzTr23Lz0wpzf5qEA0bm432voNmL77/nClMJ+v3po3mjVD798H78DyeSydOx1/pTAhhBBCCHHCSAIjGhevjvrzZrTVBZjWrENb9yO43fXXvsWCr28vvP37+ROWc7uBSYbxCCGEEEI0FZLAiIZlGKjbtqOt/h7T6gLUNetQysrqr31Nw9fjHPTy0sa+83uCxVJ/7QshhBBCiJNKEhhx0qn2vRWT7rXV61CKiuq1ff3sKH+lsP798PXvjREqa6UIIYQQQpwqJIERJ5xSVIy25nt/aePVBai77PXavh7Z3l8pbGBffAP6YrRqVa/tCyGEEEKIxkMSGFHvlLKywEphv9Rv/XejVbg/WRkYjW9AP/TIE18pTAghhBBCNA6SwIjj53aj/bAR0+rvUb9bi7ZxU/1WCgsNxde/t3/xyIF90aM6S6UwIYQQQojTlCQwovZ8PtRNWzCt/t7fy/L9hnqtFGaYzeh9zsM7oLy0cfdzpFKYEEIIcQzFP+Wy8PUM0vcnsvKDBCIaOiAhThBJYMSxGQbqr7/5Sxt/t85fKaykpP7aV1X0Ht3wDYz2Jy29e4Gs+CyEEOIQr528Wamkz84m9wc7dIsh6Y4JjH8snp5hDR1cI7A/j7QH01lSkEv+FuDWxIaOSIgTShIYEZS6Zy9q+aR703drUX6v50phUZ3xDeyLd2A0enRvjGbN6rV9IYQQp4pCskYNJjE/itioXsQCeT/kk/nscDJzU1mzPJloW0PH2MDaxJL8QSxJixKJvC2roaMR4oSTBEYAoBT96a8UdmjF+52767V9PaKdfzjYwH54B/TBaN26XtsXQghxKnJS8NIEVt6yEsf8KA7lKfZPU4iPSyN/VQop7yaw5O6oBo2ysYjo1KuhQxDipJAE5jSllDnQ1v6A9t1a1NUFaFvqu1JYS/86LOXVwvQzZSSuEEKIWtqfR16Xacy4JTBBiRiWSsaUXPpPLCB3hx2QBEaI04kkMKcJxeNB/eEn/+KR332PtvEn8Or11r4RGoIvundF0qJ37QKqTLwXQghxHNrEMX5E8F2RHaOAAuI6ygdkQpxuJIE5Vfl8qJt/Ka8Uthbt+x/B5aq35g2TCb13L3wXROMb0Be957kYmlZv7QshhBDVc7Jh/Uq4KJWUW6X3RYjTjSQwpwrDQN2+01/W+Nvv0QrWoRw8WH/tqyp693PwDuyLb0A/fL17gu10nzUphBCiIRR/nU7KvFgW5icTI1XIhDjtSALThCl79lVMujd9txZl/x/12r7euZO/tPHAvuj9+2CEyf8SQgghGo5zWz45C6aR8mwOUc8sI7ZjQ0ckhGgIksA0IUrxAbSCdWjfFWBa/T3KbzvrtX29fTv08kn33gH9MM5oVa/tCyGEEHVlf3c4kQk5Fa8LX7ySyHeTyF46h/guDRiYEOKkq1MCoxwowWjeDBTF//qPP1B//BnfkJh6De5kU7bvwDirmo9znE5M361D73gmeueT9JFPmRPTuvWo35aveL+lEAyj3po3wlvg698X3wB/L4vRIbLie9rQ1J+3gNWC3uWsBovB9M3/UOx2vLGXYrQKP662lJIStG/Xovc4Bz2y/XG15f1+Hbg9mC4YUKfzPStWgseNOfbygO36zl14Vq7Ccu1QlObNj9qGb/MWjLIyTL3Pr1KswSgpxZO/CvNFg47ZTnW8a9aitGiB1q1r3c7/djX63v1Yrr4SzOY6tSGEaFwiRmRjjHBS/FMeC6enk/pWHvYtmQwfESVrwQhxmql1AqOUlREyaix6/z44nx4HgOWfizEv/ICydzOrLZerbt2Gsnf/Mds3OnVAW/Vt0H3eS2Iw2rf1t/fzFrRNW6qer5nwxl2F4vFg+mxZ0HZ85/XwV8k6grbuB0IeeBzX80/gGXp5lXOsb87DvOgTXA/fV6MERvH5UPbuR9m3H0JD0du1xWhx9CFYitd7RKWwdWgbNtRrpTBCbXj79vFXCRsYja9r52NWClOK/gTDV/drWq0Vi1QqxQfQVq8JepjeqQN693MOnzYrE1BwvDq56sFuN4rbXfeYFOXoC2fqOpbZ/8Cy4APc99xx3MkLgLp7L7aUNFxPPoJ+w7V1b8jno3RiMrp9Dy2XfIjasUOtm3BmzsM4cLBKAuP94UdKxz2BKbof2jESD8e0V/F8tYLwb7+ukqS4P/s3pY9NJOytDCzXXl3r+ABKxjyKOeZCmk1/uU7nO954E98PG7BcO7RO5wshGisb4T3iGDM7jrgrEhmckIV9VQoLV4wneqhkMEKcLmqdwFinz0Ldsw/XjcMqtrlvH45p0ceY35qP67mJQc8zf/Tp4YTC5UJBx7BYUcocGKEhoPgfpF3J4zC//1HgybqOunsP+lln4StPYExfr8LyXja+Ix56laI/UffsoSTuKnC5sP7tNXznng3NQiuO0TZswnXfXVUSGPOCD9C7dsFzxaVVYtcK1mNe9Al6h0isb87D1+989O7dgt6nUlaGZcEHmP75CUqZ44gdCu577sB95+3B35+lX2KZ8gZKWVnQ/XVhaBp6n17+SfcD+qKf16PWlcJCRj+Cat9T5xg811+D66lHAVB37sL23MsB328AxenEc1Mc7nZtodR//95hQ7FOmoq2Ih89qrP/wGahGK3CsWR/gmVGZp1jMtqeQelH7wTf6XJhS03HlLcCvX07FLcH6+z51bblvvUmjFYt6xZImRNCa/kfrqYRNvN1Dlx/CyVjH6PFh++f9F4z488/cS/Nw/bXEUF7WNwfLUYJb4kltuoHAfVN37sP9ydLKgWo41nxDaae3XHOW1CjdtQzI7HEXXMCIhRCnChRIzLIWJrF8HmQ98NGGBrd0CEJIU6SWiUwpi++xPTpF7jvvB3f+T0rthstwnD/9Tass/+BPnhQ0B4M17gHcI17AADLrLkoe/fjfmAUzW4ZSdmitzHCW1Qc671scODJZU7Cht5SpU29UyccM6Ycjm/519jSpgUc454wFt95PSpeh44YXaUddctWTCu/xfHaZDBV6pEoc2JNS8cX3RvH1BcJHTsR29OpODJfD4gZ/D0oticmoa35Hr3HuXiuuASjWSjqvt9Rg0yyt7z9LtqadfguHIBlZt0fyA8HoKCf281fKWxgNL4+vY67Upj7kXtQHIfLL1umz0I/JwpvkF4Ec/YnKLv24H7onopteofIKseVLZyN0a5NxeuQsf6k1/Lm25j/9XnAsSFPTqr496FkyNunN9x/d+1u5MABLNn/8peSruY9Ubduwzb5VZTNv+Dr3QsUBbVgXZXjlJJS1K3bQNPw3HgtwQb1qb/+hmXhItyJtwXtsdP+sxLb5FdxvJYGZ1VNhksffxrjwIFqb0dp3RrD6aTk/oeC72/WjGbTX+ZA/Ah8P/4YsM9wusAwKOreJ3C719/TdmDYTaAGJkXNF8xF7XAmnv98jXfdevB4IMSG690P/Nc7ozWWq69C378fz4pv0Hqci3N+VpW4TIMGYOrT23+9Awcwqivt7fNhOJ3o+/YFv7/mzVFsNnS7HcfrGYH3UVIKXi++33ZU2Vcd84WDJIERoskJJ/aWMTAvg1Zhx99TLoRoOmqcwKj2PVinzEDvfg6epL9W2e9JvA3Tf1djfelVf/Wqc8+u10BPJMvb7+K99GJ8A6NRN2xC/XU7vqGXYygK1qmvo5SU4XjmcQix4pycTMioh7ClpOGc8hxG6OHeHXXl/9DWfI938AU4X36+0vCsO1CKAx9Izf9cXDVhqiW9c0d8A6LxDeyHL7rPMYep1Zb30osDXltmzUXvcCaea2KrHKt98z/U4gNB99WE+9478d54LYZJA1tIxXZ1xy6MZqHonfzDpfTzuuM+r3uN2zXl/w/rS6+Cy4X3ssG4JowJPMDpxDIvC8t72eht2+KYPT1gOFuVtl5+Hb1DJK7nJqJHtAt6nOWdRf5kf8TwoPv1PudjNG9GyPjn0Jf0Ru0UmOR4vlgOzUIxndcz6Pmm83tVe7/eHzdiHDhAM8B23yiMP4oCb3fufAyHg5Ax9wWe98MGXPMXYht7P2q7tgH71C6d8a37gdKJyYfbmTn7cDzRfbFcfRXu97NB19F/24lj+uuHGzB0jJJSQp9LrkhgSp98FvfiSr0nR3AvzsW9ODfovmbTX8Z6azymPr1pte6IIaduN8WXDkXr2oXmWf+otm0hxKkhvK3/Q7LoLlU/LBNCnN2f16YAACAASURBVLpqlMAoRUXYxqWgeL04npsYfBiSScX5/JOEjhqLbewTONNS8F3Q7/B+txtb6nQA1C2/gNONNX0GALaXX8Mwm9HP7lLtEKtg1N9+q/j03h/nn1WOsUybETCETN0TOA9H+3oV2tf/xfHuW2AY2F6dCSVllF12Cba/vYJp2X9wTn6mYu6N3r4dzhefJmT8s4QmPYJjckrFECdt81YAfBcOCDq3pHKPTUVM+449N6iijXZtyquE+ddjMdqeUeUYpawMZX8RekRbsFiqb8yro+zaBc2b130YVD0yWrbEeu9j+K6+HNd9d1Vst7zxFtovWylbNK9W7SllZVhe/TvmJf/GaBWOMzUZ7xWXBByj/rwZ29OpqPa9eK+9Etej92Fa+hXa5q14rj/8ibyy/w+sf38bU+5SvNcNxfXoA/6hcEGo9j2Y/r0M7xWXHB7+Vvlew1vgnPI8Ifc+xsGRo2jx4QcolebaWK66gtDnU2p1zwBlz6fiyvnY38Y1VeeAuD9finHgINYRtwVsVz5fimv+QizXDQs6ef7QTKiWXyxB635uxfaSpAfQ9+3DKCnB8eZbWK67lrA33wg4V/9tB8WDr0CxBv48qmdGEjrpmcALGQYlDz6K5YrLsNwWH7jrj6KAJKoy5zvvoe/cRdhr06rtvalMCQlFCTvKnCghRKNVuD4PIpKJGyLzX4Q4nRwzgVH2/0HII0+h7NiN8+VnjzqB3WjXBseMKYQ8/CQhE5JxPZCE99ab/AmPV8e07Cs811+D0bw5ilqGEeGf8K+f2R514ya0Pw9ALRIYvXkLvEd82q9u+gXliy/RNm/FsFj8SVHMBajrfsR7yUXQLBR1247D93agBNvLb+C97ioMVcWcuxR1wyYcr6Zhe/YlTKu+xfn0uCpD2nz9+1I2cwohEycROvpRnE8+infoZRitW/vf1K//i+fmG6rtXbGlpmP6cgUcGpplqb5KkmE2oXi8GC1aUPb3dCzzsjAv/w/upMSK5OVQe6Vvz8SS/QnmnMX+yf+ahvv2W3DfdxcckXQqZQ6s6RmYln/tH1IFeOOuwjtoILaXX8F17914brupxt+HGtP9BQlsk6YEJFbqlm3oUV3ApOK94RrM87JwX3c1Rscz0bYUYsr/H65xD2CYaj7iUVtdgHXyq6h79uK5Jhb3I/djtKw6X8Po1AG9ezdcTz+Gb4A/4VZKy7BMfxtDVfHFDML8ziIsOYvRI9vjTJ+E96ILjnptc1YOeHXcd404+tsR1RnXC0+hTHyOg6Puo/m7/0CpNLxN37cPb/5/a3TPSkgo5qHH7v2y/TUBI0gRBO3ccwhNeQL1jNY1ul5lzrf8xQFCJjxWZZ/hKr+e1RoYc1hYlSTL+KMIPB5MF8dU2afvtld7faO0DMfrGZgvjkE7pxtFfQfVKG7bg/cS+v/t3XecFPX9x/HXzGy5vTvw6AdSjVgQCCAWUIMiNoyKXUE0ikYBISqKDRHsRjARUKIGSwwWFFQiqKDEYMGOEpEg5dAf5QRpctzWmfn9MVdYdveKIdytvp+Ph4+Huzsz+509Dr6f/X4/n8/NN9ToWBHZyxLFLH63iJwuvTi46W6vrXmWMWPD3PXyGPoqfvEkwtUfI/IzUOWM0FryFTm33IOxYzuR8TeT6FX9hMBp35bw1InkXH8bwcmP439tHtHRI7D397aUJc45Hd+rc8F2iA06B/9LrxIbfAH+mbOxlnztDWrBuxjxeOVF00y24ucO8IKhFslbXaKjhpN35mDiZ/Rn5zteIn3OjeMJzHiFyJhRlL78NK7hTeaNbdsxtmzB/8rr+F953bvuWb/F996H+D76lPiA/pg/bCbw9PNp7zV2xUX4Z76G/9U5JPoeTeKkYwk8NR3rk8XkDhlBdNRQ7K6dU86zD+uOs88+BF5+DUyInfFbrGXfYMSi8OMOr4JZ8UbsHt0w1q0ncdThGOEIbtvWXvWtcBTYJUchFodwlOBDf8GIxonceC1GyU4Cf3uBwPSXcDq0I3FKP++ebZvQ0OsxV64m0fsw7D5HQSxG4MXZWB9/DuEohh1PGfMeURYsOW3bQLAyaDNXr6m8lfPOxP/qXKwlS0m0buUVV/hVB+Jn/LbGb+Ob+xY5d0/EbdaEyAN3kOidOeBwc3OJ3JO8AhAbfB5GcTE59/wJcgK4wSDRqy4lftrJEApmuJLH+H4T/n+8QaJPb5xfdah2rIneh5E75kZK77yPnSNHkT91ElgW+7y/AMNnEf/4U0pGXl/1RRwHXBez9b4UnNCX3FtGE7rhusr7mf0a7s7U4hDl+StJ42/YkNgb8yoe+/scg9mqZlsz3C1bCV5wLmaavKfy32EjWPXnB2Cv8lYyrXa1K6EdeeIp3M1bCF1zNUbDBjSYkaFQA96KUOn4e3DDYXzdfl2r9xGRvaf4xeH0GDgL6ED/G25l1GWn0qMQNiyazpjRc+nw2HRuPVLRi2cbC+aVbbt9cSZz1gxkiPrjyM9U1QHMZ0sgHidy4zW4lom18IOaXTUUovTJKQSnPoXvjbdxGyTnZZjrNlR8251OcMJkjGgct3ySu1vvE99b7+B7c0Hacw3Hxdj4A9Y775GzdJl3eiAAW7YRnPgITiuvB4dzwP7ErriY0hefxG2Qh//5l/HPmUdsqJccnuh9BMbmLV6QkUHiuKMJT50Ajg2WhZubS3jqRII334G1cjWhoTd425Ku/F1S0nr8pL5wUl/8by4An0lsRHJhgeBDf8E/41XMdesonTapxmV8jWic8J/uqlhtcTruR+jq0fjnzK8IYHxz5mGuXE389FOIjh5RUcEqcXI/QhcP3TUswly2HHPLbtvyolHM7zfie//j1PfftBkjHE15zdm/PU6L5hCOABAbNSxpG2Ls0oswtmwhMPUJbyx9entJ8JP/im/BQuye3Qg8/pT32V1wVrWfh1n2LX14wh04tegjYuzciW/Bu/jmvoW1ZClOYQsSZ5/m5cg8Mg3jB6/wRFVVv4KTHgUn4a161VDOFZdhL19BdMZMwhMnERp9LUbZ9jT/0b1pvOY/Gc+NvTmf0jHjcUvDhK4b6T0ZCGDsssIV/tMUnPXrK09yXNxIBPx+DH+GvwJsBzcapeFLz9Y4gMm9cyzO2nVsP6YfuXeMTUqKr1jxCVaxpbH8nl73CjkkvlqKv2+fGlVZs5f9h8jkv2AWtsB3pPdFi7/XEemvP/s1Sm+/C7NFM/IffggrQ56RiNS9wtPGMOXSbTz8+gLmPnA5cx/oQK8T+tL7wrOY8O4oOih337P2Wc5uM4jKNp+zuLyDweXnTmfDjIGkb3Ahkr2qDGBiv7uQ+Kkn4lu8hJyb76zxRZ392lP6zFSi115F7PJBuA0aeCVjwZsAr/Am0OXbSazPv0xJcI9efQXxM/uXDSRG8N4/4zbx/qZymzTG7ZimjPHmLfjmzMM56ADMkhKMxUuIn3EqBIMkdit7XF4dy2lViLl6Df5nZhC5Z0xFUr59eA+Aiol/je+9VSHhJybjf+1NAo8/g++Nt/H98z2iI35feT81FD+jf616kMTPG5C0Vczu1hlycjA2VJZB9s19C4DYkIuSJoZubojEgFMrggiA4NMvYL27KOV9rE8WY32yOOM4ckbfnvS4vPeJuXUbbn5+Sg6V2zAfY9t2rKWVE3UjFsNcutwrVx2PV7yWiMXSVv1Ky1/9ZNlcX4z1wUf43v8Y8/MlGIkEdvcuRO4dg93pYIL3/hnfh5/gtGsDDRsSmP5SyjViZ58OuTn4PvwE3zvvE7vgbO/4mgzx6ecIFzQh987bIeAnOPC86k/C20pVetsdxN6cT+C3p5B7x22YzZqlPXaff76R9Nhe8y3bj+lH3t3jUvJgysUXvseOQZdiNEzddhd5dBpGo0YVjxPLv8Fs7D02W7XEOvAAdl43GuuAjpW5NOUrMFXlZAHOD5uJvjgLs7AF4YkP4W7eQu7ttyT9ud6d++OP7LhiOG44jFHN9redo28l+twMguefQ+4dYysCRRGpp/K7M/yJtxle/ZG/bK0HMtMdWNejENlrqk4qMAzc5k1J9OtD/JjKPJC8C4dg9+xOZNTVKafkjL8Pc+u2isfubn0i/DNeAcfGPqIHbm4uiRP6EBx3P4bjZF6VCQSS+svY3btid/dKwBq2jblqDdaChfjfW4TdcT8iE8ZBSSm5I2/C+ugz4pdcQPyYI9OXz41GybnrQezf9MI++sjK5x0HIjVolhj0p06uLIv4Gf1JnHAc/udm4n9mBsEJk8G1iZ91WvXXLB9CDbYgJR3fZremhoaBU9AQY0dJxVPm2nW4TRrhNk2d6DktkitqRa4bhjH0sqTnci8bQbxPb+KXpOZ3BCY9hlW0hvCfkptPlgeextr10GgfAs+lBgFO02ZJJbHN4o3knn0JkdEjcA46IOX4PcJ1CT4wGeuTxdhdDiE2bAj2sb1xWjTH+ugzcn93NcRi2Pt7PwfrrXcqTjVcMFcVARD/7Ym4lkFg4iO4jRoRH1Kzf0T8L7xC8LG/kfjN0RhXXk7evTX/kmB735Mx8vLInzaVwIm1C7Jrwt3m/Q6n6/OS+PdSjFDl75K7dRuUBTCYJnkP3s/2fv0puWIYDf8xEyM/L2MOTNJ7RiKUDLkKd9t2Gsx6FGftOkquuQFn3XrypjyIEUoTbDgOJSNH4Xz7Hdb++3klohN2xvLM0ZdeJufSiwndOApct3JrnWEomBEREckSNcqKdi0Lcssm6aURjB+2eNWV0jThM6Ix3JzMEwEjniB+8fkVKx2RcTfBOAhM+3tFDkyVwlH8r8/DXL4Ka8UqjFVrvG/NO+5HbMhg4qf395LnGzWidPqj+J94jsCfp3rlnTu0w2nfxlsFCAWJXz6YwP2TMJevING9K4G/PImx7Ufcli2In3YieacNqnY4pdMeyjjBdnNDxIZchN21M6FrbiYw9SkSZ/SvcTPJ3bfeVXu8laZowK7J+7aNsXU7Tvv0uQWGYyc9dps3TV7tiEQgEsFp1zp9MYe8XFyfL2OhB7PoW5xWhQSmTPNWwMq+jTe2bcNp05rECX2qvL89zjCIjL3B21LVpGwFYc135Nx+P7633iHxm6OIjh6Ou8tqA1DR7NJcvYboqOHeKlnCIX7OGbhNCpJKa2finzOP4KRHsbt2ptHjjyQVNYi9PJvEZ5lXuMDrdWJ16EBi4fskFr6f9hjf0b0InHxitWNJe/1t3tZBY5/Uynn5Ux5MW4WsnNmiOXn33UXJVSPYef1NXl5PWUCRKQfG2biJndeOJvH5F4RGX4vvsEPhsEPJ9/koGXEdznkXkf/kYynnxea8QfztdwiNGIpr28RmzyH29gJKLh+W8d4iT/6NyJPJzUnNdm0peO/tKj4RERERqS9q1cgSwPpmJQB2pmpkpWGoYttToldPnJYtsXZrEGgWb6zyfY1EArZsw23WBN/8f2GuXA3BHOxjjsTu1hmnXVkp4y+XeCs5CQdz6TfYRxyK07Mr5udLsJatwHr3Qwj4SPTrg+vzYW7ajNu8Kb4vv8Jt0ginaaOklYzY1UPSJuIb360l566JVY65nH1YN5x2bTC//T/Y8D20blWj8zBqvFmqRlzLwm3SCGPjJm+FabdSz7tuNUvH3FzWT6RpaunmaiUcrC+Wkjj3dKyPPiNy31ic/bzswsC0v2N9+gXWV8sw123wji8rie1b9Cnut17lOKdVoddgcg8q36JnFn1L4Mnn8C1YiNsgj+i4G0kcexRuPDmoM7ZuI+emOzD/s8Iry3xsWZ8cn0n8/AEZ38duvS/hx/6E07QJgcl/9XrOHLg/kQnjUr75t9eu85pFVsPZuLHK48z9areCl3Tt7du9VYm8n1ZeOHDqyeRcejFW2e9OZQ7MbgGM6xJ9cRal4+7GLd1J7i2jybmqMicscFp/8v0+Sob+gR/POJf8B+9POt1/4vGErr6K0PXXUHq/9/vo69GNBmmCHYAdVwwleO7ZqatWISUBi4iIZItaBzD+OfMgNwf70O5pXzfCEZxWmbeJBKY+AVZq2WAjUop9SBWT0+KN5A38PeHJ9xN+5AECf38R/+N/w1y2AnPZCu8a0QiUlLLzndkQixG65mbcRo1wd0kcNqJhYoMvITbY2/sfnnxf+vvYsgUAp21b7EMOSnndSrOX31xVhNu2Na5/t/uLRjG2b/fKAO/a+NBvVZZS3kvsgzrie/9jfP98l8TxlSseRjyOb+78Ks+1FnnJ+U7H2jcptb7+GqO0lMSRPfFnqOrme/tflcUZbC948z870/ucgMTxx+7xAAYgMGUagednQihIfPB5xM4/C3efBoRG3QaOTWTCnbiWhe/1twk+/DjYLpE/312xjbFGQkHcnCChG27HXFXkNdS8+RrcNAFCaMRQQiOGVnm5LW06EjzvHEKjU0sW7wnO6jUYjRul7WdUU0n9XSqqkKX+3sT/9a5XNeyZafh6pG4jDZx8Ig0ef4TwlKkpvXKMYNDbDrYLs1kzzH7HpR+UaWEd0BF/ptdFRESk3qtVAGMuW441/x3i/U9Iu30MvEpObijzFprIpPuxO6ZWhqpuC5m56Qewbdz83Irkc6dDW8JPP1JxjLXwA3LGJgckkTtvSppo5l50Vcb3wHUxv9+IueY77ANqP0n3v/Ym1sJFJE4/BWf//XCaNsbc8D3+F1/B2PYj8dNOTupl4rQqxPriK/zz3/Em5o6D0+p/WyskdulAfO9/TPC+SRgJm8Rh3TCKfyD4yDSMqoKpSAT/y3Nx9m2Z9udXHf/sN70tfK0zV7SK/uEqon/wfj7lOTDhyffWPgfGrd3Klf2bI4j7LS9w2aXZaOyyQYRG3ERw7L1ekYEvl5I4pR/R4UNqVVzB2LQZ/4yX8c94FcM0id4wkvgZJ9eoutbeYH+zgvh7izCbNsbYZx/spcuIvjKbQL/j99h7uJnKKBsGefffDXYCo2H6Rq8A/n7H4e/bB+f7qldqRURE5OevxgGMueY77xvpQIBYhmaTxqbNGN9vwm1bwy1SGd/MBz8ml+8113ulcZ1W/+W1dxWJ4PtsiVcueNkKrOXfYGzdjtu8KaXTHqr15Zw2++Lfso3AY08nPe/6fMQHnELsmuRv1eMXnYv11dcEx3nbYqLXj8CpZaWyWo/x4AOJ3nItgQemELzjAcqnk/YRhxK7fBDBP05OWUEybJvgbfdgrvnOK6bwEybexqqipCps5vKVGCVecQFzD09KjR+81TO3QfW5KAB2184p2wSNHTu8nJ1mTfD96wOctvsSnnwfdo+a9wwxV64m8PzL+OYvgISD3aUT0RtHevlj/42EXf0xteCGw5TenlxAwDrkYHLH3pz2+PDDj1ZUHQNI/Gd5tc0vKxpQpllxMvJq9nPCNMHes/cuIiIi2afaAMawbXyz3yQw7W8Y4Sjh+2/3mkcmHPyz5+A2aOiVwbUd/M+8AIZB4oieGa+Xc+0tkK6j+s5SnE7eVi2ndUv8c+ZDq5Y4BQUYO3fif/5lL/l8l0aC1voNhK4bU3mNLVtTLht8+AnchpXJ8GZxZSdvw3HIGXM3biiI07Uz8UHnYHc5xCvdu2OHd/6Uxwk8/WzqeNOsVsTPOo3EycdjLl3uTcoTDm5hU+wD909NBAcSvQ6n9JnHsP69FLegAPvX3vao+Plnkeh3LE6H1GT76JW/Iz7wnIqkc4DoFYOJnz8gqddMxWt33YprJ5LHeeqJJI7oibX0PxhbtuIc8CvsTgcS+PuLALi7BInWyiKCf3wIc+lyYheeQ/zEn7b1Jjr+ZtymjbxCAJCSP2R3PeQnXddcuRr/P+bhNszHbdDA61Ezdz5uQUPcglo0CLBtzDXfYS37BuvdRViLPsWwbexDuxG58hLsPkclrZ6lFYlgLfka6+PFWJ98hrXSq1JmH3EoscHne2Wtf+Kqi7N+A0YohNGwAbG5XtPVGk/8q+HrfAgFHy3EDXtFGowmjTFbNM84VvvLf2PnVP4eulu2wi4BTOKzxTgbijEaFWAWFGCvW0f0qWcwmzerNtDZnVsaxl7yb68aWl4usRkzAdKWd05rl1wvZ+MmiMUwAqlbWEVERCR7VDkjM7ZuI/eqURhr12N3PpjodcO8yT2AzyTwxHSMrZUrJa7fT/SaKyuSs9OJXTYIJ01jPN+bCzC3eKVbY1f+jpzb761YmQBwGzcmMja5I7mbm0viqMMrHpsrijDX/F/SMXbnA5OS8s0VRUnn73xhGm6zJimTtfJHiYM64qap2mX8sDmpg/yu17QP605Nvyd22u6L0za5/LFT2Dw5V2bX67dtnXJtt82+Gd8v01Y4t2ljEn16Jz1nfrnUO6dsm5f1yWJv1c3vJzpqOPEBP311qPwejbIApvTxhyqqoQWfeR7zi69+2oX9fvwvvZr0lJufT/T6ETXK37CWfEVg6tNecYqysTmtComfdybx00/CbZuhWEWa6+SMvAUjHveuUdiC+IBTiJ9+Cs6BHWt5U6l2jhlHfP4uzVtNE3+fY/7r6wJgWTVuVgmQ/9iUKquQJT79jNK7kpPtjZwc8iZNrH0A5zj8eG5yNUCzVcuMTSp3F374USKTp2IU7FNRWc3qXvNVNBEREal/qgxg3EYFXt5Gi2bE+6V2xC596hEoLfUmbabp5W9kKJNqBHzEfn+JV9mpcZpvYXNzML7fDIDdvQs7X52OUVrq5TOYJm4olPT+icO747RsTqLfsRXPmRu+x+nkTayMoJ/o9SNIHHNkcs+Thg2xdwkY0q1aeJ9MALtndxLnnJ42id9ctwFz3YYalcytT8zvN+JieKto5VwX35sL8C36GPvwHrhlAZ/doyux884kfsbJFc9VxT7mSJyDqp6suwUF7JzzAm5+vlfuGohecgHGoORVIjcY8Cp8pelDsiundStKpz8KiYS3vSg/H7dFs+pXS8rHfGBH3Aa5xAf0x+56CHaXg9L/+azuOl0OIX726biFzb3Kd21a7dEcl5yLB+Hr/muwHYycHPzHHPWTO8gbubkE+p+E2bpmwVk5q9NB5D14P2Zhi6TnQ6OvxY3FKx4Hzz0bX7df40YiuNEoRk4OVqeDMXerXhc45QScnj2qHmt+Hg2eeNTr62LbGLm5+I48LG1/Gn/PQ1N6xQRO6ge4EE+AZeHvdQS+LqlVBUUkM7csr3DVqlV1PJL6KZHw/v3aunWrPqNdlJRtE4/FatBTT6SWjG+/XbFna/VKvWYt/IDQrXdj9/i1twLi2JgrVmP9+2vcxo0JT7mvxl3kZc9o23b/uh6CiEhGRj0pOCLZqX379hQVFVV/YC2tX/8tiUS8+gPlZ6nWZZQluzkHHUB8wKn4Pvkca+nXuIEATts2xC4612sw+hP7foiIyM+TYRi4rouvhivbvzTlKzCmaWL+F6Xnf47KPxuRPU1/G/3CuM2bEh01jL3bfUZERLJVTk4OsViMeFzfdqfTrl07vvvuO2677TbGjRtX18OpN1599VUGDBjAUUcdVddDkZ8hfVUgIiIiIiJZQwGMiIiIiIhkDQUwIiIiIiKSNRTAiIiIiIhI1lAAIyIiIiIiWUMBjIiIiIiIZA0FMCIiIiIikjUUwIiIiIiISNZQACMiIiJZJ/Lh3fQ2DM5+rriuhyIie5kCGBEREckuJYu4a+gYFtX1OESkTiiAERERkSxSxLPDBjFNCy8iv1gKYERERCRrFD03hjGFf2XasLoeiYjUFQUwIiIikhUin97NoEmdmD62L43qejAiUmcUwIiIiEj9V7KIiSM+5+rnbqVXfl0PRkTqkgIYERERqeeKmTVsEF+PnMDA9nU9lnpo2zJm3Xk5x3dpiWEYGC07ceqwicz6altdj0zkf0IBjIiIiNRrRc+N4uGO05l2YYe6Hkq9E/nwbo4/uC8zC4Yw/ZMNuK7L1tfH0GHx9Zzd5WAGPb6MSF0PUmQP89X1AEREREQy+mIigyZ1YuL8XuTU9Vjqm7WzGHLmGL4e/DZzRlR+PgXdBjLlOdjQYRDP/r4vLdsXMeEEfXry86EVGBEREamfShZx93XKe0kvwqIn7+LZYhhyet/U4K79QMb8sTtQzMTRD7O4DkYo8r+iAEZERETqoQgL7hjE10MnKu8lncgHzHlkMXAWnVqnP6T7cWdTCPDFdBZ8sRfHJvI/pgBGRERE6p+1s3j4gSKePa8sMX23/3qP9Q6bNbDs9fOe5RfV27K4mGXlN5wpIaCwA70BWExEiTDyM6IcGBEREal/fAV0OKEvfTO8HC5awKKVUNi5L51aAq0L9ubo6l4ijFdj7AOKioF0qzCtO9ADmLU3xyWyFyiAERERkfqnsD8T5vXP+PKiO71VmN63TGfmhYV7cWD1RNOWHAwsoJjPVxRDzzSfQSTMVgDOokOGbWYi2UhbyERERESyTUFv+l7q/e+sZ+ZQlO6YtUVe8v6lg+ivAEZ+RhTAiIiIiGSdAs665a/0B3h9DA/PT01yKfrnLBbQiwkjz+IXtsFOfuYUwIiIiIhko/2HMH3erfSimIkXn8qY14vLmlZGKH59DIN+v5Xhs6czqlsdj1NkD1MAIyIiIpKlCk64iw82vM2UMwtYMLIlIcPA6NiXMZ92YuKGD5hyWoe6HqLIHqckfhEREck6vW5zcW+r61HUE4V9Gf5IX4bX9ThE9hKtwIiIiIiISNZQACMiIiIiIllDAYyIiIiIiGQNBTAiIiIiIpI1FMCIiIiIiEjWUAAjIiIiIiJZQwGMiIiIiIhkDQUwIiIiIiKSNdTIUkRERKoVi8Xqegj1nj4jkb1DAYyIiIhUybZtgsFgXQ+jXhs/fjzjx4+v62GI/CIogBEREZGMQqEQoVCorodRb5WUlBCPx8nPz8fv99f1cER+ERTAiIiISEabN2+u6yGIiCRREr+IiIiIiGQNBTAiIiIiIpI1FMCIiIiIiEjWUAAjIiIiIiJZQwGMiIiIiIhkDQUwIiIiIiKSNRTAiIiIiIhI1lAAIyIiIiIiuwwPZwAAAMhJREFUWUMBjIiIiIiIZA0FMCIiIiIikjUUwIiIiIiISNZQACMiIiIiIllDAYyIiIiIiGQNX10PQOSXbseO7XU9BBEREZGsoQBGpI5t3bqprocgIiIikjW0hUxERERERLKGAhgREREREckaCmBERERERCRrKIAREREREZGsoQBGRERERESyhgIYERERERHJGgpgREREREQkayiAERERERGRrKEARkREREREsoYCGBERERERyRoKYEREREREJGsogBERERERkazx/wrTngY1RBqHAAAAAElFTkSuQmCC;" vertex="1" parent="1">
                    <mxGeometry x="310" y="110" width="586" height="242.73" as="geometry"/>
                </mxCell>
                <mxCell id="11" value="let s2 = s1时在内存中的行为" style="text;html=1;align=center;verticalAlign=middle;resizable=0;points=[];autosize=1;strokeColor=none;fillColor=none;fontSize=21;fontColor=#F0E6E4;" vertex="1" parent="1">
                    <mxGeometry x="20" y="475" width="280" height="30" as="geometry"/>
                </mxCell>
                <mxCell id="12" value="" style="shape=image;verticalLabelPosition=bottom;labelBackgroundColor=#ffffff;verticalAlign=top;aspect=fixed;imageAspect=0;image=data:image/png,iVBORw0KGgoAAAANSUhEUgAABEEAAAKOCAYAAABJDwePAAAgAElEQVR4nOy9fVQb55n3/3nWu+rxmq0P6nKsNj+U9EDTB0oPbLIoL3b8xG5UBeq4XoyxDa6zTqDUcR0M2GldmlLaKm5jg03cvFBI3bjBLxgT18maqLR21sFOIuouPqXSNgunifRLKn70EesWHp9qj/f5/TEz0kia0RsCk/j+/AXSaOaemfvt+t7Xdd3/4913/+P/Mo/4g+96l0AgEAgEAoFAIBAIkuPjputdAoFAkAh/db0LIBAIBAKBQCAQCAQCgUAwFwgRRCAQCAQCgUAgEAgEAsENgRBBBAKBQCAQCAQCgUAgENwQ/PX1LkAkIpZOIBAIBAKBQCAQCAQCwWwgPEEEAoFAIBAIBAKBQCAQ3BAIEUQgEAgEAoFAIBAIBALBDYEQQQQCgUAgEAgEAoFAIBDcEAgRRCAQCAQCgUAgEAgEAsENgRBBBAKBQCAQCAQCgUAgENwQCBFEIBAIBAKBQCAQCAQCwQ2BEEEEAoFAIBAIBAKBQCAQ3BAIEUQgEAgEAoFAIBAIBALBDYEQQQQCgUAgEAgEAoFAIBDcEAgRRCAQCAQCgUAgEAgEAsENgRBBBAKBQCAQCAQCgUAgENwQCBFEIBAIBAKBQCAQCAQCwQ2BEEEEAoFAIBAIBAKBQCAQ3BAIEUQgEAgEAoFAIBAIBALBDYEQQQQCgUAgEAgEAoFAIBDcEAgRRCAQCAQCgUAgEAgEAsENgRBBBAKBQCAQCAQCgUAgENwQCBFEIBAIBAKBQCAQCAQCwQ2BEEEEAoFAIBAIBAKBQCAQ3BAIEUQgEAgEAoFAIBAIBALBDYEQQQQCgUAgEAgEAoFAIBDcEAgRRCAQCAQCgUAgEAgEAsENgRBBBAKBQCAQCAQCgUAgENwQCBFEIBAIBAKBQCAQCAQCwQ2BEEEEH3Im6W8qpckxeb0LMn+ZcNDU5MCf7G+spXSMzFah5p7AO25Gp3S/ZfTcYQ69cJhDL1zABzB+gUM9l/Ff0/uNj8EXpN8Mvh/7+9Mj0zO/AYHgRuTaJB5vetvP1MgrUlt/2Y1WlxD8XukLBAKBIK246bCWYu10xz3S72jGau3CNQelEgg+TPz19S5ATCYcNFW2w85u7LbM610aHSbpb6qijTqO220YAanzasQz03KPdGGt76N8/xlqC1I5gVSO3opWBmry0nRs7ONcnaXUvaN+FjrnaPKwLuYx6cKHxwlO5wH6b2uhJGvmZ/Q7mlm/DxqOpOd82sjPWfnXon6mk/Q3HYAd0dd3dZby+l069WWkC+sbS7Xfr7Od9Z3mBOrJzIl6frHKBcxFfQmMdLG1vg/PwhxK6ptoWGGKOMJAYPQYR3oAyrhjUw7/9sO9HHkzwJGeQrbsfozK2yPb+iS/ffEYvUD57ZtZ9onIq4a+t5geYHXBovCvrwEL1B9E1IlksMRrkwLBbBNefy3pGNev+ej/9ldoexNyS7ey+ys2zAt9DL7wc/4jqRPlUPLgUpRWH3hviCMvDoFlCV98ILpfCn5PGXeofieViYh2q/R5Q0mVSCH18V8gmJ/EnKfoEmdenfR8OcXxVHcs1SifbMOYU2nDEx48QPldsz8nS5002TrxmJEtKNtoTvnfhOwhwY3C/BZBxr04gfKb0tG4ZsuAkIxsy05L8Hu/QzZ8ZlTuSfqP9oGljnXzaQI0ckG6t5l0zCMX6HX20asyul2dpdT1JHeaxAa7PGqP1OGpbKftlJuS69H5yR24M/JzpTOWB+9IyvefYUC5v4nJkKfGhJNB5xDOymYIE2ImgWJ665sxRwk0bjrq+wAv/WsivsuyYd/vxVrfSEfSE5OZItdzZx/WnjLaB6rJjzxk1utLAI/LLa3oXh2j/4mH+O2lOpq32TAv1DnZAhN3rNlAkfsww1cuc6jlAKbnW1gZVxSbxnNpVH6XY8FVZP/vLzN8KRMwYPpsHsa3u6j74TSrd1VTkrNI92zXB2VSUZyaEOg+zBce7aP8qVNsSXNz9P+imfU/gN3HW1ipdMizeL0PHUpflYaJorbhn2Kd0WNqEt8UQIDRM+08fOFXbP/BvfxBFhcTR0PMiCAw7sb1/wYA8P9e6Y3HcV26TADgY7kUZf+Z/m83cvbTj7F7YyHGBXpnu04oY01S71du73/1GMe/e68QUlNCnn/OSzE6kblxaGzWH3sTbNsjXfLv3dQWzEWH7KbDekxjTiSRjBgrLfKluXhKnxtRN/y/voiTYpYtSfP1riOuzlLqSGVssbCsAtr2VdFxU5w5aoz5tBCTBZHMaxHE/54XKMas2QnE6bh1BhvNDm+kC2u9V7MDj9fpSYJHMQ23Ked0c2LfUBLiRYRKGUU7663tiZwIaaBay7uR5+tpxJqowag6NvpZhQszKXtEFFRzfKeX9fsaaTJL18ivOcNAjeo6TVW03ZJAZ6knMMS5N01meYIS6oS16m6cCURWZqhcWTbsAxbpGVWW4gmeN5P8mhbaKaWusoubg4LCJP1NjfSiIzIAFKylwdJHW30X9+gdMytkUmI/Q4k8cNVZNdphOuuLJgZyK1r56a2HafnWMVxXwXP+Ir/9UoQIYjCAZO4QuAYZn36A3U/lcKK5GdddK/jLuT6cK8qwGANMTf0XMCUfDYGpaaau/A0Ziz30f313VL81evJJdp0EKKahswzP9/sYHYcf/uR/8g/ftmGKNKaWFLPamkNGzPvyMfzia2l2kVV5vg2k1lZ8v3cT4G4+lZ3WggHgGR2CJZsxqwo2m9f70JFGQdRoa2HAJv8TXBHVEGfjGWCxDPbFeWzZd4h/ePF7NL3oJnDFwx+uGoJfm+5cxcpc/Vbiu3SMs2pv86vTTAXAf1VuuYH/wn9lGsPCRQSGj7ErStS5QMfXL8jl3MNPb+qj7c1JePMZThQdpLbAQCT5922gKJbaAkyNvsbpN9McaJOqZ2lglFEnmB7KnmfG+weJ0GJMq8Myzzyb86gdOEMt2nM65bMwIuZKkjCSzc1x54HyYoyljuPpWJDSmP/11pcG+5Py/d2YjzbSSzHl45OQNQ+eu0aZy/efwR7RJn0eqa9pqyylLeybNAvJc4Fa6Nlhwg9RfUmiC1vq9xuJZLNUMzBQLX8S8lQJ7/Pi2V0I79kbhHktgvg8kphwR4zGriVqzIpaq8kkb50fgopW1YAhr0A5ExAv5EZWYj9DSdgXyYSxRJMfPF+aw2FGTsqrv1LHED+HhHqCG26AG20ttHtKqdNUdmXvmuVxZoogCwK2+Md96MikxN6Kx3oB85JJINQG8mtaKe85xrsTkJ8FfscB+b3FEjcyKdlRx+ApME2A61RiA5JTPSDNZPW4oJqBI9k0nTJrDu5pqy8xMBZtpr0zh7bdh1nU0MTncDN8KYD//cu864fJYeXIPnbdH7HS8M6TuIDy/DIsnGNPxCTn9OPrOE0Z7QOr+MymDRjkcisiRdBYuzbF4HeacY4DC4v56lc1BBCAm++m6sHQAB2YmiZwDeBvyFisGF5uOtIsgoTqUqqTgwCe0ctQVEcM2zRFvHh+A1hyMEde79ZHMKf9eh9SCqppr+ijbg4FUe3V2AS9NxdkUvRgKz/N6+Ink6uoLZikQ/7KvGwjW+4D/5VMjKoKG5jwETCa8ATCRRDXi+vC+73hZ9ha/gyWnd3svqmYyk05gFqkyGPlpkJMwJTvME090snMFTvYoiGAAOR/YTNblP7rmiKYAgsXkSH/xO8YS7MIIhufFa3JC1tjbl4FVuflpLE8NyBZNhp3XmT9vvSF5s4P3LzeA1QsjdtXuDolQaJhR+LjR5RH2b4qrPuQ5xuq+Z+GyOfqLKUuaY/FmS6qRBNuuBfTcOQMdg0xOBRW4ub1ng+g2KGBIm5YdnYzEE/8m2vhQXPOqiz0CG4E5p0IEu1CGykmzKxjcCodqAbRiquMRedkE04GncU07JAb0YSD1n1DCbjXyZO7W8yajT0YThMVcjIzcWRmhCZRus9+wkF3D4TeWRntA2e4R0fhza9ppfwdT7THjBwLaU5LGFQqJDb51q0vMEdxh3nUDijX0FC2I8qnLq/mamCWDbvsXWEM87TQQDfWNfGwM73nF/TWiXiGs11f/OOTGJcspaFzKSyQ2mH0yq8OCzPJzTYSuDIJMd1XTSx7cDPLALVIIRlrf6H/21/hiDcAZFP+RBMlCbnCTvLLPcq7j+HtM2NkL7dYfUBcvIw6wWA1xww9SIkpD799G4q+kE3I/JSux7JslTAiiEf+mjosPe10O9bOs1VrDa5OM2VYhNFSTYP8kSI0fmyxh9NPfI+DQ/k0PNdCyScg8M4rtDz6DK78zVQVb6ByE0BOXGE/o2BVULwIiRR5fPHBzeSOdLG13o0HMNxZh/2hPLQlkAjch/kn2XU7LTlSdAh6rK5JfkySPKmK+ZRoQDPGaNtA+b7G6xeaOwskWrf8jmbqeqA8yhtMnvd7NmjOmUIeZcnln5CM79kXEnRFGspoPyK5H8b1voqcw4xcoNdyN8c/yAKIEpZiSdVrNJYYpZWLUSBInnknggQ7PC0jSw5bmQnpDIdxnWrHSRlVWQCT9B+Q3b1U55c6yOwwwySohmsOGsmG0yRAMuEwOgQ9XKIYChmzljoaKsAZkRjVBWDJ1jB68qi1y89AI47Pqef2piUwJBMWE0kyoVPECwO6zipyPPFFSTCVCCNdNL2XrBEUcq2NdX0npKD6p7G+RBAY6WJXfR/YQrlAjEuygSEysnMwLQTT3xkYvOQGsln9tcdYV2wiI8zzQubaCnb3LgNcHCpv5jSw+rsn2JLnw/nCYd4KHugLeml4Bo9y8Nw5Tl+S3fBzcjBcOsahS0buWLuK/JheDH4m3415e2kh7mT32iTDR5/h4KkLeK4Ai7MpKl7Kyn9aS8mtcl6TiVF+Ow735+XA+0N0PHuA029OElicx+pHd7Fdw5tnaszBoR8e5tWRScgqpuqxHVR+1s+RB7fz551nqC2SDxx1cxYDlZ9UnWN8lH8bB0uuOfKknD16jG6HVNaM7KXc/+WHqb0z9Fvtdj7N2e+uY895E1ue+zGVqsVx38uNfOmpjPiT7ohrG7JysCzdTO224lAfOXGZ3h8f5sQFN/6rBowFd1P15W2szovID+N9ha0PDbH6SAsl/xV6nmQVs+XxxyiXj4/VZwVGuni4/hUs9h62W+S6nGWjqqKduvNO/LYZTGAjOmRn1IrohqTPHMY1H/1PfIW291aw+3t1rPwEKEJj0dgrtH5tN4NXAC7z6uAYn6vIxnPpAq6rMHXpMB2uHMq/+R1qLVIfZ9p0gpcqwHfue2x9+jIUPcKz31xBxug5Dr0QkkimRpV5iJufPfcknjOv4QEgk/yscfpfPAy5n2fL0thS35Q/qT25UiRB8fKql7MvHpbr5SLMSzey+2ur8I9ejgoxg/B2GViYSf59j7B729Ioz7X4x3k5va2Wt1Z3Y7/vLzh//CytLw/hJxPLpm+ye20eGYnkVrk2yfDJTg6duohrIiD3Pw+wZZuq/0yg3SdVplgJGwNuOh5q5LSlhZceLZZFsTzW7Symd98FXDV5cxh2OlvI3tBxPLYZ6WK9vEAYJQbIi4dAdL6yWOjkfgj3uhgKX2yZhcWpmCLNhAMAz3uTUKA/jwrP/yGFnVuWd38gjfuQKCQtgiZXx72caCqlVz1uOGPZL+GL5OX7z3DPGxqLrhGL3+X7u8WiiACYhyKIglZSIClHSCJxh3NA0OtB+d/JoLOM9riKp+I6uEGzsw96gWxMo7qZTDiM1lfyAKb+PzT4hCvtrs5E85dEUBCK49MSjuKW8UYJi4kY+Gec7ClSPFLVFf97Xpxpdt11nbqIuaIYZw+U33KREyO21Mo/0/qiZmqIjm/3SUaMo52HXf8uGVRF6thSpGd/yQ14MZhyMC2WP5dd2gN/8uC5ZqbolkWyMJIRXA02ZCwiY3GA/9BJ2Oh78xVOqz8Ye40jYwDFmErjiSAB/jwe7yZnSnToXzjTDP5gCy3nlrCs5jG252QS+OMYbw068Pw5ZOgGfj+Gk2K2/+kYW3e6KXpwB/Y10/zbiwc48t293PxCK6tVu+j4HM08vG8Iw+1lfPW7xXz8qpvu730d1hbTPV5Mo2om43nnMkTk/gi8O8YwJrZ8UjUBHb9A2247/X8qpLymhe1/D57zh+l4/Ct4dj6H3RbDcH3/HD8bysa8xMufr6o+vzbG2eNuDGv28LlYbWX8NVq2PckgyrUNBP54mV9OZYR2Jnn7GLt2Hmb0E/eypX4zuR+dxHXiaQ4+2sAf9ofnmZj6vYtRsvm79w6z9Uk399Q8hv0LXs7+pIuOrz2N6aePsWwxGG/KBl7B90cgrHyT/PJoH768R/ji7eFinslcDD0XeWvClkL7zwwL81QmxtH9lTsYupIKvnPP8sM3A4CDPQ+6GP5GCw0rPoLzqW/R8vKYlJNnYR6V39lFyUfGcV1yQ34dzz/3Kw5+7RkGr4zR27SF4YoW9tYUkrFwERkLwbhQfhaGv8G4eBH8UdkNJhI3Z0+qk4pMMvzyMYYBKorjiiCBq3OwNfbIhfgr9VfddGxrpPePOZTUtLD9E/CHoWPs2h9g9SQRIWahdmlaWk3j93Ng5DCtL9ppMnXwfEV2csfJHlzmDA+Htj2Ja1kNu5tXSW2yczcHTd3sXh4nOfRVN4fqd3Pk/WxWbtrBlpxM+JOX10czMCl9ZzLtPtEyZZkxA6d9PtQhqQD+c8foHc9j+z8Vh3kFSW2xj9dHqsmfF4kaowXLaC9NnYRKIydpc0L5/hjz1QkHTbIXsWbIW6W0mJi0B2NBxPisnM8aJ//ZXBIMgdL3QFco339G3i1PCju3oPUbybukW3PBb4g6a4QoNJfhJeqk2gMtKZ4km3V2ZREtRU+QApUXszxf1sxvmGIJBR8u5qkIoq0uSzlC7k6/G3XSyF4f6o+ybNgHEvltrJXy0IrN/MliLIXBWHa2sux8ozQwyoOPZsKseCRgxM+f9zyXDMUOrwGUUIeBgerkPDpiERSPogWDYB6OsCSrM2Ckizo2cNwsCQHmu+5m8KgDf6xBei7qS0Yx23/UguEbdnrHAuB10D3weZY9KLm0B6amCVz14/ldSGl4tW07wwsD+N72MqU+14omXvrGUs2EpQF/Bvd8fw93hD7B736FjheGZDf8bFbvfIR7/l79K0NIbLmeTDgZjJV3ZWqY188FyN32TZrXKBPmQiy2srDDPGO/Avx09Gaz9/k95MuJZ4s+MsqR+j7+4AcUEWTsGE37hjBV7KH9oUJ5NbiQ/KwpHq7vIxC2Oj2NxzUGRavCco1I17ub/FvkD6756H/KTj9ltP+0OnT92wsxLaig6ek+hlc8QpGBqG1OIcDwS12MPrCVr77TLq/8y7d//hiHxk1ssRbqh0EE3Bza/SSDHy2j/enQtaEwFHF59TKHvnOY0cI6nlclxC0qyiGjvpaDP/o5X3xqVbCue35/EYA9z63C/qM9FGVI5ysyTvFv2w7TP1TDsvsyYUk2FgL4JqZB5U0SuHSUHzoNrP7+5zFH3K/xtrux0I5nnAjhJFnk8XwWMN3XwvML2ml6woEHL/3728nNbeH+lYWYXh7DV7AB++ObKTJO0t+0WzL0LHUct6+i+Sc5HHl8N4dGllB0V55ukuFAYBJyN7D3+6q6/F8+zv6knf4x6V/DnZtpXhMRAvOx+bHW6HqjDyiLsXg0zeD+3fT+sZiGzpZgCF7R7fl85Lvr2DMMRStUIWbBdtnKszXyPd++i7+MPETb78bwIydQTfQ47xiDAD/oYvV3fsTeIql+FhUZmbq0nUMDQ9Quj7UrzSRnn9jNkfcLw8oPhRStkP9Mpt0nVSYTZgsE3vMzBaE6FLhM99NDGNbs4f5I/aBgKeX0xfUOmDtCgmXCiVFlXG/E2cFQnRBTYyFO8oqG8v1pmF/o7LJyvQlLEJ0A/ve8ULEBe02LbjLjyAU//YWgOWQeLkRKfZ9AoM88FUGit51VPCjCP0uetOQEGTlJm7OMhp1e2qLOFStvR+yYxuCAkO59wWcSDjNyQboXm4n+82koS0E8I36Sd98BdPKl6DIL4TBzS3TsqhSKdX3LpuQGqOtcOkM3Ujcd9V4ajuTBr+WPlthoXN4cO1v+bNWXSIzF1D79HOZvf4UfshX7phxcz61h18mA5uFT3jFGtb6YnJImw9cCTI2PB7fA7a0vDd8e8dokwy9+j9YX3fIOMplYHtocIYCA4f/JwZRQcoFZJsHtyqeuTMX4dhKPS8qjUNukFgG0mObskcN4Fq7CvqkwzB3esETK7+ELW5328B9vgmGtOteIfL07c4MGfmC4Tzb6N0dc30Dupwvh5V/h8kJRDhhN2YAq/PLKRX52KofaHxfCc2oXZx9nX7oAyx9j9a0xns2FPo54TWx5Wv/efb84LK0ePxmREHdBNrmfBXpcjE6tkle3fbw7EkB5nkVqKz4zU3o21+T/jSbMwLDfDygiiI9XX3iFgKWOqts1Kpm8yj1jY00W0AB4owvrGzPtS8Ixrajj2ZuWsGvnOfKfaGF1tgGyq7E/t4KMW3L0Qyky8qjcd4hl44swfyJ0/4GpSTw+OUzF2c6XviCLr7dLH02NOfiRvZ1+pWrkrOKrD0TmADGSe8t82Npa7h81w1Fl3n6ZjnMB8rdVR+QgWoTJBGAgPxhiJrfLJWW0P6i656teRn8Hpo3KDjKJHqfkHIH8hx6jtkj1zBYYybwZ+O+/xL7Ftx0cejPAsm88pptDKZl2n1yZMvl4NvAbaQt7pQn6HIc5fbWYhgotUVQSTno90d4j84MEva2D3tBefETv9hGWE0JjDqPkCNEMkYmJkw5rO0SFyssGr86mBLOZcyedGG0tJLSeep3Q3Po8AU+XaBLM1xLLftHL1wgEve4BPCdpasqm8brP8wXzjfkpgijum7dlRnwWfxIej5nnBJE8I8r3n+GO95p1yq4jZEwAFnDuO4nLFqHYBvdOV11Hz5Vfq1OIZcjPJBymoJqBAoDJOL/XP68U/hPLSNW4dqw4wOD9qzrReahCfygIunMeSy5eNwxpi17Pzm5qs8KTDxptGzBbkw25SUN90WKBiZJvd3NPYBEZC8Afy0jPu5fKZYV8JsdExt8GGH7Dz8pNNkmwiCXIXZvGM/QyB/cdZviK+otJnD+2R/1G6q/iqCDXVEJNLGNnxuhtVw5kFPPFTdmcfXE3W6820fxQcbR4c00SKrBtiFod9XnGgGI+pXiBTA3z1nkwPWjDEvke/lvaqLgoV7U6Pe7BdRWWfVK1+i5fL7S1Z4DhC68QWFjG54r0nqmfv2jrXoy+fJjB5ZtpzP4Ir6u/ePs1TrgNrH7w7hhbFstCSd4jrNQVSrw4X3WDpY5ln9A7ZppAcN9lL6PDYFizOXq1OZIFRj5+K/ROhESqgLOPDreJLU/Hnhg6Z2isSbmzJHp7+oC+4FbX6cJw6wb2HnkAQ4YB/Bdoe/wY/xFxjF8RLX5zmKZtr0Sd43NfPUj+YIxdsSbcnH7xGTrOjBFWRcZeoa0p8nyJueMHVG13VhOBxxCJXf96DB9L2bJCrxJ9ns8ouW8mBvnlecjdZiPfIAlGvpFzdP/kMGcNNppLc5I7Ttm9aeEqtpSmsod1gOGBY/gWrqJxqZ7olGy7T65MRlMOnPSFPAKvDnGi043pwYOxx7R3PPjJ++AaZVk27ANmOqyN1FkJq+9BQ1lv7qmEWGuGyGihGvP3eakK5poIhUy0V/Rd90UjUC20VrQyUEPCieJnHNo8R4R7tmgt7KY5aWmKO7io8xg6eySBbH2n+TpsKiGYz8xLEcQPWBiiTeWGr7h03pNyJyGFoSRLfs2ZcFVW8YwoAP97kUdLCY103QOz8qjdWEavMzIeVNk7vRiLU1FYtcJmrufuMEkSmTckZubwOMk0rxOxvIYgzu4wt+h9Mcsk6PWTjKO2lNH+GJ7xSchKfqLudxyQBkTNyU4etfuzsR5wcEfCA+bs1RfX0W/xM8MGqmzF5N6/h70FBky5JjIMi8hY6ObQ6kaOXAVMS1lXsZQM/xAdchhN92+maf9BGbmLjVFCRP4D1dxh+BUtX3pWStoXxiLMt5o0wyg+FtNbQsbvCwvNmA2kfEyxMJC/qY32hd+jqbOZL50JTzgJwPtehoHVyyNXR2WjQx3eMurmLFBeEL0tp5TnIzwB6tTvLjNMDts/qTKE3nEzCFhyFENG3inmzryo0A9QDNJCTGHeOAH4byBwmf4eP6ub7yaDafn4vxA0wrI3UKJrYAFTY/zWDaaH8vRFKjkPgemhXM12IG2BnI1J+dI7hhO4v1hjJ5I/jjMM3J+pPA8jxpsIGV7XvLz64iuwoimm98rMkT04K8qgpw/z/jOse6+Z9fuqaKIbe7p063ccHPqNmS/a8jBdm+J/v63jqQVwdZLRt6NF/aJrkJGVA4yFPlxSzJbVebx7fDv/9OYYkX5OhqwczJpdYmI9mf+9ywkdlzqSV63+eORldDgARf9IflTYnY933waKcjDLFUzK6QM8XYv1afmwhZnk37eVZx+yBUPREj0u2CbvKyY/qhL78P0GuM8YQ1z04nojAHcWkqvb/JJt98mVyWiUPMaULek9jmOc5l6aH/jgbSns8wyhm/9Dkzxqj9ThqVR5i8bbJVHJERIWIjNJf9MB2KGzENlTRvtAK1gb8excKwkgqlCRgQI3HdaZe4pLyJ7oeqGfEbgidj8Mv2+3xmcRRHq5aiR8DU/2Ok/yneiSScnGMtrq25PP+RYm1obnlYq6hu53EMphVkZ5T58k0tx0Emt9I1ZaGai5sYLtBfrMSxHEWFCNfaBa6lysfZTvrMPTAxal87ueBD0jNJCTRMXsiOV40N6jDtbZbRjlVfJeSx3Hd0Br5ezETs85mkmrZhPt3QgSQU+Bn9vdYdKU8Fe1+qCo82HxoinlEsmjNsVEV6FrxxA4Cqppv6V0Hqj0Ywy/6ubseDNnX1zF3mhjwbYAACAASURBVN5HKArzfDBxcyHwJvCmG+elMX7WcgzXVQADuZZC2VjI4GMF91K7OpffPtHFIJC/sgzL8EMckgWQjNs3s+7vX+aQYxKKqrHvtaXuwTEuiQvAzMOCdJCS+cURQhYsIr9iDy+tuMyhJ5o50vR1DE8dZEueZElISTyLWf3JSMtCNjpU4S3+cS9QjPmmyIsEGD7/CnBvWAJUKTfGKswqDwr/7934KCT3ZkPwt38eB/6XllEVEmI+FdYOL+OZAJ/zMKdvqeb5IgPIIsjwe5Nw5d/52akAy77xALmxdrC4KoVJmY0x3k7MY7x4fgOsyAs9o9+78VFMbtTzhNHh1wiEfbcI0ydNcFQK0TJcOEqHO5uqOu38NelCWo0ro31NdjCRuNHWwnGaWb/vJC7b0rRcxzP8Cr1Pj9H7VDa1T7VQ9f09rFO+nL7Moe8eC+7EJBXiXrY32sKMYmM2ZExks6xiFZZrr9B2cgxuvpv7bR/hYKcsgCzMoWRjIX/4cZ8k6D12MLQ7UdLIoSpATC+rGSGFXugzxR/eBio0tqx+/1e8OgyGTaHvpibHgRzKv1HNHVlGzNlGMjIWYYjcESbB4/B7+e04WD6dGy3kjV3m7FWd74LEatOJHKPR7pMsU8ZNZkwck5IOGy7Q/WM35o2PsGw+5HJKiEjPyr7oBJuxhBF5Jylnj+ItGsMrN+glWUa7etFj5CRtziHQWAzJr1ESXbqDHnghYUT2CNHyHp8hiXpmqcvXYW2c+YKEeu6skxNk3lOwlgZLH231XdyTkGCjhDWju+uPPhoevnJy2YYdS/HIXiAUVDOwH6z1x+hfsyOJ8ws+zMxLEUQhv+YMA3d1Ya1vB8poT8l9NsEdIoizsg9xc0co3ipVMcupbJEmq6RI+UXaB2wY5e20ZoSWK34yOUHCjk2j4hwj5ChIEnk9dAeFZLxkdAWB1LyGJPQV6l6dLVyVXY9mhuq6Ew79gXguw4ZGumSxKH4dyq/ppqGpCmtn8u9vRvVFjdfN63LuU4NtqcYqYCbmfBO86YOrfez5uvJ5NiVf+yZfDSYPzKNyfx7g5n8/Efp1rm09lsHL/ENNDeW3w9nHD0tfDLfzJY0YZtNDB/npxniriQGcZ18Juucbzh3jyGerWV2cndi2kkkxlFiSzKxCtjzRxOTqZo4MjrElT3qfo67XNEQGgkZHWHiLHt6f0+0Abs3HHLRo5NwYK/LChAjP6JB0vUSMyysX6X8ZTA8Wkxu8j2yKMPF3Bmnnl2UPf0c2muU8AIDv/MsMLlzFXl1X/DTx9gVOvA3LyouChpxndAgojj424OaX/+KD5Zu5R/WsjVnZcDUA+Djb+xo80EJ5AovVFnOq8pyU6Nuycwf5Ea1Uva3k65q/TYZJfjske28sWUFRnolcxWy/6uZQfV+4AALgf42fDa1g71eKMarbyYrHaF4BfsdFgh4hi+9mXUUOU6ylduO95HoP8wX58N5dWn36vTS/9BjL4qlL3gu8GnwsLl49+go3b1xF/mzsfpd06EUAZ28XLmDlJyP9Bo2YCwopilvOBI7zjOJEK7Q/gOvsz6UwnTtnMUxIq90nW6ZME2YCBK6B73wfZ1mFfU0CDWuWBOvkCXlWaiXYlELCY4dZKrnDYo8PMXaCCRqo7bFzhCnXq1HtAIIyh4qRXD6ZeaEc0s4bbmoL0rMoE8+rGJLzzp3/ZFKyo47BykTzyam8bxQRKI4ApIRcWXbuiLApZI98eSe7sN3HCqoZGJCPmeEdCj4czGsRJFiZAeijrik7hRizGK7zSiOrKKO3x4vFMoRTczumBJCTRCXirSKFFwzR+4ab2hqlUaaJeZobI747fYiYBmu6dkW5DujdV9p3wxn34kzzqojeNZbpGJjqLTETy/WRSYm9G5IVQkhfffFccsgu9Abuv1MjxOCKF9+VCGM320bDt7ZS8p+H+cKXvFQ9GkOAyLJhf05pm24pP0YMoj0CzJQou8v87RIyAN8ZOy0vh8JrAhNDHHp8iEOLCynfVsY99j3csSB0fMosycaCTpLMa0TvpBKY5s+AKSO43YLkyRCx1SYgGx3h4S2GhYuAf2dyktCk+qqbjuYuRhcCn80OnUfOjZG7zay6R63rmfnUcuBfLzP6kEowuTbN8NHDDC6McGH/KzCQTcbvHHRQFiZ0GBYA1y5z9rib/Id2ECsSBgCjGfNC6D3vxG/TGcOMuXxmCRxyXmbKdm/oXq75OP3CYXzZm2kObhUq3x/e8GdEANcLB+gdz6ayKTxHiZToNYDvQh8d7jxqv14cW3Sa8OAh9VwVrk7Zw9GWKeXDmi1UiVdN96uM2fdfo+2bT0oJTLOLsSwcwvk2sCQb85+8eE4187C3Gvs3y+JsQW0gv+Yge+X//J6InCBRGDFGnC+jKLS7jDEbmLpMR/MzKnFmGtfLz1D3che5KzZTtTri+JTJ5OZbgB6d5JUY+LslgG+cKfJUiT3t7PkFQA6fUYWYGW/KxkAfzpFpSlZE9IWqfiDR46RtrcEz4UeddyYwcpjWHh/mTbvieFTIni7/egHXg3kawjUk2+6TLpNxCWYgMHGBE51u8mt2RecxCiO5cIu5JOW5SNwkyspiZLH+oojiPbCvio6bkvN80N+BRfLMHUxCyA3uKNLTiLUnweSdcUgqHObDQpYN+34v1vrG+DmgtMaagmoGjmTTVFmKNUzEUtel6Pml33FAWli2SwtRAkEs5rUI4uqskvcgP0NtgVTx11svpqVTktzp5EY03kVvDyzbcYaqU6VYm5JP6OP/9UVJ4U7IWyWPeyqgt+cCrpq8uQnx0fHEiB3aERstF/moHCoy0uAavuVxkAkHTZVeqo7M1BtinhJTmErHrkduOqwXZLfDUF4azWct43c0s96zITSwKKsfemh4XVh2dmvWGSVGNnkXTpUQYo3hhTQr9cXL8IC88rvw89zzWXk2fS2Az32Onx0/zOk3JyOMnzy2t9RRkg2jRy8SmPBx6PEl5P7LI1jiemHoiLPeV9j60DOMAuYlkX3JIsy3F0pG/ZUx+vdv54eqJI3m25eSMXoB1xXgymV6n7hM7+JCtux8hNU6OUcSJsvCMgu0aSTJ9P+ima2DS6hauRTzR4E/jdF//DCDC4tpWCkbF3K+i6IvRHt7SEbH3WHhLRmFS1m58DUOfb+djC/fi/mqm+6nz/HxR7eyel87nlyVlCLnxlh2i+oEmtdbxLLyDZgfPcyupim+vKaYj+PjrVNd9F4yUr5/h4bB5af/1SFy1/842sAa/Dn947ESSqpYkMcXtxVzel87u749TdUDORiZxHPhHL/N38Hu+zJhQQ73/3Mx3T84wK4n/Kyz5WCUn+XZ94tp6NwQMuDk+1v2wD/yy2/shm0byP/oJKMvH6Xjwjj5D7VSlRdR4CXZWDjOoWd9GCtauV83+ap857++GFPojM0kUEbDjtlPUjg18iu5XzKwrCgHCOBxPMuepx2MXgUWFtOwZys8NSQdd3MZzRu9tNT34bnURV3lOVZuqmbLmsKEdmLSNrgCOJ9aQ9PLQFF21D0bluRJoXXXAviGj7Frjyox8sI8LIU+ht+cJECA0XNdtJwzkFtazfZNqzDPMKwi/64y6AnlrAgnB8sXsjn04wM0vQBbChbhOX+Y7qm1NH8Fdu3PDgsxI28VX73zFdr2f509E2spycmEP3l5/exRfMt+GDJ0EjpO3tZ6+SosZ7/OLrZRlZeJf+wVujsv4CvYTHuFhhgdRiaf21hGb30fu74GX11fzMf/JsAfRs7x6oIHaN+UR3LtPpUySULMkeefx/fRMtptcQzuNCX5l5ANwrTscJdIEnsdYgmmwblDPEEh5D3Qm3AYRTzknDjLtb6L9viVdqxRyik927bKUgZlEUNvfjtnTDhoOkDyu5yMdGGtZ+5ziQQ9fKqwevQXtxT7qSpyvphlwz5gob+pCqs19LFlZzcDMWyttGy5LLghmLciiLJ9VsiQkjqsezpLqavs4uYBKZZY181MLw5WiTeraGVgQG6Q46Gv82vOMDDShdVamtSWWsnuBR7pzjdrqGMwB1qiO4bbdjAw4KPDWoqVJLcRW5KNhT4Gfz1JSUyVV95KTWNwVUJEyvefIZ80hAN9wJC2RU4h1EvestRZXyor4i3kq0K/yvfHHiR9niF4527JRVodg9nTSMddGuJFoh5GI12qSURytyQREkIiM87DLNYX72X635b/vq+Y/D8OcfBHXZy94I1KhpixeBFTV6YBNweb2/mbbYWM/ou8Ge6KwpCxLE8MdYn0oLg2zfCrL8veKDl8/GMRxwcm8fzGyS9/8XNO/8IdVq6M5Y9h/8a9mJhk+OiTtLxwWfr+ymUOPV5Ld46N2q9uZnXKW51mcsfyYtgXLdxmFK1i3XAfP3t6N54rSAkQl25m73fLQq7w3jEGMVD+yUgDQTY6brWpwluAxUtp3FfN1LcPc/DxcxgLPs8//6CNkmwXB6+a+MwnQ/eh5Mb4lNrFROd6hrzNtD+3hEM/PMwPH+8jwCLMS9ey98gGHbf9MUa999IcsWqbkZUD42P419QlHPtvsjXxrOEwh356lD1fnwYWYV5qY8unVSvt97Xw08xjHHz6KHvOTYeSSe5TJ5NU7s9E1RceYfvyY7Q+2cyhiQAZefdS+/3vU367xns2mjDjwzkuJaqObVzKieXiiKn6ZJJfk/hENBF3cW2mcQ5ekP5cuIp78iYZ/MGXafnFtPxZMdufaqJkyXSY+3NGQTX2x6dp+q4Dz9UxznY2M2U8hP0+6bn5PDESlmp5Pr1/jp/9Qv472xjV9wbeH2PwkoNfHv05TnVi5IU5VD6xhy0FBmnr3b3P0j8WAAKMnnmGujMvUPTgY2xfUxzePpKhYCnlNOqO07kVLTRP7KX1xSfZtTiPlRXVPLu2EN+LB+DOFeHJRBeYKPnGQT7y4mG6e55k1xUpOaxlxWaqijOTPE7evWmjje3blnJk/5M0vTBJYHEeK2v2sHdtYXiokg6Ggmr27jXS8cJJuU0bMBbczbqHQx1C4u0+lTJJ4XE+p0/yBI4jpM08yb8KeYyxLE9DQlAlr0bMJPbaSDtARRuxoe1Uk50T9CUYRhGHJHKFhBZGlXJKNsc6h5TI2brvOiYkfc9BU31ISEr2XbvIpsHSTp01Tkh6WpDmocEtjIMeHY1Ye7SeoZLEdIPms5U8OwCKJW99p84OmzJGW0viSfNT3n5X8GFhXoogsVaSI5MkaRnt0dvaqjtjVTIlPeSYNFdnqaQ+zmA3ltTcC+PkMdFtuKEOJvJ+7TqnMmZlApnyqrTkOmjdl6AYEtw+NYEJbOQzlI34sLwjssu0Xu4MNbrxk8nkP4l3rlkmVM+TH1il8CJ5wMZBUzAWVm+yoV4JVJJQmTGqM7XbbbIgUpr6ylJBOsK7NPKqzFZ9kRn9177gbhKr7yzE8In/4h8M45wOHrGI/Ps2UlVpw7LEw6GvNHLEC3gdtH09JMYsu6uIjGuX6bh/d9wyDXeWsuukzpdLlpIfXIGNMOzCWERRzXdoXpsnh+BkUrRpDy+tGaO/80DQUyQw5uBgvQdeaGV1HA8APYy33Y2Fdroda8P6BsOSYsq/Vkx5rB/nbeZfBjZrln/ZN7RX1wy3lmE/UhbxaTHbB8LzYBjva2HgvkSvBxk5Nrbvt7E9VnkhpvBnXnOQgTXxThCJAfOKappXxE4Ybbx9A80/3hDzGCkk439iXgLGnA3Yj8Q+HoBAgGnA/NDm+JNgOcQkPbstxEd7vEkgn9eVIV4/L/99XyG5CzIxlK/F/IvDeLJt7P5eHSs/AUoyWzWm5XW0P5VNy+NdDH96K9tXZOI7s5sv7Y+zY8sfHeza1B5KRhzBss/mBwWmwFgfu77SFZ2TBDDk2Gj8llI+qV42PGfjny8dY0/QU2Sa4Rea2XplDy9ti9xVKVEkz9M6PcNhgYllj7ay7NHwj40PntJe9V6YzcqaJlbGW8SJd9yEh9GrkH+TCYyLqPxuN5WJ3I4GxqIydhdF9hXhJNTuUypTgMAUkL2ZLffFM7YVb4ul6TGm0xb6Gp5HIYSep6qXE02l9AZdQzXCXJRtcIGY+TrUWOo4PnAGHM2s3ycnWh1XJ8qMsWCkk1BTz2M1SNhCYXT7kBY43fJWwKklKZ1pTpDefe2U7z+DPUXhLL/ARr7dxs2dpdRVluJJe6JVn2pjAo0wFXksVTa7CMuvGExiqrax1H1/9AJu8DzMcGvhFLffFXx4mHciiOQBkojiqp+8MsxlLdgx6nhCxEARXPyOZqxWRVCIV67oiVu8VfloZrAFqNKhV7QykPSOHorxKYsh5+Mbwsl6wCi43ujTFZdmlOMhLYlR54CRrhRDRiTUz90/IoUk6QlXRtsOGs5XRUxC5EEnK4+qCi9VNfJ7VgmA6zWSdcYkLS652sxafQHAh8+XSQY+pljFHUUGwMCyL1VjmXCRe/8DlKzIU7nK57FlXwsBeWvcINkbWLd0ESwwS3HqygRx4b18RiNiwpxbDGjsBrW4kNpvlamSfGay7NHvUP67RnqV6LOFmVge2EzVGpt2IsWMHErqD3LP6tDqsqV+V8oCCBDcBUDXmBLMGZ7fD8GtjyTlHeBxHKN/4b00l8ZP2qis7KaWjHzumPqdC9dC4KosXgLklNH4tUwyltowx9liOiOvjL0/KWR0OgfTAsCcA4REEHOBxnbFS8zkL4Thq5FfGMgt3UXtclXumJwydu+8zMP7hoJhaxl591JVuZH7dXIHGW/fwN7jtpBH15Iy7A+lKoBIKIkrIwXM68p7XpyR21pfb1Ipk/fndDsMrHw8zg5RKLslpeZtoYXrjfihr4kgrbZLc4LQApqMRWt7+2zW2ePMUWeyQ6BtA+X7jiV3nmSvF7QNJKPdHvMZqrxC6kvpVc9FRuKLNKnmBFHeb7rmVfk1Z2inlLrg7pQzRPZEcu5r1BWRIq8/UCPZF+ut7Vh2dlPlCYlvoe2GpcVbvfql9qR3dZZirZf+TsqTXSAA/se77/7H/73ehbjuJLJziUAg+HBzbRrP236MedmJJRG9No1neBDnyDh/NubxuRUhl3XfhcM4A4WYP2rA+Ok8bWP1ipfhUX/YRxkfz8W8RGMrSQDva3T8yxSfWvmPLMsxaR+jU87RoVEyigslQ29GyCLvDLzjBDPFy+lttRz87B4GvlKY2E/GHTRtamdqWwfta+LkMPmgbct4LYDPfZmpW4rDQ4bCmMb18kne8gPGYtY9kKfdxqfcnD7jwZRjwvB3Zopu1ZpQB/C53fj+j+qjjxgx37IEY4aWVBFguKeL0cVLsRTnYTYmIWdMXMY5mYfl1hll9AFmlv9rNvCc2s7DTxey99VqitK+k1VqJF2maz76v/UQbX9+hOf3rwoPHYpEMXbTZqjJST+Xz/B8crnMCbZ3ydN69hY8Zp04nh+J/j597/GDy3zrUwSCZBEiiEAgEAgSR5lEzqLnjyAGUxfY8092puJMwqe8lxn9/4A/uel++jCuvDqe/7YtthCm9iQUIteHjtSTVqebaQafWEfL9HzqQxIs05SX4d/5gUlcJ57mkCufhs4WSmImEE5nAlOBQCAQpIN5Fw4jEAgEgnnMPN2G+4ZBSfpqjr0KGfi9g5bvvsbUwkzy76vj2Zo4AgiId/shZ84SssdFSkBqWJvCTiSzRoJlCnjo32Pn7BUDxoLP0/BUdRwBBGYU4iwQCASCWUF4gggEAoFAIBAIBAKBQCC4Ifir610AgUAgEAgEAoFAIBAIBIK5QIggAoFAIBAIBAKBQCAQCG4IhAgiEAgEAoFAIBAIBAKB4IZAiCACgUAgEAgEAoFAIBAIbgiECCIQCAQCgUAgEAgEAoHghkCIIAKBQCAQCAQCgUAgEAhuCIQIIrju+B3NWK1duHS+d3WWYm1y4J/TUs0Ors5S/Xsd6cJqbaZ/Yq5LNcfM5D5HurBaS+kYUX024aDJWoq1053gSdx0xKhvoNRJpYxuOiKvKUgfEw6akm3f8jufu3cySX+TVp2V6saHpX/6IDPX44TUl8eqg5P0N82/uhG/3AIFV2ecceXDMGYn1P9KdbnJMTnjy30o699IV8w5bAi5T0h4rhLrekk8Q713LJ8nHe81jKvT+L1j+AKqz675cPYc5tALhzl06nIa+sRpXC/L53vZzdSMzye4Efnr612A5Jmkv6mKNuo4brdhTOanEw6aKttxJnW9YhqOtFCSldSP5gWuzlLq3tF7Tm46rI30VrQyUJOX+Pl6ki2FxvObcNB0ABp13p/f0UwrO7DbMgE3r/eAZacl7ruOfb/zgJEu6nrAsnMt+cn8bsJBU+VFls2oHsrvW/nXovOc5DZi3n+G2oJUrzV7+N/zAmXcEyzbJP0H2nFSRnuC9ZiRC/TSR6+1j3Kd+zTelA145ePBvLOYtvpSevWeG/O4vX0QcLazvtOc8LOJTURdTwXN9zREW2UpHq06c4t5fvY5gllCGpeoaNXvJyecDDqhfP88Go/kMQig96iDdTMeK6W2Rgrjhd/RzPp9Q8n9KEb/m34mMd1Vh6W+kSZztzwfCUcaj7K5+YPW36oZ9+J09tHqsGjeIwATPjyAc99JXLbq5OYvalKtfyNdWOu9aR/bpDpI2Hmlz7JpH0j8Pv2AhT7qOpemaQyTCbNZQmO7640+wudBCeBsZ73Vq3lf5pt03nsCTLkdnHCO4XG68RHA97Y3KEistp9iu8UAgOfUXpo63bCwmIbOzTHfe2BqmsA1nS8Ni8hYCBDg3TePccQJWJbwxQfS+NwFNwwfQBEE7lheBvtSnzTrGT6RKB1kOGmYYCtY6jhuN3Mireeb+QTB1VlKt86gn9Q15IErGjNmGjXfn/LMy/fLH0x48JBaJ53cJEseYMa7sNb3JX0tbcpUA46bjvo+qGiVn6sk5nk2xq6LkiEcYdjqiXmK4TaifQ/l+88woFxrYjIpJT7es7Ts1KkvaWWSt84PQcWG4CDudxygzQnQR51V+56jnm9BNQMDayUxtb4UT7yyF+RRUtBCyW3Scz8xYkurQDT77S2dpLv/s2HMsmHf78Va30jHXekT31Krk4rIHkkmJfYz3OFoZn0ideZGQqe/SYZQO41Rv9IwvsUUKpMRgEcuSGXsacSqIVSW7z/DPW9IfbSzvlTzfuamz1Qjj0GWOo5v9LK+Pg19mTw+O+u7uCcJozFEWYLGpl67VH2X3OpWAmXIxFhgo/GIRbdMkeNRNOnpL2e1rhRUc3ynl/X7DtB/m47IkJVH7Y46PJXtvD5STX5KdSbd9S+xZ6s/35ffn6WOO4L37ObEvnjvNBpjQTWNO72s33cBV03ejESi8L60mIYjZ7BHLCJ2J7uYlmXDPmChv6mKOmt6xaQMxul98RUCGt85x7xgycHnaGbrc7L3y9Uh2jaVarRlZZ47yS/3xGjPSSwkCQTxmJciSMLGq84EREJ/RbRXZ1Kid55w8qgdOEOt7vHKgJzo4E6c80koq8KJCjixy6b6SP0MK1o5bj4meStU+PCTOTsrLsEBVRowTMEv3JyIVOV/fREnZVSlfM/x30OY2FVQzcBAdQrXieWhJA/WljqOR3TevfXNmDXqqdIGLDu7GRjQnvzENhzieARkJfdujbYWBmxa30jX9mh8Fq+NtVVqDYQyWgbPyEnanMU07JCf4YSD1n1DGm0i9LzX6dabTErsrXisF7gn0clllg279kPQYZ60t7QSr/+TSLq/KlhLg6WPtpSNqcRJZaVPwWhr4TjNtM5auSLGvYWZ5OYXYrGtZd3yHDIWzMKF00KKHkiy8BBJuNEXywBOhsS9CmMzSf/RPqmMN53EejQ7uq+acNAki9d3/LqZ9Z4N13niPkl/UyO9FNOww4YxC9or+qibaXvLstG48yLr9/WlaBxri9e6aOoRkkBZovWVbFQmt/AVf+5Zvv8MtUskTx/LclOMIxPrL6NRjx3FLLttdsUyo20HDeeraDvg4I4d0BrDY1pP1Iv9jGep/hFDINLpW0Lfy+9P3R/I4mb5Xcm31eg5Ugxxzhltu0jPTzX/1FnUcJ2S382+KqxRi7QKWv1xJiX2bmg6kNgNJcqSHD53aw5/MJsI/OICLiB30x7sa/IwLjbgc9jZum9IUySJ5CMJjW9T+NyX8f2fSTz/KX/0n16GL10O74P/dgn5eSYMSd6O4MZiXoogEomLCJFoe3CEmJknSDx8eJxAxdL0TeRl5Tem663q2HAvgXbWW9tRnmdosqDhnj/ShbV+KOlVh5SMiiwb9gH598EP86gdaFEdJCv1DGlPlObUNTZFgsp+Ge1hZVUGJHniEfxOcrmnopWBsGcxe2hN/MImOkkr73Emfim6trre6FOt2rjpqGyHnd0RbUKZbEU+b71yxrqvIQYPNNPm1JoUy/3TB6W9zSXJ9FdBMinZUcfgKTBNgOtUYqFAM6unqWG0tWBX/pFXwi3mWIZQMuRQ/o1q7vio9J///SHeGnBw5InXOD34GM8/fu/s93fvv0Ldgz5q52H98sU1UpX2R1R98DuOSUYYJ7HGMLz1jDzlfJL3WRnt9kz8Di9EhRJIIXrs7KYkSx7fevRDKuYCV6dkjJXvD/W5+TXdNLxTRV2ThoijkISXT7zFJe15Vzo8QdKHvtgfjasztjGauveGehEh9XlwcmRSsrGMtqNefFQnKfbHJ+X6N4tIYkIZ7cF3JHuqkOBCaUUr7TRqj1OWOo7bLcHjQv2QXI9viZwHeDEvSaDQEw66Iz2Dw1CEF70QrUxK7KF5pRTOVZzYtfUwLqXh6aWAmw5ZBDGazBgzpnE+10jLyTECgLliD3sfLMSoUiUCI11sre+TvL0rNrDMKJXxc7tPcI9uOMyfef17D4WLS2/3sefrEf2UpY7jdtP8tg8E1515LIJEoJMXIRWDYGaeIHGYgZKsTZI5D1Sr1UnlyJAnO7PvoqvnJRAhdFjqOL4D85sRCwAAIABJREFUBp2RHX7EIKJnhFrqaF8+i7eRKMoKt1NrxauYhiOtlFfKoUF3KZ9FD3CuzlLqmB0jL2zil9acIJP0Nx2AHYmJHeG5YCJRr+Kq6pDuakjk8w65WkaHIemv2Di5m+MDLfrtZ963t7kmhRwtClk27DXSn8aaMwzUxDh2DnPXJLQ6HHNVjiQEWyPmgkKKlPZyeyErH6hm3Yu1bH3hMK+O3UtlTsJFTwmP8xwu5qe7sSmGkRovJ4/k5t5KiS2PEpuGt18idSrofdYizTdsLbR7SqlThxJMOBl0llFll9q1MXhMFR03zX2uJX2vLMUbrpH1TWg/N13PSNkDUN1/Jel1IZEOT5B4pGDkTThoqvRSJc8r/Y4Ibx5F6I1s1zPNXaGez8z1Ik9BNQP2+Icp+B3NrD9/d9wyzqT+Rfa9iveo+lzOOH2vWfNTZT6xVhVaK4ukR1ooydKo35pEjFOK98nyxL3Nwhd34hx7qh1nRWswPCbK/hk5SZtTfV+JhYrF9MoljqAXmGbqKsBU0NsjcNXP1NQiMhYbAS+5m5rYvriPL5V3sfqb36HWkonf2UXT92QBxNaE/aG8oNeGIWNRDA+ORHxKBILEmJciSLgarzTiYhqO7OAOIvIk2FoYuEnKcBwcNPQmSkm7sydPdOLGmRFS0Ge6GqAjPkSEFIUPKLOxChHuJRAa5KKv5eosxQmYx4HgACF52gRdUGMYoX7HRRKfZEWIXQkk0U3MgI3hqquwvwzPUQ+uu/QOmOTdd4Bb4lxqvjHhZNA5hLOyGeJNCke65HqgnXhNmqBIc2C/4xi9FXU0vNMevqKCjiGkdiuVXWCdzlKVV4bGO1IMoo2pTkLnS3ubW9LXXwEjXTS9t/a6i0QxV4fjilnpWcHO/V8PkPvCM/x2dBJypOvEXADQMuivTTN6/ijdx8/hHJskAGRk51B01yqqKmzkLnBz5Hvf4tClacCt6jcTD3VJKpmvLHTPBUEDZ83MxJ2gEaIa3/PX1FFutoSej8rLMXhMTSvtd+WlmEshVdRzJ733l0ftQCvEEkKCuOlo8iSWzDJO8nNIzusiVaT5WJIoY39FGVUjQAFwUzaWfY1YaWWgxiQLvYDTiw+C9ziTRKlqg39eiOMjXXRQrSNoyaIi8NaELY5XQur1L1hHNMWlVEONwucTQFDctMjeW6kS7l2SyI4rSoJlszxnjRbcwwWKMtpjeK8qCVOrgnUn9vxTM+ecmnghRYD/3JNRZR5+ejv/9DRYdv6Yn774EYyZU/T/wEXg6jS9TV/GVWBidET2ELE1Ya9fikkJhbk6zVQcneOOxhO8tMDH2e9t5+AwsKaFlzblA6rPBIIEmJciiIIyobLs7GbAriSTLJVVzaFQGIG8WuF3NEteAGr3s5R2hNEjXCXW9ybRCd9Qk4jrtjqTtk7uiMTRHjDSk2skNYLv11KMU/aUCA7+ykoL4HlvEgrkTj3pRKna4kq4WKIf9qT9XLTyYMyAgmrsdmDCgYU+PGGiD0QJP9eDOO1Ic4FOlYyrrbKLm/UMfMXlWrdNhCZcIE+MmKS/Kfq4uDH/smgm1b1GrHE8N8LqXlLMv/Y266TSX0XWK1Ud8L/nxRkrWV+CZdJ259fqo8toH1ib1OkVd+LZjtknMMUUYJxBTpDRnga2HjWwclMN9hpZSHn/Aq//i5epB4EFOaze/RNyX1xH06lV2HsfDLZXQ0Zi18iP58ETyYQjmVuQGOnC+kYyuzAo/UdI6I7l3aMVDqOMS/k1ZxhAW+zpTTB0dk4M3GC7SkRYzaN2oBtzU5Xu7hEhUbcYs67RG4HGbhQp7QijRwKeEj6PtMCSsCgRFEDCxyJjQTX2I9k0VTbSRBk4i2nYfzeD9Rd5dwLys1TXs9xNciN1eP6PudzdK/J9hMYlKe9Nr7NPc0czRURQh7eEkfb6F7vcQLA++DTaZlibkwWPEFJordNSx/GZtMtUEpZGzBPUwqDWzjXxSK7/lRfXLHcn5IWSGh/BuCQTyORzD+9g1GPn9DvTuEbGgEUse7SN3Q9kh3l9uF5cF1dIl+qpkb8JuY6QsXgRoPpMIEiA+SmCKOpjWFLIkPAgJaWSjlGrx1IHIg0o1k65455F74/wyYyW+5zWtpgJrgxOOGiSDUN13GGiLojxSUSlnyUiBkiTo5n1zjLaj2TTXVmF1dPKcfNFnJY6Gm5pp83jA+RnOu7FSTHLZhLDGMGsr0jFE+IqQnW1qqKdOs1wLXXsaiIMxXVxBOWZR5ct3BCQjgMt4z2eICS7vDZdgAkixB0ISzKoc39+xzF6LcVYtHJzaCVH1nSPDff0ya85QzulvH6XTjvKMmMGemO42iZnzFzH9jYXpNpfBfvnaGE5GEYQS0CLh4Y7f+ywiUneTfjkSs6iJIyslAgwPPBzfBRTWZjqJN3N60e9GCsOsrtCFU9zeyErH1D+MZCx2ECGQfl7EQlqH2lH08VdVlpdb/RBj5f+NYl6p+gtWEQYaJrhMNr9m76xoRHzHyTN4rkOQQNRU1TWS+Ct2v3IWqo5t4m1PXgUWTbsA2Y6rI3UWQk+57SPtQnlLEnMG9Sys5sqT7QAEkTZxepoNscHqjHixkO7atFC8dhMbrvs4A5n1yHHWbinhfoZyR4EI11Y6xux9qjaiiIi6OR8Sn/908ESsZB1XvWV6veuzlK6VT9znWrHqZ5PTJgwVxTTsCb62euH2kSKO6ow0LQInMrYohGOr/KKuUP1cVLhuBD0ilW8UFLFuOIxXroT/Oef5OGnpGdatO0gzSuM+L2XOf2ck1+ev4hrQuXeYSym9ts7uD8ncwaJS+X8iwLBDJifIkikcKHqoENGWGiQXW+9qDIs4mcKT5a5X7VVKdM1efg6VV/dtoN2T1XEPcfmrc5S2sLySagNDh1jebYGZFXcsOJSHEyMqpo4ndh/hgG7HNJy3oOfPGmwS8DdVLnf42bQnwCpEugFmV0DNboeRQtiSa+k6hJ9L3qDZKRIqHmc7oqttJIRmzxq7XqrtnHChSYctO6DhiMb8FQORRsQ8kQrrlunBvk1Z0LbF+t6diUfojKv2tuckN7+Sk3+mjosPe3UdSaz8h+L1AwVbdRJsCfpbzrJzfbIuqIck+j1/HhGLjMsJ0YN/HGMt84d5fQlIyWPb51B35TJx24Bv9uN71pOyPV4NojrfRm/ncbaHUZJqNh2yk1JQt6UxTTszKZt32xvH508SYUPxSMoQJbRPtCSkmgYtpB0vo7jdjMnkhVAgoRCHdRCiEJq9x7RH8fazU21mJa4WC15+kTlAMFNh/UY5iMtqrwZJswWaHvDTW1BXtCoLN+YWj9VnnLo5SxSUM3AkWyaKtvlrVV3QIycT9I7TWf9C38mgwdKaXOW0bAzxftR+gP1fCIrk5Ia7ST0iS50KEKW4gXidzRz4qYdUj4SrYWasN1hNPpDRaBQ5gtBQUlaNIoW3ieBYnAmse3wuBcncv7CCQdNp8zYI9+pckwsz2vDIjIMPs4OhBapfP86xOh9G8hnlBMnX8Mnf56RU4hp8jKj/iE69p4k/+nouVX+phO8VAGMnuThrx/DD+TWtLLXFsruEumZaNBSUhZliJ1hBHGZnyJIkHhZsiUD7J7OUuoqS2lLaKDW6HD0klklEA+XfqJXXXyqb41ZmVLSwLu6sIZ1juGEJhjteDaeYUARHJQ48v1l9M4kgVeqhE1aVKsCA8p7CzeqjTdlh8Xd+jzae7hr3a/fgaZxmbRiPkfouz9Kz2lw+ey5UaufSfKoynebM+Hws7ieKpY6jm/0ws4dlGT56Aj7UhZPJhw0WRtxUkbDTq9m2I1e7gS1l4Ju6Mo72eGuzTqThXnb3mad9PRXugS34DyW8Mp/TJTJpTN+KFQ8gi7h8iRy0NlHm4axlxxj9D6xO1yQW/oIz/euwrw45ZMCJu7/8gb6v/EMX1p/jpUVG6iyFc/wnLHRXDzQ2fYxOeSdLOrj1wn/e17JZZ8ujb5GWyDXDIeJPG+8sA6NLTC1zpU+0VshHedTCdMjXToCiIb4rSlIyEJI0zHeHSE6J0oS43Oyu/X5f30RJ8U03JaZfMJSJQeI7AGB7E1k+fUkJap8C3csLwa5b7rj1xdxUkbVhy3MUbU41VZZBejnfEpPfY5YGFEtXpo3nsFul+qCFG6lmp9b7g7+GenBYZFFE9cb0gJcSZY7Yj4xA4L5zMC57wAdHujtgfL98kioiJO6dTp6UU+quwBK2JWcj2aNR/bekHafDO2smEl+zQbKe4boPepIIG9PSEy5p0BabHT2tMs5b5IX8QIjr3DCHfrfN3KYXY+O07xnM7UPjPNvn/w8X7QYGf3pk+xR1tO8fdStDu9/FdEpYyF4vEPy/eVRYjHjHx2k/wJ88VGbNCcLhBKxFpk0AtCyjNfNk1HwwWGeiiARGY3jTJzza84wsEYOj5F3BtGf3OqHCeh9rp1dejZIwu20oJqBgaV0WCNcFVWeFu1Ik4l1BapzV7QyMCCtnCeakToeqcXBEsxkXb4/xr0WLKWcRl4fqSa/QMn5oLqS7v0q8cB3a572eqC7K1GMhKfKZNuys5vG22arZOGr4754h+vg9PjAFif8TO2NleDqouQxFFmq8PA4e4E8MaKPboeSTFMdgrIWU0Q4js8zBM7ssMR2akzmYui5GEr8FlzhLg4ZXx+k9pZ20tBfJYDRtoHyfcfwjE9C1sxEwGDiuoGlvJ5QMkg9ZHdli/K+Q/lvZrblY7hIP3q0lq0/HuK3/z979x4fRXk2/v8TEhYiUUpaJK2/RFvQNjF9QC3rgcOj1jWSqqUYAxK1tYLR+rUhBy0YfVKsKVYTQko90EStyPkQfRBDY1qlyKEm1UKfNGkVWkiqDaZNqgZClhx+f8zM7uzuzO7sZnMgud6vly/J7uzs7O4c7rnu677u+2/s83XIlnwnz264hprKjazfUsDdZTZir1jAsh8ucM9Gc6ZQrwuBskFiU5Yrwc0638d9TlOWh8Oov72/dP9BHA4TVuqMIfVlqcwPNmvDdV5IJLPQZLp37xtZF7PH4y2+ufv4vHwicNziy1TuGiClrkCZUVZA7KVXYaeUla+Wk7bFuINmeFCyXrTejW1a9ks/c2XklOA7jWwIw2Hc2Z9hog4DTSsphuxctlHLti26mei0971ynmdbAnCfR7z3GaWGUVr6PLZtaYJJKRRugPyF+9iVoAwHNy7wnMisdNjm8z5G2610Brjql6Qsp/rSKqXmTbBTeXc38etfVni00GzRNpxNVax4/hu8/HA+M1tqWfNoLtuOWJ3ZpYmD1UfUj3UNdttbrFj6DPXEcfYNKSy8CPikNeS2qhCaoRcEcd0kuRuq24zSycykF1N95T7P2WI8FhiimSDaDVZQaae6TBiHNjWduzem/oC6mO5GrVq9QQtYQDJYVtPLDVKlfYMD+psk5cSetbGKWbP3KxX+9UUIjT5vKNs1AKwMh3HRFwutNmlA+hVahXoXfeM04CwO1gq36rMisrKbyJndxPz8qqBvGPWBoWpdQ0dJe5/HyqLt1J8HWdr3ZzgUR6vKPsO0URR7XjxohWoxLphnuP8NpeOtv4TtfGX1daEcA17Uwq1Kw28CSZZnxfClpT97BnANpnxUCznbE0ILWU2Zu4ibNxbwi7J9zHp4hvWeLTWN2SdwEhOPPf0h7LcsobnhDTb8opwH795HZslq0vp56t3wSuTWvOk0Niq9oaEcCz5DHgzrTRlkPIQ87MHK0MGhyd3Db1bTwc1V/NnK8I7+ygRxTRXah3PuRO3mUwmcZhjdGKp1vGq2VIRl9qEhSddmSyupZNYBtah4kMHsUChF0IG6fb6Pp3j9fWkV+Y4CZm6odE0hC8q+G8TMv0FpfW+/GjRVMkuUujIZZK2q4vLCBHe7SA3a7tVnEpmdR+r2sY15lF6pZJQAajaOcuz560zRho/6Dw6b1C/Rat5kZ5CPEgjRCn/7m2K69a1y1jQAs2cwc88+9gLT7l3OzJZmLklPonHdMu5+6RDtAONn8EDRg9x8gXugSnNlAXeUKPVPZk5Tt6fpELveVz+T4xvEfWkMN9ifob6mmfXVh0i7aCq2D5tc9xHWJ0oQwtPQC4J4pFQ28DZWx+Xphs74Gyc6BDNB/BeSCixJSzc3m5HB+/tQG+bWiz75o95Mso/6xYmBX6PWezEb+mE0BEGJopeSVQOkF1tMiVeyG+yz40zGHnv3NBl/ZtPsDUxmROkz3RhQ031YYbZtWt0U6wyCGD6N0wYSMJktxcKMPe6xwotIqitXHrx0EZspCPom1LMBpMtGqE5RitUV5ZJ1oFjtPTJJmVe3Oe1KP8db8gzSqHB9z/qgi9+Cn0PpeOsH/X6+6gf6bXZfSxLJ3JBFo1eB7cDU2Ubs7qwzN3Wdq8K04dHTuSvvan79k6d48brpPGD3HuXcSms7eEdH2ltb8SvSRlzyjeSUTIKbC3hxbwNpk8+sG7jYlOV9u7nxmPY0USm4aiVbSw0wGQ2bcfEzHAaGyBSoIdEF+nxm8nDPIGN52Em/ZIK4U/0NAxdBUDLHQBk6ZTycRmmfVNDnjochx2TWmuRKNicUML/I/DvpVwFq+9WYtONDOebMr9nq96FlmukkLS4mzbGJd1r0dw5qZ96eGlpTlOuMlpWY4d0xphaKT2K754qtBPYm2plph5otftoHrvUYzGKTvIjNeU0Um63fSDc4sXFz6vXY9qjBqsgE5twCq+/OYEeL8lDMZXeSe10rWze8wbTsG0mIhuY9peSX1AI27Hn3MUcNthz+XQWHAZjODVco7dJZ181gZc0+nK/uZO/tU5ly9JC6Af6DNEL4M/SCIP3JLDgS7HjRcFLHE/a5+GryIqqrLS7rZ8Yc5eYu3nqqfd0+tSHoNcWtP7rq4t6ZN+uNesyTbyHHXqEMa7Da06JG2RNum4DSFWvecxX8FLmhsTYcxrgBWV+WSpbXeE2zbQt1uESNeoE2pvS8zjdrFKQXuwrdevIOUniKTVmuBEKCLpzpbqDpMy5cgdCjjbQuvoUcu3EBRW28uN9ZhtTgBfh+14GG0ngY7OMNPBuOIQYvtPUM+PnKiOVZotz7hOF3pevtVQIhgUKbbezKV2/0lviZ8Ua7O7dSWC6AmBm3kZm4m9U/X8s3X1hEkhoHsUWPA/bzx3onM/XBke5m3q7a7buibsC7IGokjAZidZXlbDFxgJN2J/Slspx5ANlgxoNBoJ/2VAtYWMocMGlHeNQJ8TPd9xk3JMaHe0rTLEcFpGeRc7RUuVkO4txiVj+irzW73Fla1gPLvjP74VlsW80EXLmwAPTXKY8b8oo+DoUbKgIPR49NWU71ecpnX7kwlcaBnDzA6PjzyDAOX4H70IKVauZiSxX5uDuHkuZmYV+oFi6dZDKdbt12VtbMo7Rwgs8QvvoDVgJ7ar2kGv2wYB1tFjd7Frkm69EHl61MMR2bNJ0pkxKZMy2G3+qfiJlK5sPzOPjwIS6+fwnf+/Ihlt+/k3rg7sONZP73EV5c14ATSEhfQUGK2grqqGXXFnWgywWTGNN4iIONAJOYAhxmH//71m5macNlLprOxa7ta6b5//x8PUJ4GRlBkIDV6hX+CzX208whfrNWBp6/OhpJi5XK6S7qCVW7UNSXpZJVpKvqbXqjYye3ZB7zs3Nx6MdPrjKZq11fKdvKjABoN7lqlN1omEwg/TC1clDDYfBcTqnZYWXbQhh6od3s15RSXGUnw2SxYKc3NBq2YrreS6vIt1o4U2142vPWU12opZa6x/Nv/rCA+UVNNJPCnCVZ7PUZ5+o1XtyHvt5IMQnZuWzLLmeWd7aGPYjghYkBOd5c45a1qcVDGPer6a/zlSu4Y8LgHG7PWx/gfNysBiwCZNq4AiH7eafFfxCkvkwLvFm7FihZWX0UGc/NWXfyv/eupXj7NTx/mzJuJeaKm1gYv5sNjy/Ddv8CLv+CDU43887mZ6mJmc4U9IU7G1gzv5zWm67nm8lxSmzjdDPvvFrOjujp5FzrHgsz5bLriXthLWt+ngDXxGMDYr86lYQgq8z1JVDmb4rcsHINZ1DfV9dTa52+9tB6WOXnnG4ha+7M4M4I2balVP28xjOGeAtYVBYwzwRRmXVqBJi+1SrXkB7Xca4VB93kXkgLgGjbUleOI7uU+WUJIQSZQ+nNDmHqYkNa5ozKNXVqgGuxNnPMKpg1qQ0YpH26rhxHNpRuyIKF+5lZchV7vYNVg6DVu1CuVuQ7u4BGe61hW1cr5Ox7rQo8fNdFzWD1DbSqs7gxj1JL+4va7gwkPpGMe2KZEtnsGQQBbMmLeP4V1OD7ZJ4qg+WLy6lp2smadcoyCSn5FH4/0RVvb3ytnB0d6h9Hd7Ji6U6ft6x/+knq1X/HzUz0yNZ3dvgsLoSpkREECXRDO5iZIENKEDfQuhtR7WbKu0CtaSN44gRiJ6o3U3XqrBGAEmjyOjm36GoxXLkPR7aVGzjPglP1fpYcburL1Ju+IG5wtYt1aQlkZWcoN5p9uuHQp0VXWjum1GO0viwVhyNAD4zXjbh7qI1S9Kz+QC2utGnX7CIZOBrVRp2rkedVV8PVq6dsd7W23SXz2Jat7+XThlr1tcbHAB1v+qwJNV12ZWMzg9Zo9abvTd2Sy5orDT5HSEHJOP/TLxuu313Mzpv7xsjqzb2/YTNBmjyPzJs2kf/CM+yYWczN8YAtkbuKVnB22Vq2Pl3Atg6IiZ/BDXes5tlr2nnRob/RTGDWdyez9fW1LF/XplTVHx/PtOm38dTz8zwLo160gKcebmVFWTn5VU5sE69m2S+mWh8WGoYAsr8pco0FP/Wxfphkmjau35Gru/kOPEzNY2hYoTqFpb83NavVcobwDmC4A9zKd+cx247JTXSgYHrImSD6OkXBBCF0GX+eAS3v9qC7NpG273jsp8mL1CGYwcw8pbZVAvS2+9vuvl2H3Fkfdvt0V7Df8vGrz3obBK59pTqF2BZ12hFXIdEBzlDxYFb0FKCWmhqDti66Qs4+Eg1nsDNmVHtIa5MFMfTW37AZD5OZORvMS+o7af+oiZp3q/jtxjd0HRnjmLb4MQpuSSRGl6GYkHIn164r5E3DYIaN2PhxtDep1zASufXLrWx4aR+dAK2H2KEuOe2MDzSLgXBGBEHMx+VZEGD8oF7AKTvDkg2i1F/wNyNI3+inFfY384rnci5GmRgePIchmN2s1JelkpWdqsyO4a9Ak74HglpWrqricq3x4NOoSaQ0vYKsolXsutR3Glktat1ctUppxCzRva/p2GNNMDU0DJjdWAfBoxCnwZzxgQqPum/SgitW5pp2ODlRbcRVQI2FCuNG9FkaIWQaKCnSDaxxZOAo8n/B1t+UutOqfXtMtCE3xXsaqSeROHX6Oa0eiMeNjFGWgzpOdn6R5z6Udpu78T+kj7dJ8dhdBV6t7UsDRpee6+5NTQ1D72Yfrxse5+cAvwFg+vta7nXzvDmMmeEburkWOEA9LPB87nvqfwD8dS88sheAXIBM97J2vGKbJxthR5nyn5cpwPPaH8fegpve8rvtBwDmWgo3+Sj12s5cgMcWwmPuZW4FbmUVzDAvtqIskwO/sraNdnRJgur752rvD8B2mOE1Lt9LjLaOX7nf19J2ZIb2XYWDle/SjOvzanS/k+d3h8d3Egzldwlt+0oBdhu/1t8+Wgquz6J8PzU+y7bvU8JbHsNkDOuv3cKu/AzDOkNmWTDBXrMBV3Dbo1B8kNyZbZVkJivnuaCGWQ4WfTtjsXHBWmW2rlQcNf1fwNV3+9SZD3VFT/WBs1xWMX+gslVcWZR+vgez+ySPGlrBcb5fwfKV2zl4pA3vOWFiEm/knqzvMmfyON8Xjp9BRt4iptkmc2HCFOLGAbZxxEQD3Sc4+EIODza1ARCXvogbLm1nzaObXMEPTWzM2SFttxhZzoggSNCFUfUGbLiJUfRVi942sMahHx/dn1XErUaMg4ksg/fYetcwBBPuXmqjKuL638rzufqyVKXxcFsT8/U3R7r1lpJKlusC4n0TaufYxlLfVPkQa4KYMW7MhJIOrAvWaLVPjMbSB7pZVme+CDoFXa3DklaibYNRho5Vym/Z9+MtwL6pbwBVT1D+1vdAGvQExqYsp1C9wVRKRrrTj60M83EP2VGHZLh698+A481V9V3dr9KLQwpQ9YuJKWSkN5GxWD021f2vviw1QNDSgNcxHlpD3jvrQAuABGpIB/v7CiHORGa1TNwmmGagBTuk1B/LhXz9SJqbRVqCXW0zqNvdUkX+wuADyP0ROPEoap9erAyb1mYnqq4MEFzWfR5Hqu/Mbv2mgTXqzHSZyeiCEPrAmW4IcFCF0fEJWNjzlpi/tsVkVjtv/XCfZLsohTkJa6k5oj0yjoQZKWQsvI1rLzIIfugkzJ5nmi0Xk5BEAk00Rt/IA7cnYrO1MUU3fTNAzOyHuGuG//cQAiDi2LEPegd7I8RQZqUX1MLr0ff0+gY3PGhTE/u5qLqmWx3oCP+w08aushouXzyAxdxk+JkfYT7e+mMTRb/TMkG03mchhC+zWebCaWgei8p5fu/sIZ6xMWLoiuuet12pUaLOhOc9jNVbX2dbGzoa2Hb/M/wWuHD+Y+TMngBN+3jx4Gku+erXSJoch827MHeoPqrlzfapXHuRUkmk/eghDv87hrgpccREjiYmpg8VvcWIIkEQIYQQYggZmjdeQow8ciwKIcTwNGqwN0AIIYQQQgghhBBiIEgQRAghhBBCCCGEECOCBEGEEEIIIYQQQggxIkgQRAghhBBCCCGEECOCBEGEEEIIIYQQQggxIkgQRAghhBBCCCGEECOCBEGEEEIIIYQQQggxIkQN9gYIIYQQwpxtzFjOOutsRo+2Dcj7nT7t5OTJz3B2nhqQ9xODbyD3Mdm/hBBCDDbJBBEiWHXlOMoa/CzQxq78VBz5VbRqyzvKqR+gzRNCDLCWKvK1412vrhzlLCOrAAAgAElEQVSHI5X8qraQV20bM5bx4z8/YAEQgNGjbYwf/3lsY8b6X9DyuU09J/o9b1rQcYLWpiM0O3WPdTdTs2UtL760lhdfPeT7GwTtBPWvqet7rYH2Pq9v6Bvofczy/iVEuLRUke8IwzlICDFsSBBEiCDVH6iALbl+Gv8TOP8C3fLEk2OvIMvvzVADa/w9r95MramzupXK+hzB/md0Izdg1BuloRIwCtRoCrpRFeA3NtFaVTB0vpM+qC/z99kD3yTXl4Vp3zALWHgL9pirKWW+yfYlnDchuG3UOeuss0N+bV8Feu9WwE4FWf1wY9HeUMWLLz3D8vsf4L77M/mOIxXHzbcy//sPsPWgOwrS+OpT5JdtYsP2I8RdOZVYP+t0tp+g/ROT/zpcS3Hs95vYsG4TG37fiNPP+vpF0Of6vhusfawv76ucFwvY1RLGDRrKAna+DCB/+6h6XQx9//XqRFLVlwXRPlG3oS/B5/6lts9MPk9Y9u2hsr+E67dQ97m+/Xfmt6NEeA3D4TANrHHkso15lFYvImmwNycs1M9kz2JzYYrfRt6AqyvHkV0RllXZ89ZTeN728K4vxX3z0VpVwPyi2uBWkl5M9eJEj4eSFldSPbeK/IWlZDmayNmwnDkTzVeRlJxCUmEKl1cVML9oO/Up4dwvG1jj2ESCyTZ4fwf+1JelknU0bBs2MMK9/7m+qzZ2rSqlxp7FZq/fX9P63n5qmEepyfO+27qPbUDaebArP5WVNVa2w1hI+7JGt0/Xl6WStSW01Ziut0U5NhJKKslM1p5s4O0tUEOI+39LFeu3gD3vFt/Xqu9n8nV6bhvq71ZTy/x8wnc+nZhCYbWdXfkZls4JwRjIDJBg3zs2eRG5eU3ML9pH/eLEsF5vYzjOtnU7DYMQNUeawD6Z5qoC7ntObeh31LLy9lRW+iw9Xf092vjtigzT487oXB+KYI6pNI9jpO/rMxWg7TBY+9hg7tt9ZeV3cf2+fq5T1q7RDaxRXx/scRbq/uNv36w/UAHMY1aAfTcwtW3rcew101gDpCfo9tc24uYWk7Ywl/mO0oDHqnJtnk7OpaEHn/v1uNPaArf1V3s+9P0l7I43UQOk9aEjwG26wbVV2YcIcC5V2kxh2AQxrAyzIIjRCXU4SCRzQxaNC0sprrJbvqkdEMmLqK5eZP68doNi+TcJsD6gb4Euq69pY1d+hkGDWjUxhcKSJhwHZli+2YlNWU51iuUNNby525adyjb132kl60nYmMs2ppN2vA0mDqH9YqAE2P+0C5/1m1L1d3d96aVKo0vlbrC28c6eWqCWLIdR49Z3P3M3HCeQVFjJHLTAU/DBzWD3JXeDbjo5c93HYdLiSqoXB/HGGnXfxHKQLZHM6mJw5JJVNiPo83P9q+pxUJSBQ2vIaOeUiSkUVqegnRcaPbZJfSwhzrWu2JTlVF+qbP98RxOl1YvAT4NXf8y5GDZuJzCncD3krwrqs53pfPdF72NIpyYXh9f3bHqzNWky37xoMv9MiMP5m33UA1NuX0Hh3ERix9torirkvqJaS5kaYyKtfJJ2mhsO0Xyyjcb/qA/9p4mD7x7y/J3PmkRSYhxmt+8ex5R68+vvRlc5R8WbXpdCPUb1gVL7bPvQ6jwZBly/i9G5UHvMg9cNnLpvWMkSqy9TrvM5G0LsQAmmA81w2/WUgLZhQDpIrVWblM+luybR0kgjYNeds2ECsRMnkFldSWZdOY7sXNZcaXbT28DWolpIL+5TILo/j7vwBZGM9Xl/CaPWD5uA6SRMMnpWa8ubsLDfKp91HjmT2oAR2AYWfTKsgiDawWC5Z/ZMMjGF3Lz9zC9axa5Lw9fL2O+0KPCV4ftNlAsnpJUM8gk+eRHV/i5iNfspzi+lxuhmQL2B8+nR127y0oupXqzd3OFqMOlvGOrLUsmqMYqM+6PeoFww3AKFRtRARSiNIZ+gnXozrf1Zt52VZLG52vsCrQXP4onzeFxpOJI+Q7fPtnHsKHBBgtc6jG7mQ6VrZAx6Jlkit+ZNZ1vRJnbNDWKfrSsna4tuP9cyTbzPKWrj2dLQE1cQM564Fog1avAaHHOBTWBO4XLXX/4bgGcu015SexabC+3Kvz2OIYPzTl05juwm8+8mdgY5T88AGlijBkFi4xKIjTlBzXO5LN9+BCeQkL6Cp747lVhdVMJZV8592RXK/pC+gJmxABP45rKtzOo2eT/bZ7z9+Pc9gzfvV7BiqVeQ057F5sI4C8dRG7s2Kjc7Gepx3FpVwPzGBf1+7tX/PsHtv2KgWL4RrisnawvY85YMjXZf3T7lBvu8GvId5hl4NUbBY9CdF0yCFYEyBwJ2fCjtQ7b4Blzx9zhgvZPMmLXjzqgtEEZDbH9pbqwFexaX+9kWoyCxlczk1qoC9fuuYOXCCuNOy2HXKS7CafgEQfylSw8TsSkLSCvKZeWrDcw5Qw7qsEe8W6ooVi+coTXsKkx67k1c4PV3SxX5C5vI0F8oTdPxa2H2eqoLzW/K3L2owd34KhfbYAMgI0xLDXtrIO22cB8rSqppWkml9YCClv6qv3Hvt+3T3tOdgh3MsKj+FPQ5rKWKfPW7VvZzdZhSejGFXse/ki0yjwz94/4CI4GCmJb4yXrQWbnQaJiG21D5fazy6SXVeo+DyDioP1Dhv3Hs1Op0tLuyPZwdrbS3jyNmfCzQxJTb83lgfAV3pJVz8yOPkWmfQGtNOfmPqwGQlHwKv5/oytqwxYwzzeAg3NU/6razssYzWN/cWAtbav30YveVfn88068PAXqJVX6PraF6A2S1vaqe/0gv9j0/GLVFzNR4ZjRakWD4qBrYSy9mTnIic7zSEVurCpi/B+w1tWCfDrOXmJ/X1GuiWVDCMAPPiD64r7YPDQMQQWclB8P6cWeY/RIu4dpf+sh3uK73/heGc1NdufoexoErLSAVzg5YMfwMmyCI1gAuNW1INrHj/kzeuXk9hbPb2VW2il/9poFWWyI3//BBHpgdB91tHNz4DKtf3UfjJ+NIumkJy+6fQZx3Km3LIba9sJat+xpo7bARm3wVGffcz82J49QF/A3LUU+Wn/2A50tuJEFdd+u7m1j99Hb2Np2A8fHMTH+IZemTvRpsWk9q+Mdf9w+1pztsEe8G1iwsDa4Og4++DYdRxprWUuPQ9RBP1GVsaMupKc4Zod7YmIwh9mwY1Ho2AIdqg6+/BagLYtojpRNMb6nSiJlHqeWbGK1H2Iva4+WxffYsNhcaNz+tC/5GKHCNkXDdUCnnsMZGpahmoBtmbRiMz2/oGlYxTzecRU3/9Q5KGgRMPATYf4wb49r3MYE56tAmw+0PFKwMmHp+ZvC8/lopgKf1hnpnQbm1vvWkzz558OkH+M7TYM97gZfXjSF2Qju7flaPs+ME2/LvoT45jsN1aoZISj6F2brrd8cJ2gPEOS7P3corkc28+fgDrD4IzF3OK7cnAbrHLHHfLOrPK0mLi0nbksu2jVXcGu6sLP1+P+hZX+FjFiD0P9QxwHDWQWatZoXa3jGsS6UGgwGqbgkcQA3XcBg1sOfTOaRu0zt7akmbnUVjTS0JF8SzbU8NrSkm72uY0dGXIe3uOl65A5n5FNRxpw2jnd4PGxLG/aWPXJ17RvXB1AzAvtDaK2kllcw6kEpWfrzH9+4KgEgWnAhgmARBLIxRbG/kz+9DnO0wa7LX0nrtLSwrWED9q4W8WFTBrOQU6n+ylLcTvkvmshtpr1tL8bpCXpy2lWWzx7lW43x/Ew/mreXwl67mruw7mXJOG/Vbn2b1D3P4Z8lqMpNtwAQSpgEdSg+WPpDhrNvOhhobNxderwZAnNSXPUDWluMk3XIfhffH0vxWOavLcvnFeevJmTHO42PEnhcPVPB23SKShsrBHag4pcE4cG/WCsRpvUIVPie9gaKc3NULdXZqgMyNJo61QFIoN47+GgjDquivkUDZOkaf3/NG07jWhtYw9uw5Cu4mtJl39tRiz1vAsfxyKLTwO2gNRy/1Byp0gSttuID5TaFVrVWrlPcL+kbIZL8KQ6NFLzZlOYU+jyrF8OyzPQcRJS2upPrKchzZKNtW5/vvt8tS2bZFv+2+QUm/AtU18qa+7/kBj2s1CGy/ym8q8MD6F28++QhvfAxMzeaJO77a91WGlIWZqIzvD/lNxxA7aQIwgW/evYTDjYXsOHqC+rojwDhm/nAly26K97j21q+71WIhy1hGu1NHiBk/DtA9FpAWhJxHaaH3zYjWkRHe+l4edQgGK6vo492sfHITH+seOjflcXIcXxj4bRkApkNZdYzD2VZqVrSxK1+91hucw+vLMtQso4G8yTMJ5mtaathbM4+MJbAe4MoZpG3ZxDstKZaD533JklC+k3mU+gxR7T9BH3cmbYG+G4r7izvYN1M35FEZIhpv4fppRjl+XJ8leT05+RnMd+wnZ8MCGhfmqsPlJQAiAhseQRDXrAt+TkBNR9gLULKTu35eTOYFSotm2ucWsOveTazOO0Tc/NU8m6I2wqfdyQfrlrHtr40sm62ekDsO8eJjazk8NYvnf5zi6mGaNm0yMdmZrP7lG3z75zcSx9mcPQE43ko7+t7OZn79ywqaE3/ArXbl/dv3rOLBLcex5z1Hoeu9bfyzahm//nsjOTO8LgbJM0ijgsYP2yB5KKVPGxX9ajIsBOZxcrJ4E6qN/UsrKYZsLRiiNDb3zg6m0dfH4TCAu8jjPmaZvK8WrDJP1Q2yZ13rbRhGPXzmhnKQJ07p+W+pIr+ogpUBi3yqDUf7dCVFWKPeOKaVeFbEV4IAzWHYzunkLDnz9pNQppKdtbiSzMXKtIpZFxRTvTjON9il8qxl4X0MGlWZ9x2mpjXiAlKHO/nLdhhIdS/fy7pD4V6r1sPoLwszNLHXPMQrV0Drnie5++fKsTPt/tUUXBNLa9MhdjxXw2/37Ke+RZfeETudzB8v4YbJE/wMewlEnZ0iVK4bHf/Xmhp1prA40yUs0oaIDuLwl4+rn2Rl1d84N+VxntCCHnWbWPqrR1jaHKZg2xDj3dsduDCqSqupYXqjrwXRTApbqjUfghoSHIbhMK7guon6V9Vhiq7KWYnMSq9l/XttzLF0btCyJAIPHwQ8M19bqli/ZYALgQZ93PkGkQJlYBp/D97to37YX8JC/T29hjwqNUKu6sN5Twmgu01gTmExjY5cVi4c3POgOPMMiyCIleJzzX9vwAkkfX8RaRfomkcd7TTjxDZtkTsAAtDtxAlMmRjjXsdv1rLteCIPPJniOUQmMp4pXwe21HO4/UbiYsYROxH4/XGacQdBnDUVrGmII63keuUE0H2EHb/cjdOeRa7+vT9qoh6wJxj1I8SRYIdtjc2MmErI6tg/e956MpObWaN76vIlxTQuzMCxx2pwIEyzw5BIZrW+wJ9JYzfotM4a1jhKPW/E9Os3acycaTUFznhaYU2zKvVaRkfddqV3akM86xe6Gzut7+33TNv1qF1hHgQJZtq+gA3JoTR8SrsxMD2He95Quv89T/mfGnDwziTx5qplYZTd0hLHrdXFbHWk4nCdJ5TzbaNuMcsz8+iLQrdUkf9qAoXe33cYpg/UbkA9nLuAnIeu5lzdQ8l3PMcTd2DYYx8q7cZIywJprSpg63lLlBsoo7H+HlmBARqrtnHE2Jp5s9p93DT/rpbD1y0gicNs3b7bdaTETJ5KXNshDrfWsuap7SQ97XuOT7p9K6+kA4e3c/fSTbQCUxYX81SK+zpri/F8jc0okjIuxn+AxUpmUUsV+Qv3c6yFvgdBNOkL+qfhb7i/fIXrH3qIa9Ud7FzHQzzh8Hpd8gJun7qbdYf+SN0dX2W4d8paC+C6b4QbjwM+v5eW7WlybGg1H/xM3W6or8NhXLU29J1Qntv9tiuo7z5bJl05j5psi9Oi121XbuTz4lm5x0+mrzbjkn72GIMhyQPG6nFnkAVidi2xPqtdP+0vYaF27OTp60RpWfvhma3Koz2kn2xAa/uMiE5D0RfDIgii8Jde5aTx8CHgRjJSPXvwWpubgDgybpju2bBpOkINYP+S1ipvoubXDWDPYuaXzN7nBE61Uyr2vKnQ4cTZDUQC3U38et1OnPYsbk1W36nhLdYfh5t/eA2xgPOTZg7/ficvllVwePIiHvAaCuPhaCOtJA7/g9tnikH9DaJ72rRZZanMd5T6TYELblpR/2P9PbNQzIeuNCZ4NnGVm4TlXtuoKwBX1ERGdaXaYHDPqFCaXhHSVKojmlnvl93Ca02KtXm8NPkWcuwVrPQzvr/1wybSSpaTRJXuUS2dc7nrNUraqFdRTwNWpu0LflrgwRc4RXae6XAY0L4/vFLSPX9/v+mxuvW6pmF0lFNaPUPJCpgd7CdyzwwyKxlaq/ZTs6UUB+ENPGkBkOTvPcftrs/2V9bllbDy5S/2bw+8qzAd1BStYk0jbNsCaSXqOTq9mFJyDc9bWs2kQCnRzrqdbG1w/91ct5YHf3icghV3knnTcf745ev5tj2Wwy8/yQrtEGuqIOtmz6C0dv2IiYbGplpaAUhkjj2B1sN72bUPvv3DFCUg4XQXYp0WZxCimBhLjO+jfhgUvdbdtLUGta4BpgVAvIZO1b18L+ue3MS5RQv8BjfOjfsKHGrk44/BIyI3YintivPLUsnKTvXs7HDVljDrqNHVRBvodsDxJjDohNLUl+WyzZ7F5mSgRfdE8i3k2DNYH7AOhZYxmcXlKQmkFZkNo/GdccmThWK6fmaH6b8hFEoxddKL2ZywiflFgV8R0FDeX8DdsaGve2Mlaz+Q98pxFCnn97QS3/aQvp3fWlWgtAHsWZQGfQ0XI8GwCII0N9biPz25icM1wE3TmebVhdN4uBYm3Yn9Is/HW//eQDNTmXK++gKtpsj3pxieTJzdAPHEqU/GxEwAmvhnK0ybCO37NrKmIZ67nnOfjBoPH8IJ7Mifyw5tRePjmTl3BS/fNpVY74KsI41PAMScu3ZAqmdRrUD1SoLguR1KlLvmArOMHDVjR1cYzJX6aHffNCuR7HmUVheDI5dGbVy9buhQdXIDaxzhip4b114Ylnx6AYIolhdoilwAJjBnSRZ7F5qP749NWa7UPdA1DFurNikNRspx6NPl+5QieibTpjJeEGIqs3sqZI/6KgbDYUwlL6J6QxX5jlR19oBFVFcDNPB2KJukZaZox3PKcqovrSJ/YS75CeHK2voXdX/8G3A10zwa7l/l9qLnwrB+P1yz9mg9w7VscxWAbWOXuljSlfNgy36vGxqLv3d3kzJ8VPeQLdqGs6mKFc9/g5cfzmdmSy1rHs1l2xGrM7s0cbD6iPLPxGuw295ixdJnqCeOs29IYeFFwCetYRmQNhx8fKiGj4HkSzyDaa6sIr/c++e5fQiA1BjU2tDzm/FmOJw1zNRsrmDKWSctXk/O0QxWZpczq3oRSbqinsbnLK3mg+eQh9aqAorxMwOLpq/DYZIXqcWlDY4M19BOo+2ewJzb5rEyUDaIlgWyQVnHrXkwf1UVl3t/F2o2hXn9IT+1hvp1dpgAWhpp1LIxqgIvHlg/7y9h0ArYqWXlwnLOV4M0YZkt8lLPTkePIUVe34dnQGR/H95UDFfDIggSlxCg0nJrE38+DvakKV5prE00/h9gn+xzAWs8XAvRCzhfSwTpaKcdSIg1alKr67km0bWemFhlCr/Tp1CGvfxqN1yTz82T3a9qbzkCzCDziRuZcvYkpkyKJWZ86COZhxPtxBbUMI/kRVRXz2CNIxeHVijRQmqy1isZVB0KoylPPUzg/AuALU1Ks0FXzdpztgAtku2+2XIHRtSMEKOIeh+FUntBGJiYQkZ6KVlFFlN+aeOdPSj1OiZCdfUidyXz24Z7lk8bu/K3c753MVltKtFQpwoO11TDau98fVkqjrK+NJRN6mS4hlBlkI9yXrMylNPcF0i+5Cu8UbWbdXm7w1fo1ILW9/arFf8bWIMSIM5ozCBrVRWXFya4A63JM0gjl736ugAWf6/Wt8pZ0wDMnsHMPfvYC0y7dzkzW5q5JD2JxnXLuPulQ7QDjJ/BA0UPcrNuqGtzZQF3lChjxGdOU9+76RC73lf+meT4BnFfGsMN9meor2lmffUh0i6aiu3DJtfMQqGcJ03H+fvczCtBo8uDfoeBc+5UO+dW/Y26X93LUq7m9gCZHx7qfsMbH8O5Kdf1aSjMUJ0dxntootEsUuaBETU4UFPhypIwzzx1z/aVVuJZw2hrUS01rGLXpQGy/sI1O4zRtplMWe6iZoNkmdbPUrIk7HnrXZ8hNmUJOXsymF+W4FH3QxvakXumDf2dmEKhWg08PJlf/by/hEFs8iIKtfaNo4K0vCwagy6gbeF99BnedeU4HKmADBEX1gyLIIjCz0wcjYepIY67vux1QKjZHdO+FW8cHLnCNzhi6P19bH0fZqZNc6fJToxnGhX88xNo//t21jclkrl8hkEa7SSSLpsa/EkhDLNIDE36E3goqYmJruExRjPIuAMMfSugpdy8+I9oK72gWi2D6eRsqFQvPP4LunoPeVDeq9a8xyuYng01eMOBBjKTh0g9iP7Sl+EwQUiam4UdiGsBJgbKtJnAnMLlBtuUxa2DPmjeXyHHPk7pp8ts8my4ucfIb/NOD/ezbR41QcI8HjxpcSXV2h8etVos8tdbmbyIzXlNFIdlS9VaDFPVIQuHSliqFT41qAkSTq4MJ52kxcWkOTbxTov+qpnIrHTI0mXEadPpBhr6RTc4sXFz6vXY9uxTHotMYM4tsPruDHao2VUxl91J7nWtbN3wBtOybyQhGpr3lJJfUgvYsOfdxxw1yHT4dxUcBmA6N1yhHKOzrpvBypp9OF/dyd7bpzLlqPYlhhac8h12aTAcRmdID4c592pyipLVGYXUYBvgXRPEx8e7Wfmr3XDuAm4PeXYY7wKIwQg0nLXvXNdpP9OA+t1/tOGUAeq7mc/soRVoz2WlUdbEAFBqAhnNgqSnZUwaZ8G5htJ4PO79mubBHdpxBhlq+4s7S7sUwlhAWx9sds8UE+RMb2LEGxZBEG0mDuNCU9B49BDwDaZ4j5g53MCb2Fj4Za8bFjU4MsWR4A5axE7h4knwYs0h2lOudj/e3cyOl9bSHH8nBbqpdBkXo5xgupp4c9tuuGk5N3i9v5LBsp+D7y8iyWs4DlotER/DeziDe5qzvgUpPG5kNH6ncvR3A+hbjVupeu1/+IISvDB6faChNJ7Ma5mowZQE6/uCko6IOi7WehVtfa/XGTP1WF+GwwRjYgqFAep0mFIrtxunEg+0/piVRzc0pbrSZOq+6eRsWAKrMlhpOu20n5ogpkPevIJgZsFCC0Pmagx6eQ17miz0VuqnCFaGcs7rw3SBqDeqV6t/aFPgbmLlk/RrIMRXIpnVy5XvAHfgKGluFvaFpWytSyFzkvXpdGOTpjNlUiJzpsXwW/0TMVPJfHgeBx8+xMX3L+F7Xz7E8vt3Ug/cfbiRzP8+wovrlELoCekrKNCKjnfUsmuLms5/wSTGNB7iYCPAJKYAh9nH/761m1nacJmLpnOx63dppvn/+vr9nKm+wLUPPce16l9aHZo3nnwSjAIhrkKqV3P7gO5/FuiP9XANizje5DMNqDVqtqif+m7adVcpCm+0DveUyx5ZEz7ntOCHw7jPeeZTp89Xa1slGdTicL9eaWdoWXBrznO3H5RZ/9zDYDzoMueUDKoBnv3lDBTy/tKv9LPiVBh2TobC3S5uYI0jFc+6zEN5hkExlAyLIIj/aWNP0Fh/BKbdSIJ3PZCjh4CruNA7OKJOp3vzBbonIidzw/ems/5nq3jwp63cmjKZ2E+PsGvzWt78aDo5ZQuYog9axMQSCxx8YRU7GhLJXDrdp6J87OwFpG3O5cWHl/HZ4nlc/gUbzn8d4revv0bsPVuNT2LhKCzkol64hlAFZSuFH0OjpagDul5JtyBOmq7x/iY1OlwNkHmUlsSTlV1hmApqDyJ4YazZT9FG3140d4NjOXMmKr/9yoWp7FVv5gwDR67XKd9PXFUB87MLSDiDim4OXe5iab49NqH2gIYmuKLBFh1w1/Sp9gkI6Kf1U/elwvWQn8HKIvdwEVCDif4Cjj69P0HWBJkUT05JJXN8zrfB1hYJthBdG8eOBlwoSF/g2ocehycf4Y2PmxmMepQ+RX4nppCbt5/52QU02muVcexWegPjE8m4J5Ypkc2eQRDAlryI519B7SiYzFNlsHxxOTVNO1mzTlkmISWfwu8nuq67ja+Vs6ND/ePoTlYs3enzlvVPP0m9+u+4mYkemaDODp/FwyJcx17fryfWnOt4iByUQMhH3juYPgASzNCZgeCqY1NJ5qTw1efR6hwEH8hUj3/DrF53RmygtH5t6MjKLbqZyvq9R3yfawiLcu3S1eIwyowBmKhkwWnth8vfC1TA23tK2VrTjs7BNFDHnX993F+8KMGU8Ew165mZorQ75zv2h7Fwu28dGKUgaqrMDiMCGjXYGxAeSsptzZ4ag9TSRj74PdiSE7wa0Wpw5KIkErzGqCjT6U7nQq+xMLHXLeflJxYQd3gjK5Yu48GS7TQn3cezG5a70m3dJpAwDQ43NBCbvogbjGaUiU4ks2gFmdOdvPl0AQ8uXcaKzQ0w8yG+PdlgecJUWEijpnrbZ4dnuqqhTJvKMS0vC3tNKfMdqTjKGgK/0Ghd6kwU3iny9WWpOBypODbGs7m6kmq1JklpOrAll/yqNmXBlkYamc7Mvtb4UGuFWFlPfVmqV4NDuXBszpuuFJ5zlLsa/96Ued3jiQNiL70Ku9YYEb4sD5/QCpfNozTMvTFaoeg+ZRf0hVoocNsWKK2uNM6WcHgFQAAlhX09OXa1GGJZA1rWVX+doxpfLcCxsInzzQIgNajDqgrY1WKwAhetJzSIYGrAIn+B/JV1efey9OW/ej78cR0HPwamXjIIN6Fa0dMZBp+plpqa6Uo9HEvrmszM2Ubcxn0AACAASURBVP6OIyftHx3hzdeeYfnDa111PGAc0xYXU5o9w2Mq+4SUO7k22mxdNmLjJ+g6KhK59cutbHhpLS++tJYXS8pdxcun9bUDQh237nCksqaub6sC8+tRONS9fC9L8zbhuZkmBXnrNrH0yU18fO4CcoZaAARcGRsJk4CJdmbaoaaxryVwtSk/QziGtVpI3nXFXOfH4OsabMs2v44r57RUHD7nMu3xYNpEM8g0OrcHEJuynOrq5cw5Xu43AKK0pbRrRCXValtlW3bo7bZw68/jLihh31/U4Jz9Ki7vYxtC6UDTZw8r7c7SdKVgqvbeShs01eO/LJMZfKxQ9rNKqiUAIgIYHpkgaPUX1JRbr17Vu3ZUcpfPK8Yx82Hjnu+41BVUpxq/T+xlCyh4YYGFLYpjzlMWxqTGTiXtR8WkWVijdsE1bmCGQG0UhLPgZmjbEFxl9WC5Ck9qJ+KUFLW3Qj9VWq2f4TCq9GKqF8cpjXxXIMqzholRFourErxHYbx5ZEzEK23Vz3hJk5R9fTExQwGmUVN6IZUbuCxHheFQl7iE6e4Cr+/tDzH1V2FaNNCDv6FJbp4XfKOaKWYpwL6P++x/VqbINaDUOwj8/biHgQS+YVaCUGaZELqbdZ20kv5NBdUagL4ZaWrvnWGquW5bTVPRlUAI+atgbiLUlSvf0xL1fZK1WVv6uP1qnZ1tRvWBXMeMbraT/Axl/zLa7oBTFWI+5Ca9OPSe6DqYVpQNebpaIKpzUx7nCX0thrpNLP3Vbs+F9DVEwlVU1aDIrT5FO5dVzF9YAH3oBXS+X8Hylds5eKQN7zlhYhJv5J6s7zJnssH08uNnkJG3iGm2yVyYMIW4cYBtHDHRQPcJDr6Qw4NNSqA6Ln0RN1zazppHN7lnblPFxpxtcUu9jk3t/J9e7LeX3m+xXNe+5sUnmywc/gqXPMft3KurBaI6dwE5Re6hLtoQGeWPTazM2+S7/GAPjZkUj10bNo2azdnHYcWtVZuUwKd3nYsD6nSvXvt446sFOLa4r3++wxa0bDJFoJlxFGqgAGXf8JiO1mt/SSuppLqwjVaPIIi7fkprVQEOR61uvf2U8Wl4HtcPqfF9by1jSgmQ4NnLb3ZcGPEzRa7C3zXBS78cd8EI8/4CuIbc93E2Qp92t473hABGwZv6slSyfDIl/dTGs8TfLKJiJBo2QRBXkamN7ulHhxvlgjudnLnh6Tk2u1CHhdFFTkvRrPOeGrT/ikKaFkINuZiims2hZkZYK8CmLHO5LgDg6jmymrYabHqr66ZLueAV+v2Nlej8rVUFzPeeYhil8VHamOoKTKSVVIbcMOqXYRdAyA02s0r4FqbINQvoeFZkN1BXHiDV1Hd8tXmDpP8LAJoFWowbgCbbozUi7Vlsrg50fnYXj209Dml5Szy+J319Gnve+hCCPUqVfJ8x5qb1AtTP5Aqc6n47q9Mu9kd6evJXSQaSrUyHm7yAJ4qsBO/7wmt4l08wCUCbKjiVlSGO27ZdlMKchLXUHNEeGUfCjBQyFt7GtRcZBD90EmbPMw24xyQkkUATjdE38sDtidhsbUyxg/7OJ2b2Q9w1w997eN/IVVId8Jzke7yTXmx8bghzEWD/vkpyMpAceDrccx0P8YTD/zKDzlVjQq1VkV5sMEwvCC1VFBfVYs9bQpLPTbJxnYuEucsDDPf1M8VrQMpMZesB/T6VVlLpNXPLBGJN9kmfmTbMAr9hZSU47qbdQNeXpSqdGWowpF+PiwE97oIRrv1FJwyzEeqHUPs/v5sP/TUenh16YE6bTUoIvYhjxz7oHeyNCBvthmY4To0U9s/mf4YScYay0itt4fXD8hgSQlNXzhoWKTfrHgHDwA0s/1NzhkfMDCWM1L5vFxPPPa9/3sSilo8/9POsbuaT87Z7Fa2t8Jue7QoiBrzxaWDb/c/wW+DC+Y+RM3sCNO3jxYOnueSrXyNpchw2wyLiIfioljfbp3LtRcrAmPajhzj87xjipsQREzmamJjhOYX9YO5j/vevwac/Ft3UG/cLLAYI1Nli+vOcIc4MVq4fA3GN8bt9e66SWhpiRBheQRBwN2j7PXo9kIZeAVMhhBD948wJgojhQIIg5oyDIEIIIc50w2c4jGZYzhPdl5Q3IYQQZ6rTp52MHj04GQinT3tX3RDD0WDtY7J/CSGEGCzDZHYYIYQQYvg5efKzEfneYuAM1u8s+5cQQojBIkEQIYQQYohydp7ik0/+PaC95qdPO/nkk3/j7Dw1YO8pBs9A72OyfwkhhBhsw284jBBCCDGMODtPyQ2j6FeyjwkhhBhJJBNECCGEEEIIIYQQI4IEQYQQQgghhBBCCDEiSBBECCGEEEIIIYQQI4IEQYQQQgghhBBCCDEiSBBECCGEEEIIIYQQI4IEQYQQQgghhBBCCDEiyBS5QgghxBAUM2POYG+CEEIIIcSwI5kgIagvS8XhSMXhKKfebKGWKvIdFpYTQgghhBBCCCHEgIg4duyD3sHeiCGtpYr8haXU6B+zZ7G5MIVYANrYlZ/ByhrvF86jtHoRSeoyrS0TiJ0I0MAaRy7bQt0ej/cWQgghhBBCCCGEVWfQcJg23nz0Llb83klaSSWZySGupmU3+Xc/SU2HPkgRWMD3TC+menGiyZNaAAQgkczqSjItb7AQQgghhBBCCCHC4YwZDtNctYriQ2Dry0q6m9n181Uc7NtahBBCCCGEEEIIcQY6M4Igx6tY/XQzGbff2KfVNP/mWX7x4QLuuilM2yWEEEIIIYQQQogzxtAfDtPdxI7CUppvKqYgaR8vhrqepp2sKGrm5pJ8kg6sDfrl27JTfep42PPWU5gS6gYJIYQQQgghhBBiIA35IMjhLY+zun0Bpd9NxPb+vtBW0n2EDQXP0H57MXcl2zh8IPhVeNYEUYqbNoa2NUIIIYQQQgghhBgEQzoI4qwrZ8ULMTzwwp0khVzGw0n9C0/yYswPeP72xP6rBrIlF8cWP8+n/5icoz82mEUmNEoWyoTwrEwIIYQQQgghhBgBhm4QpKOBF1fuJC7vOW6OD301zrq1FL8WR07ZjSREhm/zfHjMDqNOg+szY0wlcwKsprWqgPlFtX2bAUcIIYQQQgghhBA+hmhhVCcHX3qKHefdxwPXxflf9JMmDr57yOO/+uNO5bmOQ7z4xE7i7r+POZP6f6uD08au/AJ2tVhZLpU1dQOxTUIIIYQQQgghxPA1JDNB2vesIr8yntznU4gLlL3RVMWDSys8HlKGipxmb0kBO768hJdTAgRSLDAsjNqH9bVWrWJlTS3299qYY2FYy7bscmZVLyKpD+8phBBCCCGEEEKMZEMvCNK+j18W7WbK3HxiGw9xUF999OhxAJr/eoiDnRA7ZSoJyYuorl5ksJpSVrw1mbRHJ9D47iGPIqaHmwGOU//uIZzEMuWyeGL8btR0cjYsZ85E7W99YdRmGmvAPjuIQEtLFcVFtZBebKGuxwTmFBbT6MglKz+ezYUpxFp/JyGEEEIIIYQQQqiGXhCko51/d0D9xkIe3Gi8yN7nlrEXdcaW8cbLONtbcdLAhp8sY4PhEvtYs3QfMI9SfxkWx5uoAWZ6PJhIZnWl8s+WGhqBhPOsFiltY9eqUmrsWWz2qBfiTyKZG7JoXFjK/LIErzojQgghhBBCCCGEsGLoBUEmplBYnWL8XF05juwKS0VDY1OWY7aa+rJUsrYECH6oWj9sAvtVXD7R5Pn39lPDPDIsFjFVhsFMJ2dDkBkdE1PIzdvP/KJc8hP0M8O0sSs/Q511xjtjRQghhBBCCCGEEJohWhh16GhurIULEkwCFg1sLaqF9BnWanXUlTO/qBZ73pKQAhWxKcspTYeaolWugqr1ZRmsJIvN1ZWUpteycmE59cGvWgghhBBCCCGEGPYkCOJXA29vgbQrjYeftFZtYhvTyZlrbXhK/YEKi3VAzCUtLiYNaDzeBrRx7CiuIE3SlfOAJo4FnHFGCCGEEEIIIYQYeYbecBh/TIqgBitpcSXViwMvpwQ55lFqNNRFLW5qz1tvOasjaXEl1QGWaW6sBaaTYDqlbyKZ1ctdf51/AXC0kVYSaT5QAczjfBkOI4QQQgghhBBC+DizgiADqo139tSSVrLccKhL/aul1KQXU92HrA7Q6pN4PhbMcJmkxevJyc9gvqMUpSaITKMrhBBCCCGEEEIYiTh27IPewd4IIYQQQgghhBBCiP4mNUGEEEIIIYQQQggxIkgQRAghhBBCCCGEECOCBEGEEEIIIYQQQggxIkgQRAghhBBCCCGEECOCBEGEEEIIIYQQQggxIkgQRAghhBBCCCGEECOCBEGEEEIIIYQQQggxIkgQRAghhBBCCCGEECOCBEGEEEIIIYQQQggxIkgQRAghhBBCCCGEECOCBEGEEEIIIYQQQggxIkgQRAghhBBCCCGEECOCBEGEEEIIIYQQQggxIkgQRAghhBBCCCGEECOCBEGEEEIIIYQQQggxIkgQRAghhBBCCCGEECOCBEGEEEIIIYQQQggxIkgQRAghhBBCCCGEECOCBEGEEEIIIYQQQggxIkgQRAghhBBCCCGEECOCBEGEEEIIIYQQQggxIkgQRAghhBBCCCGEECOCBEGEEEIIIYQQQggxIkgQRAghhBBCCCGEECNC1GBvgLeEhCmDvQlCCCHEGeWjj47R1XV6sDdDCCGEEGLIk0wQIYQQQgghhBBCjAgSBBFCCCGEEEIIIcSIIEEQIYQQQgghhBBCjAgSBBFCCCGEEEIIIcSIIEEQIYQQQgghhBBCjAgSBBFCCCGEEEIIIcSIIEEQIYQQQgghhBBCjAgSBBFCCCGEEEIIIcSIIEEQIYQQQgghhBBCjAgSBBFCCCGEEEIIIcSIIEEQIYQQQgghhBBCjAgSBBFCCCGEEEIIIcSIIEEQIYQQQgghhBBCjAgSBBFCCCGEEEIIIcSIEDXYGzCQjh8/PtibIERQJk2aNNibIIQQQgghhBDDxogKgrS3t/OPf/xjsDdDCEsuvPDCwd4EIYQQQgghhBhWZDiMEEIIIYQQQgghRgQJggghhBBCCCGEEGJEkCCIEEIMQ73t7Th37jJ9vqv2XZxv/GYAt0gIIYQQQojBN6JqggghRH/rbT9B16E/MXrGlYO6Hc6duzjx4MOcc+5Gouzf8Hm+o+Tn9H7aju366wxf33uyA7pOh74BUaOJOCs69NcLIYQQQgjRDyQIIoQQYXL6rd9xYumjjPr85xld+Yr11+3eQ/sPloT0nra5NzHup8t9Hh9z6zxOPf8SJ3+ygnN2bIOICNdzvSc7OP37WqLvzzRd74kHcvqUKWK76VvEPLMq5NcLIYQQQgjRHyQIIoQQfdDb2YnztUo6X1pH18E/ATDq858Pah2jzk9g7L2LfJ841UnH6mcYPeNKoq66wvC1kYlfdf27c90menXZG1HT/ouIs8/m1EvrXI/Zrr2a7vcPw+nTjL72atNtst0yl6hLpwX1ObqP/I3OrRUARESPDeq1QgghhBBCDAQJggghRB901bzLieyHiIiJYdxTP+XEjx4Jeh2RX76A6B/+wOfx7r8fpWP1M9huSmVMxoKA6+ncuIXeU6f8v9eUyTh3VgLw2V33EBHhVRoqeiyf2/8WttQU6x+gp4dTL6zFueN1iIwk+gf3MDbrfuuvF0IIIYQQYoBIEEQIIQLp6qanuZne06cZ9cU4Isa6sxxGfSGWcYU/xjb3JiLOOYcTSx8N29v2/LNZeY8vfdHS8ue8rmRhdP1fHZFf+QoR486C3l66//o+kV9TMka6//o+na/sIPLiRKJ/cI/rtSd/+hSjzvsSY7//3eC2sbGJ9pwf0fVOLZFJX2Nc0RNEff3ioNYhhBBCCCHEQJHZYUT4dbfy513PsjTjZf482NsiRF90ddPxZAltX/8G/7nyaj6Z7aDt4stwvva6a5HIxK8x5s4MIs45J+xvH2wQBKDnHx/y2YLvcnJ5IQDOyio+mTOX02/vB+DkE0XQ0wOdndhuvlH576Zv0fvJp4yePRPbt26w9ka9vXS+vJFPHN+i672DRD+UzfjXX5EAiBBCCCGEGNIkE0SET/s/+f3O53l2y2841gpwN3cM9jYJ0Qcnnyji1JpybNdfpwQHIiI4XVOrzJwSJt1/+Ss9bf8xfK6r9l1lmcYmelrb/K5n9BV26O6h/YEcIsadxVnLHgTAlpqCLfUG2hffx7inVnD6N28R9fWL6Wr4C3R1QVQUPf/+N73t7URedKHl7T6RX0DnyxuJmvZfjCt+IqjXCiGEEEIIMVgkCCLCpr1jDJcueIQnYp3c9tM9g705QvSZc2clEWPHElP2NIxSEuds37k5rO9x8okiTv92t99l2r9/b8D1xP79L3SsLKXrj4c4Z+s6IiZ8TnkiIoJxxSv4LC2DjidXctb/PEyU/TI+vfEWuo82EjnlK/T87SgAkV+1HsjoafwHEeecwzmvboHISMuvE0IIIYQQYjBJEESETczEWAC+eP6FxLKH1kHeHiH6KiI6mp5Tp+jcsp0x89M8ppkNl3GP/Q+9D+b4PN576hSfzb+D0dd/k+j7AwdBej76iI5nfkl03hIiJ0/2eO7U6mcZ+8C9RJ6foNQG6eoCm42uA+8QOeUrnH6nFmw2Is9PCG7jI0dJAEQIIYQQQpxRpCaICL/YL5I82NsgRBhEL82F0aM58eDDfPqt7+CsrILu7rC+x6iEeCIvTvT5r/voMXo7OxlzWzpEj8VZVU3EFz5vuGzkxYmMSojnnIpN2K6ezX8un03n9lcB6Dr0Jzp+/gw9R4+5iqMSFUXU1y+mc8s26O3FuWU7oy+7RAIaQgghhBBi2JMgiBBCmLClOBj/xk7GpH2Hrvq/0J75//hkzlx6/vFh/75xby+da9cT8flYRl95BT1/O0pHyWp6jh/3+7KoS6cReXEiY25L50T2Q3Ru3kbHql8w6ktfZMz3PCv0jEmbR9fBP9G5bhPdR49h+/aN/fmJhBBCCCGEGBJkOIww1/1Pfr9+HS9Xvc6fP4zl/Euu5IrLE+BPTmb/9A5kDghxJuj99FM6fvEczh2vQ2QkY+Z9m+jsB1w1PgKJnPIVxpU8SXT2A5x8ohjna69zsuBxYp5/tt+2uXPbK8qMKz/KhagA2Rm9vZ7DdCIiOOvH+fSeOsWJvGUAjFv5MyLGjPF4mW3etzm54ilOFPyEiHPOwXbzt8L9MYQQQgghhBhyJBNEmGhlz8/u5+XOWfzkxd3s3l1B2cOpxP1tM5v3D/a2CWGNs6qaT665gVPPltHz4Uf0NDbRseoXdKz6RdDrGpUQT8zqYoiKovv9D/phaxU9H37Eyf/5CZEXXUh05t0Bl3e+9jqfLbjTNZ2usrGjiM5+wB34OH3a53URZ0Vju3EOnD7NmNvSiTj77HB9BCF8RNY1EHmwLuByEf9uI+qtvdDRab5QdzdRB2qIMNiv6e4m8o9/IqLVf1WqiK6ugNvSVxGfthP12+FTJDyi6UMi6xoMhwRGdHUR9bv9RHzaPghbNnKMOtZERMu/zRdwOon8wx8HboPCJOLkSfPn/tXK6Ko3iVBnUfP7+YGI/3zq9xwS9Xo1EY3/CH1jhRDDgmSCCGOHq3n5jYuYu+kKYm3KQ7aJF/Od7Edo/sOfB3fbhAigp6WFk48+hvP1Xxs+37m1guicHwZcz2d33M3Yu79L1H99HUZH4Xz1NejqIuobl4Z7kwHo+de/+OyuTHpPdTDuZ4/D6NGBX/Pxvzi97wD09Lge6/3kEz67424izj6bqMsu4cTSR4mIjvaY2aar9g841bohnVu2MWbBrURO+Yr1je3ttb6sOLN09RDxqfG0zVb0fu5zPplWozduJ6L9JB2lP/X72si/fMDYRwo5uf0leqLPNV7mDwcZm1dA59IsTt90g+eTnaeJ/n8/4lR+Ll2p1xm//oO/MfZHP+ZUfg7dl01Ttu+V14n4xz8tfkI4fXsavdoMTCZsL21k9KYKOr7webqnDmzu5KiGvzLq700hv77rmlkQ7ZU99vIWon79W06+upbe2FjP9/v9Hxj78E849WgeXTd80/+2/eV9xvxybVDb05mVSc/58UG9xrLeXuj2Op+NwnK24IDp6mHs0uUQNZqOZ5+iNybGZxFb2VpsG7Zz6qeP0vXfV/X7Jo2uepOoqjctL98bMYpTxY95ruONt7CtepZTj+fTfelUn9eMavoHYx57ip7VT9D7cQtn3bME5x0LcH4vA6J8f6NRjY1+zyFjnlpN50M/pCvh//N4POKTz+gd79kZEPnuQUvBW4/P+P99idMp1wb1GiHEwJMgiDDmdPIBv+ftd47xrW+f7348+lKuS/8A5+BtmRDmenvp3FrBycdW0PvJJ+bLWSwA2vWH9/hst2dP7ugZV3LW8kf6spWGej76J5/d9l26GxuJeebnnoGWSKWh1/vJp76vO34cIiMZNWmSskxrG599P5OeDz/inG0bGHXB+Xx2awbt2Q9x9vhzGH3t1XTX1fPZd+8hYsLnGPc/yziRs5TPbr+Lcza/zCgrM8T09tLzz2YizjknLJ9dDC2jPvyIsxYuDvn17dWvwFljiejqotepZFxEdPdAdxecPOX/xZ1q721Hh7JsRITPzfjoHbvoHTeO09ddo/Qgd56md8J4y9vXc+5EsNmI/tGP6Vi1gu7kREb94yNGHf67ssCnnxL5/hG6kxNh7FjDdXQ5nQQKAzrvXEDUzjewvbSRjpWP+1028s9/wfbkzy1/BjOdy5bQ87WLiPrN29g2bQ++2HFPD/T2cuIb0+jVf++nThH11tt0O672CYAAjH5jN0SPoWv2jIBvEfGfT4l8511OfyeV3nHj/C47qrWNqMrfENF+IrjPEYzuXmL+22s4YNQoeiZNott+Kc7vLaT3C76fecBFjeLUj3/EWfc9yNgfLaejpBBsNtfTkX/6M7aNFXTNnkHXrCt8Xj72oQIijrf0aRO6L78M5w/cGYoR//iIyP/7M855NwV8beT7R4j6w3s+j3dNv5TRcXFEZz9MZ879nP52qsfzvTYto7GLnq9eSOeDP8T21C+IrHmPjp+vMD1GPXR2ugNdvb1EdDrd56Ixo4n8818Y+8BSThX9hO7p01wvi3r3T4x+aSM9530x8HsAEcdb6LlsqgRBhDgDSBBEGJtyMXfEwssl2eR8cAfptzm44jyl1+HCBfMHeeOE8NXT2MSJpY9w+u3A47XGzPu2pXV+rvZtTh94h56P/klETAxRX/sqkRcn+n3NORWbiDgr2tL6AejpoXPLdk4W/oze9nZinvk5tjnXeyyiBSZOPb0GIiKIOEfprepp/AedWyuInPwViIrk9Nv7ObEkT1nPr8pc2xqztoyOFUVEXXYJzld2cOJHj8BZ0Zy9cS2RU75CRPRZfLboPj654WbGrfgJtrmeDVrnrjfoqn2XiM+NJ2LcOLr+eJDuDw5ju964p12c2Xq/MIHO/3nQ+Mn2dsasfJau666m+6rphotEjBlNLzB666vYfvG8x3Mxju9Y2oazblemhe6d+HlOvLrOve62NqL2HuB02rchegy24meIfOcPnNzygqX1AvSOP5uTRY9x1j1LGJvzKKeeeYrOB9xBn6jq3xH54yc4VVJIr59jeVTDXxn7yAq/7xXhdDLq/b9x1i3fM12me/YVnP52Kj1fu8jvuqIO1RHR9CHdl3ydnvO+ZLzQWe6gQk/cJE5u/5XfdXqL3LOf6GU/cW//v9uI2v8Oo/52lIiTHfSePY7RrykZdr1nn03X1TOIONlB1N7f0xM30fWcXk/ihXT/l28mzOnb59MTZ5zt49qeD/5GVOVvgvoMoeqNiaHrulkARHx2ksi6eka/8jpR+97h5K+e8ckSCKeI06exrS4n4uRJTj2S636iuxs63cO+euLjOZV7P6P/t5JRLf+mZ8IE5fVOJ2MeL6Y3/jw68+6HU7quKptNCep85QIi1OUNt+E//yFq7zv0TvgcXTMuN1ym90u++13vuHE47/t+wM84+pVKIt895Pv6CePp+MUTjP3RY4wpfobuaV/3zPoZqwR6Ik4rAdXTN6bQ/eULiPy/emsBECB62U+IfOdd199jilYzpmg1AB2rVvz/7N13fBTV+sfxz2xNQyBIUwRRsIBXAQtcS4wasaAiWNCrURQbYgEURERECEixYEG8XlEkegVRwAJ4NSgGxaD+ANGgCKJRISgQWsq2mfn9sSHJkk2hJpDv+/XyZXbmzJmzk8LOM+c8D94Jz2Ge3gnz1JPLH+x0VvvvS9ytVc8wFZHaQUEQic7TiT4vjiQwbiIzPnyWpR8+S/POvbjx5l50a1cLnoiI7GSa+F59naIJE7GLiqpsHtPnZmL731Otro2EBDwXVj61e1euTh2qblRG/r0PEHj/Q5ztTiDhqXE4T2pXro3zmNbE9L0d38uvhpe+lOFo0pi44Q9j/pbDjtRbcbY+mnoz0nG2Oba0zeGHE//UWIqen0zR+KdxnngCCf9+HmfrowFwp5xHvWmvkN+vP/kPDKFB59NxNG9Wcry9ZQu+/0R+CHQe3YrYQf13673KwcGOj6/wSaaRl4f36clYJxxb5dPOUPI5mMU/Y57Xp0NhYZU3S86Vq/BMeQPfIwOxExuCJ3JJmHv+pxCyCFxZjUS+ponjt99xrvgR5w8r8d/ZG7vJ4eH32OIIfGMfwzP1LawmjTEKiyBvS3gMP/6EXa8e5G3BKN5WIi6mdCZEYkNCV+yyHGcPmK1bYh3dEv/DFf8+GX+ux53xOVbzphRNGFVudsz+4vj9D7xjny157Z75fsnXVutWhJLPwvW/z8Dvx9iYh2dKacAK28YoLCRw6w1RgyCxdw3Edlb+MdQIHrh5p3bjRvgHld7EGsEgMcPG4PwiC8+M2fjvuGn/ndzvx/3u+5indYzY7Mj5g7jUvlEPibs2+u9S/BX/injtS3uE0HlnE7jrlorPb9vEZwh36QAAIABJREFUDgkvU/ENvhczqfpLaYzNWyoN8pW0K6x4No8dF0fRUyNxfr+yNABi2xg7CkpygDiX/F84J8rmzRibt2Js3oznvXmY7U/AN+wBPP99F+f/FmAUhWd4xAwchu124XsqDV//u0ryjsTeMZDgTb0Ind0ZLMI/s5YVDvxWcwmU66MFONblEuhzY7Xai0jtoyCIVKxZEn2fSaLXstmkT3+b2UtmMGHJDN64ZCRPP5RE9SYHiuw/5k+rKHhwKKHvVlTZ1tn6aOLHj8bV5YwDMLLqi7klFeexrYm9t2+lOUDihg4mbvBArC2lN2WG24NR/7CS6jAJk5/DnXQ2Rnxc1D483S7G3riJ2IcfxIiNfMLtTjqb+vPfI7RseUQABMDT/fLw8pyQiW2aOA5vhKNJ492fai91itW8KTQvXqb1wUcYHg9ml9MqPcYww7ltrE6nlJ8lUOTH/c57mJ1OwT7qyPIHF/lxrfgeAO+06XifmRy+8TGM8FK5OyNv1MyT25csU3FlLCTmsXER++N7lU9MHOx6Hv7HBofH2LQJgZuvq/T97BOmSczop8Hnw//QY7sVADG2bCVmaOVLcXayOp5M6IQ2UfcVvfwMZvsTSl57Hx+Pc/VaCATwTHsL8/QOFE2MnBVj7NhB/MXXRizZKCtw4zXYDSpfxuTI/RvPS69Va/z7mu12E7i2O7FfZGH8snbvOwxZODZtwg4Gw8E4b9XfR7txI3yPlM4MMXbk433u34QuSSG0S/4Mo7AA7zMvEex6HubppcsprRMrn2EE4JqfgfOLLELnnb1bARDYOROk6iCI8+tluD9asMvBNo7f12G1agEeD+apHXD8mkPMg49hbM6LSH7sen8+9uGJ2I0Px27UEOvYYzA7J2K1bR1+n0e3xDirC8Zff+NYlxvO91MvAbxu7MNblC5fcziwjmiOdXxbvM/9G9fS7yj699PYh5XPsVIRV9Y3OL7/SUEQkYOYgiBSpcSOPbi/Yw9Sl81g4pOTyZw/nLRj/sOka9rW9NCkrgoEKHp2EkUv/htC5SsVRHA6ibnrNmL734NRzamzB5LrtE7VT7TqcuFo3LjC3bsuo9mV85jWxI18tML9jhZH4mlR/ubSiI/DeZx+32XvOFatIfb+oZW2MbZWnMvHM/XN8Jr7U04K9/fX3xh//YUjL4+4PvfjWP1LSeUSq2FDQlddgfmPE3D8+jsxaU+B1xu+qdqxo7TTww7Ddrkwz+xMwYzw0p2YR9KwjzgCf7/IJ+2xj0cGSXZyvzcPz6TqL8fZyW7WhMJpL1bZzjNtBs4V2QS7dY3IV1AtbhdWBYGNXZnVzHsQ0f2c+Rh/b8I/JkqepOIbWLuCIIh5xmlYzSr+ewbgWP0r0Y8+QHb++xIb+W9H/HW3AVAw/ZWI7cbGzcRf34fQmV3wjRxS3IeFd8o0XO+8H55xBODx4HtsMKHks4i9YwDOX34DwLn0OxJSrgSg6KnRmKe0j0jwa2zKw/vcvzHbn1gu8a+xdTveZ17COumECpMCR2P8/ifeZ17CrlcP/8Dos04q5XUTqkbgxNi6DXYJgrg+zSRmxHgCfW4kkHotOJ3YTRsT6nkZVqOG2I0aQf16xN5yD4G7+xDsdWWF/YfOPJ3QmafjXPEDro8WELzhaqxmTYi95R4MX2kuIiMYxDv5Nbyvv4Xx53qIicH7WGkAL3jjtQS7Vf5vKRbgMCpvIyK1moIgEt3KGczw9KJXmc9OiR17MfIJDwNvepal2TnkXdMWLYyRAy30zf9RMHgo5pqqn8w5T2pHwoQnoi4xEZEDLC4Gs4oKRM71uRDld9vxa0440Wcx17wMYkY/FX7h8WAedyyBqy/HbnsssTffTfDyi0puBHfeYNpeN87l2cT2f7ikn6LJEzBPPimc+6M4/4dj8xaC556F3SIy/4FdwZN7s+MpBB64u4o3X55djRkd7k8W4nklHZxOnKvW4Mj5E6tFcwiFqjeTICEB//13VXtMzsyqcyqV5di6ldAF52K1blVun1GcFLeimSBx19+2W+c64CwL97vh5T/mP3eZQeirIMGvbUORHyNQuozHM/lV3NPfxTznn4TOOxsAx/IfoHh5Ruj8c7COb4t71gfYjRsRPC8p3FW0ZKz7uCqXsWUrsQ88ilFUhN2gAe65GeFgRJG/2jOOjE15JJxXvTxbu84eNJPPJnjZd3j+Mw3n8hX4HhuM3bAhgRuujjwu1otj655VrApdfhEEyzws8fnwzJiF8Xc+gT43lkvOa7ZpXXWntoXh0i2UyMFMv8FSgQAz3s4gaWhK5LKXZq1oCyytn1Dx05mAn/z9Pj6pa+z8AorGPolv2ptVfhA0vF5iB95HzB19wKUlGyLV5Z04GVfGooob2OGbCc+rb+J+c1aFzQK3/otgz8sitllHtSBwb+U3vq4vvy5/I27beJ98ATsmriQ5pdXpH/jGP47r00wc36/E/1BxLodo1Wf8xTekHg/WiW0omjwB449cYsY8DYBRWIhjxcpwm1AIY8tWjIICnFnfRnRjbM/HYTjC252uklkZ9hFNCR7eqNL3FZVR+ZNk5/If8KQ9hdW8KcHLLwqXlS0qxDN9Nu735+N76L6oJUWjcaxag2P9hgr3hzqfBnG7P1POf8fNGHl5xN1wF4FbbyDU7cLSnYHimSDeXT4tOJ0Q68X3+FCsRpWXGXb8uZ6YsROxjf1frtbYvr0ksauxdTuuzC9xrPyZYLeuBC9M3uN+3QsWQlwMRU88Wvo9L5NPJ3hdT4z8fNyzPqj6d2RfBkF8PmIHP4Zj/Qb8QwfgmfACxp/rcWz4i9jb7ifY/dLwcq8KglgAtsuF1awJvtGPVHk616Is3G+/F3m804l/8L3YLY7APfW/GH9vxt41eattY9VvgLH2N5yLvsKxYSOODX9hbPgLx4aNGH/9RdHEMVi7BlhtG8eGvwmWqVzjWLM2vOzN4aJwUhpWu6qXCkV/4zZ2Fb+/IlK7KQgiFcr7OI2Bgc0MuqsHnZp5wMxn6fQpzEjswqCruhB19aQZIGfFEsJF0LL5YWU+7dtVf52lSDTBTxdS8PBwrPW5VbZ1dTmD+PGjS5J+ikj1mSediO2sODeN4S/CPXse5nFtME84vsJ2VuvypZaN3A140t+u9PyOnD/KH7cpD+fyH/CNHIL7nQ/C/TdritWsablARfQx+8I3cg4HdkIC5skn4YwtzZvjWLeB2Acil4m5p8/GPX121P5il36HHR9PwcfvAOB6bx7epydXOY5dVVa9xZn1LbHD0rAb1sf3/Dgcy74v2We2PBJ3QQGx9w4heNlFBO7pE07kWgn3+/Nwz5lf4f6CGVOw4yqoOEO40o/z08NLx7dqNTjCAWa7YUOs49rgnfA8VpvWWMeHp5CWzIbwhD9qOn75FYJB7HrxFL4wvtLx7mS1OKKkreOnn8OBrGP2z992Y/OWiCSwduNGFL0wDrPDP6oMWFUqJgY2bsY1P4PQJSm71Zfj15yIwIexOTwbwti4Ecfa3yLHvyOceNSxKa/cPrvVUdhlZmEY2/OJGfwYjpU/4x9wF8FuXfFMeCHc1u3BOr4tnqlv4fo0E/+QAZinlCa2NUwTY/UvAJidO2F2rt5yztA5XQid0yX8fQRoUB+rWVMwDAI3XE3w0guxG9bHlfUNzs+/Ci932/A3jr//hiI/jg1/havX1K+H3axpuITxKe2wmp6HnVgcTDNNjD/CnxNi+w0Kl3uenY5hmrhmvo/npdcwgkGsY47G+8q0cmMMXnlJ9co8mxa2p+K/kyJS+ykIIhXqdFkPmm9YwrN3TyYnD0hsRZdzruTpV3rQKcoszbwFw+k5KrPMliwm330Zk0li2MyRpFS+9FekHHtzHgUj0gjM+aDKtkZCAnHDHsJ7/bXVzvAuIpFCKcmQUvFTbyMvLxwEObszgeuvrrBdNI68PJwZCyttY+SXryBhN26Ef2BfQhecWxIE2a3zrlqDlVjxjAOzTWvyP5+72/3uFEo6a89uzCt4wu6a9wkx4yZi16tH0bNjsZo3jQyCnPNPCk86kZjxz+P+8H+4vvwa/wN3E0o+q9IbbPPk9hRNfjJimzP7J2LvGFDlUB2rf42YSWJs3VZaJccw8D90H3GpfYkZOoqi1yZhH5aAHYjMCRLz8Cgc66oOZFfGat2Kwjde2qs+Kuy7eVP8jw+BgkI8s+fizFyM67354SDIXvDffQveYU8QM/pprHc+IHBTL0LndKlWYunYW+6NSA66k+f16eGKS1G4p83APW1GxLaC2elQXBnJ+GsjsQMewZHzB/47e4fLTZdhN2pI0ZMjcb/3Ed7nXyb27gcJ9riUQN9bw0tHdhQQ1+f+6r79CgWvvCSiGg/FiUmNzVtw/JqD3bQJZttjsJs2wfnl1zizf6Jg1rSSGUvOn3/B9nrDSVUBz8uv4579Icb28Fxk86R2hLqeh+ujBXimvIHx9ybspo2hsIhQBeW9q0rUW2L7doiNnoBcRA4OCoJIdO1SeXo30ygkXjCShbtXTVQkOtsmMOcDCkakYe9aojIKT9cU4kaPwNGs6QEYnIjsCbN9O4qeHVNpG9eXXxMz+LFy24NXXbFb5zIsk7h/3Y5hhxM/hi48t5LGBriMcCWZinI9lFWvHnaZSk52w4bYZZOtVpN9+OERr41gEM9LU3FPn4XVrCm+ccNLbvDKHduwAUVjhuH6aAHepycTM2w05tld8D3Qr6QM8L7kHzogenWYneNpcBi+RwYQ+8CjeB8fj2/CiNKZIMW5S4peeQ6scPUfY/0GDI8bq8wyIvfbs/G8Pp2CuZE38BGc+3EJQkxMyXv0nXoKMf0fwf3JQqwOJxO88pLy7aMtTYmyLZR0Flb6ZNyvT8f9yUJiHknDbHsM/rHDwzMhKuF7amQ4CWcx589r8Lw4hUDfWzGPj0xWbRQUEPNIGsGel5dLVGo3OCx8/DfLiBn5JMbWrQTuuoVg6rXRT2wY4VkRp51CTNpTuGfPw7UoC9+D92Ce1Tnie+RY8wt282YRuTViRozFKCgIl3OuQETCXL+fuGtuIXBn7/Dyo10Tk9ZLCFdk+ftvrKNb4vrsC2JGPYnZ7jiKnh8HhoGRt5XQP8/APupIPK+kE+hzI97hY3Cu+ZXQmafjf2Y0scPHEvrnGVWW6q6KY/OWqHlwROTgoSCIiNQq1rr1FDw8nOBnn1fZ1nF4I+JGPYan28V7N11ZRPY548/1JTfCRkEBRlFRuWn65Y7566/w/3P+wFGcONJu1gQ7bveeutoOJ6GkM3FsysNKOZfgRefjWL8B64hmFR7jmTwV96yqZ5oUTXwiokqLkZ9PXOruV9XwD7mf4OUXA+FlDzEjxuNYszYczBg2sMolLhgGoUtSsDqdjHf0Mzi/yMKVcu5e5a/YG2aX0wjccDX2kc3Df493zmAovtktW4LU+/SLOH5cReHbr5b+7d6lbPeubK93t8oD7w3b6cQ3cghx/7od76SXCZ15emRwKSYGY+PmcNCjzL89xpboQXur1VH4hw8icOsNeF9+HdeCTDzP/wff6ChVdcowT42sBuRYvx4oTqa6y8+ysXV7+FxHtyhfRSgQwPv8y7inz8Zu2JCiiaPL9R2N3eIIiiaNx/PWLNwvv45n+iyKzupcElTBtvGOmYh5cjv8Ix4qPc7totJ/keNjI0rCu75ZjrF5S4Vl4kOnnowXcP7fclyffYHnlXRCZ3fGP3xQyfX3P3QfGAbOFT/AK4DXQ+jKbgSbNiF05ukYf2/CsWo15kkn4pqXUf69HtEMs8NJVV4T48/1GH+swzptNys1iUitoiCIiNQOloVv2psUjX0Su6Cwyubea3oSN3woRnWnr4rIARXzSBrONb9GbKtusCB2YOnNoW/844TOOqOS1tEF7rql5Gtn5mJiHx5F0QvjMTtWvLzBbtkC38iHo+4zNm0i5sHys1R28t9xM6ELkqocl7E9n7jbI5cTuD5fjOPXHAL33kagV8/dCupaTZtQNHE0rq//j1CX6NP8ARw//kzctZFPwMtWMdkXAnf3Ke27OCHtriVyjR07cH25hECvK6O+z/huvaL3feM10Z/gF/owrFB4JsI+DIbbDRsQuOMWvE8+j/eZl/A9UfozaTVtgvOPdTh+zYlYCuXO/KryPlscgW/4QyQs/DKc72Pn9p15eKqYieRa/A12XBxW091bX2z8vQnX+x9hdjwZ38iHSpcyVYfTSeDGawh1OTUcmCuz3NS5YiWOv/4m0PWecoc5Vv5c4fey6IlHMcvMVnFmLgaHI5ygNwo7MRHr6JZ4X3wNfL5wSd3e14PDgWveJ1innIQVpcRzsEe3kq8Nnz+cR+jLJTi/XBI51k0bCXa/rFwQxI6Pi5itBOB9/S0A3LPnYmzZSqDfbSUBKathg4hgn4jUXgqCiEiNM9f8QsGgoYS+XVplW0eLI4kfPxr3OVUnLxORmuMfPwI7GIrY5sjLw7niR4LJkb+/zu9XYvj8hE7rUO5G1m60G5VXDAOr5ZGQEDmrwPlnOBeF1erIcoc4cv7E+dXX4f0eN2bb6GV8HfWquLlJbFCurG5UxU/sywrc1IvQ2Z3LV7ioLoej0gAIgN0okVCPS6PvrF/FrJM9UTwTxNilOoz7jZng8+HK+jZcfWSXUr+F//1P1O4qurmMu2sghEIU/vflfTDoSMErLsL9wXxcmV/i/CIL8+wuAITO6ozz22XEjH4G3+B7sQ9vhOuzTFwfLSjXR8wDwwle2x3r+LbgcoTbmCZW+xNLG8V6sRs2wLFqDc7vsrEb1Mc+LD6iUopjzVqcX2QRvLZ7tfKJlGW3OIKil57CatUKXHuWMyta9RXPy+HEvs7MxYT+eVrE76553LH4RwyJPp7GZX6nTRPXl1mYJ7Urqf5UlvHXRjxvvRPOSRMIhPOY3NSrZAze518mlJKM/4F+lY+/5ZEVJiKO734DdqOG5bYHbri6tFyvaeJ59U1c8zII9rgUq0kTvFPfwvnFEoK9riTY+/rw8iUROSgoCCIiNScYpOjFlyl6dlLp1OmKGAYxt/Um9sEBGHGVT5sWkf2koKjaTa2mTUq+NvLz8fz3Xdwz5mCbZuR0ftvGnfYUzu9X4m51FMFruhO86ILqlWx1O8O5PHYuS4j1UvjWK+WaOVb+FM7dUfwEfGfSTteHn+DO+JxQUhfseodV+73tcw7HngdAqiF04fmEOp8W8fQ9GoPoJVjdM2bjKnOT6PzpZ3BW/hHS2LgZALvM32vHTz/jnjGH4FVX4Fq4iNj7HsY/4iGs5qW5MSrKgxL1HDt24Fj7W+lN8b7mdOIfeDexdw4k5ukXKejUAeJiCHa/GNfiJTi/WUbcrfcCYDc5HN/jQ4jt+2BkFyuycWV9E7HNPLUD/vvviNgW6H0d3mdeIvbu8PFFL4zDLA6CGDt2EDtsDHg8BK+5co/einVs6z06riLuDz7CufwHAn1uxPP6f8O5vO67vTQ3SExMtb6Xzh9+wti6HfNfnUs3mibOFStxzc/A9dECDI+LwNWX4/7fp7jfm0+o+6XY9ethbN2OsT0f88SKK1VVxTBNjC3bSivMROFY+TPeSf/BufwHQuedTWDA3dhOJ+aFyXieeRHPm+/gnpdB4I6bwvlMdjNIJSIHnoIgIlIjQstXUDBoKOZPq6ps6zz+OOInjMHV8ZQDMDIR2cnYuBnnjz+Fc3K43Lg+/gyg6nwVxZyr1+KaPRf3xwvAgmD3iwlcd1W4SkPJSQx8L4zD+fFneN6ahffJF/BMfo3Q5RcRvOrySvN4WEe3xNiyDe9z/8Y8/VRsxy7LIQIBnN+txPXZF4QuLs3c7VoRrrbinvsxwau7hyt4vDAF5x/ribujf9Rz7QycVMT1zvu4vvy6iitC1QHf/aCiXAdGYRHkF0BCHHi9OL9bGd6xyxIW56o1WDGlMzaMvG0RT/MdP67Csf6v8JP8+vUxNm7G89Y72PHxJUs3HOtyiX14FHbb1vjvu5NgtxRiHx5F3HW3Ejr7nxg+PwCur74GC2zLxLAtMO1wQlXLxrAtgkn/DJedBZw//Ai2Hd62p5wGRS8/U25Gyk7mSSdSNHUSBAIYoVA4TOT1UvR0Gs7vsnH89gfExxI6uzO43RS9/EzE70fhe+k4/u87HBs3YcfFYR/bOupso+DV3TFPOhHn6rVYzZphtgvf2Dv++puYR8Zg/LEO36MPVvr7cKA4l/wfnicnEex5GYFbb8A6qgUxYyfi+nwxoeSzcKwP5/ZxLf4GLAvbtjCsnd9HM5zs1esilHQWzuIlRKGzzsAIhfBMfAnXwi8xtmzFjo8ndMPVBHr1xG5wGObpnYh94FFi7xqAL+0RHDtneLU7DqOwENvpxFG8BM+OFojw+3GuXhsOzBXnGXK/Nw9ME/OYyCCREQzi+OqbcKWgr5dCrDdcTviqK0pmvFjNm+IbNwLnoq+ImfgS3nHP4X73Q/z33V6tnCsiUnMUBBGRA8ouLKLoyWfwTXm9pFJAhVwuYu/vR2y/OytMmCYi+4+xbRsxD6dFbLMbNqhy6QVAzOincc37BDs+nuC1PQlc0x27YfQcPrbLRejSCwldkhK+wfrvu7inz8L99hwK3vw3dsvoT5RDl6Tg/HIJ7rffw/32exWOxTy9A/57SvNVsG0HdoPD8A99ICLfiB0Xi3lap+id7MiPqIhS/g3HYFe1ZAbAv2/zcOwNx5pfiO07KGKbdeLx5ZYl+IYPqrQ6jPPnX/COfz7iGNvtDierdDpxbPib2Nvuw65XD9+oR8DlwDq+LYWvT8I1ex6uzxbh/ONPgErzrlhHNItI/Or8/kfsJoeHl5rsKcOIeG/RRF0i5XBgdvxHuRwzu/Zlx8VhnvNPzGoMxTrhOKwTjivdEAgQe9cDGBs3E7jrlohAXk1xfbGEmKGjMDudjL9f+HcqdOG5FLY7DvesD8KBwNy/MEIhYgYNr7Cf0IXnEko6C/fiJVjNm2K1Oipc5WVHAVb7EwhedH44sFQmIGee0Qnf2MeIGfEEcTfdHd523LFYLVvg/c+0ktLAVtMmUWd2GE4nsfcOgV1y4YSSzsI6sfRnyPX5YrxPTMTYsQPiYgj86yqC/7om+t8vw8BMOpOC00/F89obeGbMInbgIxS+NaVWBKxEJDoFQUTkgAkuWkzBQ49gFX/YrYzr1I7ETxiDs22bAzAyEYnGbt0qnBDSNsC2sRPisE48LqIcZkWCFyRhtWxBsGe3arUHwjcUXU6jqMtpOFatxrVsRUQAxDzzjNLKFIRvtH3jRoDfj7EtSplawwjf0O8ysyF4WyrBa7tHJIg02x+PfVgCgdtvij60rdsxfD7sw3fJHeB2Ejrz9PCT/M6nVv0WCwvBDGE1q/4Nkp3YIHyzHVe962h2OQ27edXJM83j2uBLeyQ8wyEQhHpxhM44tfRJd6sW+B55AOuIyKSTwd7XEywsTWAdOv8crFYtwzeXgQC43VhtjinJs2A1bUzw8osJXtcj4prb9eoRvKlXeDmLbYMvEJ79YVvh1xbF/7cAG9yuyJwxm7cQvOyiQ7c6mMeD/+7bwt+XqgKPHjfByy7COrrlHp3K6nASdqujqmxndmhP8JruBO7qHfFwwjqyOf5778B/7x1gWcUze+zS759tFP/fBmzsmPAyqcJJ43D8vr7ke+gbMbjS72forDMoeHsqrv8twNiRT+iyi8DhIHhhMlaTJuBxhX+Go8wEsV0uCl8YH54BZYYwbAu7UaNwkKtsPpNTT8Y8vQNm0pkEz+lSMvOoUrFeAnf3CQdmf/5FARCRWs7IyVkdfQFoDWnZcv/d8Pzyyy/8+WfVN18itUHbtm054ohqJNk7CNhbt1E4cgz+mbOqbGvExRI75EFibrpB62pFqmn9+hxCoQO/zEJERETkYKOZICKy/9g2gbkfUfjoSKxNm6ps7k5OIv6JkThalK/gICIiIiIisrfqTBBkwYIFZGRksG3btpoeipSxbt06AJo0aYJbOR8iHH744Zx77rlccEHNrwHeE9Zff1M49DECH2dU2dZo2ID4EcPw9Lji0J3WLCIiIiIiNa5OBUHGjh1b08MQ2S1HHXXUwRcEsSz8b71NYdo47Pz8Kpt7ul9G3IhhOA5vVGVbERERERGRvVFngiA7JZZJyCU1Ly8vD4CGDRtiaAZAhJ3X5mBi/vobBYMfIZRVdZlIR/NmxI8ZiTvlvAMwMhERERERkToYBLnxxhvp2bNnTQ9Dip1//vlYlsVrr71Ggwbly5nVVZMmTWLmzJk1PYzqC5n4Xp5C0dPPYfv9VTb3pv6LuKGDMBKqUU5SRKS6LAscjpoehYiIiNRidS4IIiL7lvnDSvIHPYz5w8oq2zqPaU38hDG4zjjtAIxMRGoL57LvgeoXo7ObN8Nq1mT3ThKyiLtrIObpHfDf2Xv3jo2m0Ef8lTcSuPMmglddsff9iYiISK2gIIiI7BHb56Pomefx/XsKmGbljV1OYvveQcz9/TC83gMzQBHZbe735uGe9vZe9+NLexjrxONLXsfe/3DVfyfKCNx6A4E+N5a8dn32BcYf63Bs2YKRtw0jbwvG5jzs5k0pemoUAJ4Zs3D8uAqz7TG4P/ioXJ/m6Z2wmjXBsS4Xx3fZFZ47dPH54HBgYGEUFIBZ/eCNiIiI1H4KgojIbgtlfU3B4Ecwf/2tyrauf5xE/JNP4Gx3wgEYmYjsDevY1oSuuLjC/a7Pv8Sxag2BW28AVyUfIRIbltvkf/Begj0urXIM8VfeWG6b+3+f4vg+Gzs+Hse6XMyT22N2+gdW48YAOH7NwfNKOna9ergWZcGirNKDg0GM/HyKnngUmjXBmf0T3rETKzx/ftfzwUF4aQ2AU/mqREREDiUKgohItdk7dlA4ejz+N6dX2daIiSH2wfuJ6XMLuJwHYHQisrfMk07EPOnECve7Mr/Can98xCyN6nJ+t6J6DQt95TYVjR0OgLF1O/HdehG4+TrMLuEBNMq+AAAgAElEQVRldY7ffif23iGYZ3TCN2YYtrP0741hmsQ8MAzHb39gnXoKAMGu5xHsWnFCZkfuXxAIQkFhuI8t23Dk/BnRxj68IXZ8fPXej4iIiNQqCoKI1DUhE3PtWpzHtd2twwIfZ1A49DGsv/6usq37zC7Ejx+No1XLPR2liNQyRmEhjp/XELjj5j063rliJY7f11d9Hn9Rtft0/PY7sfcMxjqmNcEel+J9bCz+oQOx42LBNPGOexbn0u8pempUtYMW3iGP41zza8lrz2v/xfPafyPa+EY+TOiCpGqPU0RERGoPBUFE6hjfv1/BLiwkdtCAarW3Nm2i8NGRBD6cX2Vbo1494oY/jLfX1aCSxyIHJeeK7OJEppGMDX+DZWGsy8XzesWzwYLdumIfXr4cfSD1uj1eDuNa/A3YdjhHB+BcuQrDtGD7dqx/tMf36IMYf/2Nc+UqYu8ciG/YA3j/PRXn10vxPTIQ8/SOVZ53J//D/TGKfBhbtxMzbDSB1GsxO58KgGPjZryPj8f2eqrdn4iIiNQuCoKIAJj55Hz7CXNmvc3mrpMYeUH5D/CHAnPNLxQ+9Szuc8+uurFt439nNoWPj8Hetq3K5p5LuhKXNgJHk8b7YKQiUlOc32Xj+c80rKal1VkceVvA4cBq1hTnN8vC2zb8hX1YAnZceIaFEQhi5OUR6twpahDEtWAhjrVV5xEydhSU2xYz5PGIxKqeKW8AYLVuReEbLwFgt25F4csTibujP3G33oudkEDRkyNLls0AGMEgjp9/qfT8dnwc5gnH4dgQnvVmH9sas+PJ4a93jt+jIIiIiMjBSkEQqfPyv01n/KwsVi/OJhdI6lrTI9pPTJOCB4ZAMIiZ/WOlTa0//qTgoWEEF31ZZbeOxo2JS3sMz6UX7auRikgNs+PiKHx3asnr2IHDsBMS8I0cUrIt4axLCNzdh+Dl4USqzuyfiL2jkhlm+QUYeXlVn3xnQtKyh376PgCet97B89Jr+CaMJHTGqRHHuL76Fvfrb2H8tZHQeWfjv/cO7KaRQVlj85bKxwiYHf9B0QvjoTj4a9VLKN3p94f/ryCIiIjIQUtBEKnzEk5LZeRp3cgc05PhH9f0aPYf35SphJYuB8DK3YCdtwVj1woOponv1WkUTXgGu6jqdfneXlcT9+gQjPr198eQReQQ4R/YD/OUdlitW1XZ1vXRAqyjj9plowNsG/e8TwAw8vPBCuHYshX323NwZXyOkbcV67g24PFgJp1ZLgACYDduRMGMKQA4f/mNmKGj8D9wd2RApbiMt2PTlvDrRqWzWgx/MNyP113t9y4iIiK1i4IgIgAk0qhFTY9h/zHX/krR+GcitoVW/oj77DNL2/y0ioJBQwktr7qCg6PlUcSPS4s4XkSkLPe77+P67IuS166Mz/aoH9+oR7Ab1sf5XTbG7+EqLZ6nXsT1zvv4h9yPM+v/CF5xCaFLL8Q7+mkIBHAu/ALH95Ez3uz4WAJ33QItjgDAOf1d7MaNCHW/NKKizE7Gpk0AWGWDxZoJIiIictBTEETkUGdZFDw4FHvnh/di5s4gSCBA0XMvUjTpJQiZFXRSzOEg5rZbiH3wfozY2P04aBE52NlNm2K2P6HC/Y68LbjmZRA6/xysI5pV3JEn/FHFM2M2ZpvWONf8SuCWf+GZ/i6xDzxK4avPYzdsgGfyqziXrcA8vQOGz4+xrrQSjWPVavB4wkEQwCgswv2/Twn0vgHb6cQ9833s+DhCl6aUHvPzGuy4OOwGh5WOpfjvqK0giIiIyEFLQRCRQ5xv6huEvvm23PZQ9o+Evl1KwaChmGsqTxQI4DzxBOInjMZ1ysn7Y5gicogJnd0Zzu4MgPPnX/BMfhX/oHtLAh7O1Wtxzcsg2K1rRPLSaJzfLMeZuRj/8EE4R07AOvooil56CteCRdgN6uOePRfPGzPx33s7wet6Rhzr+HEVsXc+QKDf9SXbXP/7DGyb4BUXlbRxrsgmdNF54HSCbePM+j+sU08Jvy62czmMZoKIiIgcvBQEETmEWTm/UzT2yaj7gvM/JjD7fbDtyjtxu4kdcC+xfW8Hl/5kiMjuc37yGY7sVViNGpbb55n+LvaCzHLb7caN8N9xM4Zp4p04GfO4YwmdcSre4v1Ws6YE/nUV3v9Mw/36dILX9cA++iiMYBDbHc7ZYWzbQcyjT2C3aU3wqiuKD7Rwz5lLsNvF2PXqARC86grc//sU5+KvMc/5J47f1+HY8Df+G66JGJMRKJ5R5/UiIiIiByfd0ewjgW05LF0whznvbiZl4khSGueTsyCdyW98Qtav0OqCXgy+rxfty+WPzCdn0WzenpXBV8tyyAMSW3fin+ddybXXJNFqlxUH+b9n8cm7c5izqD2DZ6XS3sxj6cwpTPlgLtnrmtPluj70vTml+LhdxnDmhaTe1YeUlhU8wcpbyuzX55DxbSbZ6yCxdRfOvTyVPj3bkxD9iP1nZTrJd08pt7nPiwtJbVf8YmMGw69Jo+Sjc/IwZo1IIZzCbveua3TZpCf3o+woyp4/e1oy/V4t3Zf06KzopXVr6rpaFgWDhlaY4LQ6iU9dp59G/PjRONscs69HJyJ1hFFQgPvD/4UTlTr3IKHo9h0Y63LxvfgkGEbELs+UN3C/Pp3ALf8i+K+ribv+NqzWLSka8xjG5s3EDXoMfH6Kxo8IJ1cF3O98gOOXX/E98Wh4fKEQ9uGJWEc2xzPzfYrO+SeeN9/GdjoJnd0lcixRlsO435+Pe858rEYN8N9/F3ZxzhERERGpnRQE2Wt5LJ05l2Vrs0ifnw0kkWLmkjkujXmeTnS86EIS/vcJGQsm0y8/gbfGdaN5ybEBsqc9RL9XIXXcM8x6JhHMfJa++RADXx3OV3+O5JWhSeGb+m3ZzP0wi5XfzmXusjygPRRlkz4qnbw2HUk6J4X8jzPImp7Gz0UJTBvQiqXjhjBlWyeSdo5h8QzSfoLEN/vSaZcgQO7iZ0l7A3oMHMykASNh22oyXp9I2nP9+PynYUwamlJm3AdAu1QWvteJGeMeZfLiPKAHYz+8ny5lowaNUxi5sC2zH7yZZRe8xbBLmhP+WLob17VS7UlduJBe6+aSdsMEdn1O2f6mhSzsvpQpDwwkfU30HmryuvrfnE7wqyV7dKwRH0fc0MF4b7weHI59PDIRqUvcr00PLyPZuBnvk8/jf/DekoAEQOC6qypdDmM3bIBvwuNY7Y7D2Lo9Yl/owmTsZk0IXhZe1lL0/Hhi7xlE3D2DMHI3wGGHUfTyMyVLcIwdO/BOehnb5SJm0GMYeXkY2/NLO1yXi+vTRbjmLyB45aXYTQ6POJ9RUBw8Lg6COL9einfccwS7nodz1WpiHh1D0Wsv7PG1EhERkf1Pdzd7LZFO16TSZ0AfegGQS8ZbWTTvN4mxA/rQ67q+DJvYn24ASxawdF2ZQzdmMuPVbKALXToX35I7E+h0XbivvI8z+SGvuG399nS7oQ+Dbu1WvGEZ8z72023UWO6/tRe97hrG6+P70hbIey+dtCcz8Nz+Oq+PuZ8+1/Vl2Gvj6NsGyJvBomVlPvABrJlB2tDN9Bh+PyltiqMM9duScl9/+raBvI/TeHZ+7r6/dFWp355e/foQfg4XIBAtZ2dgM3mFfUktCYCwe9e1GjxHHk3bCsd4NK0qqipTg9fV+nMdhaPH7dGx7guSqf/pR3hvukEBEBGpviizy1yZX+J56x389/TBN+ph3PM+Ia7vAJxfZEVtXxHz9I5Rt1utjioJgGBZONavx27WBMeqNZgdTqHwpacikq7a9eoRSL2O0EXnEzrvbAJ33opv3AgKX32egumvELziErzPvoTtdBJI7RV5skAA5+KvsRs2LAniOFeuwk5MxD98EIE+qTh//gUjFKr2+xIREZEDTzNB9hWPt3hpQ3NSbuxB27IzFuq3peM5MHfRUvK2AUfu3N6Ktu1gdatWkbMBSvqKcuPv3Hmr35FLu3eKnM3Q5iSSgNVA52tT6RKxsy0nJQFrYHNRoMz2AEs/m0F298GMK5ecvxVtTwsfk7VgKbmXdDuws0EAjjyXSy+ZQNb8ucxbdCNJl0WOIHfB2+RcNTgySLEn13Wfq8HratsUDH4Eu6Bwtw4zEhsSP3I4niu6lZtyLiISjePH1XjX/AbxcTgWh2ee2Y0aAeCa9wnecc8ROvN0gj0uA8Og8KWn8Y5/ltiHHi/5OxMz/jnsGC+GDVgWtmWBZYENhm3hG9Ifs/Op0Qdgmjh/Wo1zyf/h/vgzjD/WYZ7WkcL/PIvV7riohwRuS62wL0feFoxNefgfug+7yeEYm7cQ3+sWrMPqY+zIxygsLM0tApj/OBHPf6YRM/wJHGvWYh3fBlu5k0RERGo1/Ut9QHjBGWWzpy2pLy6k5OOYmU/Ot58wZ9bbzN6r82WTn191q7DVLHszDxjCZe9V0uzbPPLgwAdBSCDpqr60nT+ZrFfnsbRrHzqVTPlYTeYHbbly4i4LW/bbdd0dNXdd/dNnElz05W4fF3v3HQqAiEhURU+nlduW/+V8nKvXEtP/YQia4HERuPEa7MaNwslH52VgntkZ3+ODS/6uWO2Oo2jqJBy//Ipj1RqMjZsxgkGwLAwoDYBY4QAItoXZ4aQKxxUz8klcGQuxW7YgeO6ZhJLPwjrx+D17k4aB7XISvLo7wSsuAcBObEDw4hTIL8CwwTqxTWQQ5NQO+IYOxP3h/7DaHkug7617dm4RERE5YBQEqQ3yc8n6cAqT/5dPp8uv5Mqhg0jsPpDyaUH3g4255ADcNImFt7Y/EGfcfW2SuLLzZCYsSWfOoh50Kk4+mr94HplJl9KrokqFdfC6WrkbKBz5xB4dW5g2jtC3y4gfOwqjUdUZU0Tk0BS45oqSIEBVzLbHUDB3RvkdDge+MY9ix8VF5P/YyTq2NdaxrXd/cPXiKZzyLPZR4SmVgb69CdxyPVaro/Y+gOtw4HtsMEaZkrgYBv4H76n0sFC3Cwl1u3Dvzi0iIiIHjBb817D8b6cw8KZ+zDEv5ZlXxnJ/zy60ql8DpfdW/kYNZP2opuZceF0qiUDmW5+wGoBcPn8vQK9LomfrqJPX1bYpeGgYdvWnAZUT+OhjtqV0I/jpwn04MBE5qMTEYNevt9fd2IclRA2A7FWfTifWCcdhx8cD4TK51tEt990MNo8H2xlt6qaIiIgcKhQEqUGBVek89GA6v3UdxsgbOpFYE5+76ieGl2J8uygyaesucudnFAcfaoanYxK92gFrJjNnUT6BlRnMa3MBXcqVHK6719X/zmyCn32+1/1Ymzax4+bbKRg6HLuw+okLRUREREREajsFQWpQzrezyQZOans0Fa3o2O88x9H+EoAsJoxOJzvaJIINGbyRm0irAzy0SG3pdn24Ms7cD2cz44Msks7rFPW67fvrmkhixdUbozvA19X6628KR4zeBz2V8qe/xfaLr8D88ad92q+IiIiIiEhNURDkACtblSRghuu0Zi5aGrFkIm9JFlk7X5hAUQ45G/fdGPKL/GVeJdDlyj60B1g5hX53Did9wVJy8vLJz89l9aIZDH8gg3YXRQ84HEgJnS8gNRFYMoUp9KJbm+jt9vi6VljVsB6Niiv6ZK8t22M+OR/PIOPPnX3W0HW1bQofHo69fftedeNo3gz3OWcRc+tNxI8ZyWEz36TerOk4T9jDJIMiIiIiIiK1jBKj7iP5y7LIBCCTzG9zSbmkTL2PbT+zekX4y6xvltLrH51IANr+I5VE0slbmMbAh7JJ6eghNzOH5jdfSqdEyM7LZPbrk8kmkZT7WgEBcnN2Lp5YzW/rArQ/svQWOrDut5KlFatzcgm0a156gx3I5be14S+XfruU3K7daF6803N8KsNGbGDgiLnkrstkyqjMMslDm9NtxNN0O5Ka5+nEpbd3IX3cz6R27UJCBc12/7oC+UvJWhz+MnPRV+Qmd6N5yTKaBE7q3IPE92aT9WQ/Bv7Ujc4tAqzOzKfjkGtJaTGDrDWQ+dIEJqxtT8eLUklp7Tlg1zXw3ocEPllQvcZOJ86jW+Js0wZn22NxtDkWZ5tjcB57LEZC/N4PRkREREREpBYzcnJW2zU9iLJatqzg8f5eGjp0KE888QT33XcfPXv23Ic955Exoidp5fJIJjFsZn+YVNG+kaQ0DpCzYAqTX51B1rrmtL/kSvrc3otOibB61kAeei6X467rQ9+bU2gVm016cr/ylU2ShzFrRCeWVjiGkXRaMZyeozLLjbzPiwtJbVf6Ov/XTGa/PYN587PJJZFWZ15I6u2ppLSuKNyw984//3wsy2LOnDk0aNCg6gO2ZfHsk5u5dlS3SsrK7s51hbwF0a9P0qOzGHlBYoV93n1XL9rXzyNjxG2kO3uQelU3ktollpvZsSfXddKkScycOZOXX36Z22+/vcJ21qZNbDvvYuyt2yK2G7GxONscUxzkKP6v7bE4j24FbneF/YnIwWn9+hxCoWBND0NERESk1lMQRGrUbgdB6ojqBkEKhg7H/Gl1OMCxM9DR5lgcRzQHh1a7idQVCoKIiIiIVI+Ww4gcxOLHjKzpIYiIiIiIiBw09KhYREREREREROoEBUFEREREREREpE5QEERERERERERE6gQFQURERERERESkTlAQRERERERERETqBAVBRERERERERKROUBBEREREREREROoEBUFEREREREREpE5w1fQADpSNGzcCsHnzZjIzM2t4NLKrrKws4uLianoYtca2bdsAWLduXQ2PRERERERE5NBRZ4Ig2dnZALz55ps1PBKJZuzYsTU9hFpp7dq1NT0EERERERGRQ0adCYLspNkGtUthYSEAsbGxGIZRw6OpXXZeGxEREREREdk36kwQJDk5ma+++orbbruNnj171vRwpNj555+PZVm89dZbNGjQoKaHU2tMmjSJmTNncs4559T0UERERERERA4ZSowqIiIiIiIiInWCgiAiIiIiIiIiUicoCCIiIiIiIiIidYKCICIiIiIiIiJSJygIIiIiIiIiIiJ1goIgIiIiIiIiIlInKAgiIiIiIiIiInWCgiAiIiIiIiIiUicoCCIiIiIiIiIidYKCICIiIiIiIiJSJygIcpDLXzSDjI01PQoRERERERGR2k9BkINaLp9/mF3TgxARERERERE5KCgIchDLXTCFKUtqehQiIiIiIiIiBwcFQQ5S+d9OIW1UBnk1PRARERERERGRg4SCIDVtWw5Z8yeTdktaOLeHmUvWtDRu7plMcvL19Bs3g6URkY58lk4byE0PphNeCJNJ2jXJJCcnk5xcvM0MkLsyg/RRN9NzWjYQIGfBZAb2TKbngHSyiw74uxQRERERERGpca6aHkDdlUfW9NksWZbB7CW5QBJdzFwyxvVjyp9H07xZc3LycsmeP5mBS1Yz7MVhpDQDSKDTTU8z66Zs0pP7MYUkhs0cSUrjcK+BVRmkr1jN6jkzyFwH3Aq5C55l/Ls/kJsHeXlTmLG4GyMvSKy5ty4iIiIiIiJSAxQEqTGJdLmuD116dsTTdSAzgOwPMuh46yzeahZukf/rXCY+MIGMvAzSnulI+3HdaF5Fr57jU0g9PoXc+rlkjsmEtbPJOLIPk15sTv73c5nxDSSdqQCIiIiIiIiI1D1aDlPTPF4SAMin5UWpJDUr3ZXQuhv9H+xBIsCSOWSuqX63XmfxF7FJ9LggHDpJ+Ec3+tzajbax+2Tkh5zly5fTv39/li9fXtNDERERERERkf1AQZBaI4F6UYITCaedw4UArCY7Zw/SoDZvVBxkkepYvnw5U6dOrelhiIiIiIiIyH6gIEht5zmatsk1PYi6oUOHDnTo0IHly5drNoiIiIiIiMghSEEQkTJ69+4NoNkgIiIiIiIihyAFQQ4irZoooen+ptkgIiIiIiIihy4FQWq9XHJXAImpdDy+psdSN2g2iIiIiIiIyKFJQZBaI5PstYFyW/MXZzA7L5GUfpfSyRPtuFw2byv+ckM22bvmTi30U75XqYxmg4iIiIiIiByaFASpRWaPG076srzioEWAvGXppD05m+a3jmJwcZnbUq1o2x1gNZOfnsCUV59lyBubaZ4ImHn8sOKHcLOP55G5TmGQ3aXZICIiIiIiIoceBUFqjSQGpV2L5+NHuTk5meTk6xgwM4/Oj85i0k3tKT8JJIEu14+lV+fmsHIpqwPt6dsvicSV6SRf0JPh7xVPCcnLIO2GriSPyGAPCuzWWZoNIiIiIiIicuhx1fQApJS3cSe6PdSJXg9V84BmXeg7rgt9y25rl8rChan7YXR1T+/evenfvz9Tp05l4sSJNT0cERERERER2UuaCSJSAc0GERERERERObQoCCJSCeUGEREREREROXQoCFKbmDU9ANlV2dkgCoSIiIiIiIgc3BQEqWH5y5aSBUAmmctyVc62FtJsEBERERERkUODgiA1ZWMGw5OTuWzAFLKLN2WOu56uycPJ2FijI5Nd7JwNAgqEiIiIiIiIHMxUHaamNE5h5MKUmh6FVFPZSjFlgyIiIiIiIiJy8NBMEJFq0GwQERERERGRg5+CICLVNHHiRACVzBURERERETlI1ZnlMAUFBQAUFhaydu3aGh6N7ConJ4e8vLyaHkaVunfvznvvvcdLL73E4MGD99t5fD4fANu3b99v5xAREREREalrjJyc1XZND6Ksli3b7Jd+zzzzTL766qv90rfI/pKamsq0adNqehgiUsutX59DKBSs6WGIiIiI1Hp1ZibITi5XnXvLtVooFALA6XRiGEYNj6Z6bNvGNE1g//487bw2IiIiIiIism/UmYhAcnIyX331FXfffTc9e/as6eFIsfPPPx/Lsnj33Xdp0KBBTQ+n2vr378/y5cu58cYb6d279z7vf9KkScycOZNzzjlnn/ctIiIiIiJSVykxqsge2Bn4mDp1qpKkioiIiIiIHCQUBBHZAx06dIgIhIiIiIiIiEjtpyCIyB7q3bs3HTp0UMlcERERERGRg4SCICJ7YedskP79+9fwSERERERERKQqCoKI7IUOHTrQoUMHQMtiREREREREajsFQUT2kpKkioiIiIiIHBwUBBHZS0qSKiIiIiIicnBQEKQmmfnkLJnNsw9dz/AFeTU9GtkLSpIqIiIiIiJS+7lqegB1Vf636YyflcXqxdnkAklda3pEdVv+4me5aehsyoWi2vTlP6/0om01+ujduzf9+/dn6tSpTJw4cT+MUkRERERERPaGZoLUkITTUhk5ZhR9FfyoBXL5/L0oARCgy1VJ1QqAQGmS1OXLl2tZjIiIiIiISC2kmSA1KpFGLWp6DBJYNo83Wo9l1qMn4dllnychYbf6KjsbpGzlGBEREREREal5mgkidVwun0zP4sqULiQmJJCwy3+7BkWqoiSpIiIiIiIitZeCIFKnBVZmMIcrSWqz7/rcGQRRklQREREREZHaRUEQqcPyyfpgCquXTGHIgOE8Oz2D7I2BfdLzzsSomg0iIiIiIiJSeygIUuvlk7MonQkDbqZncjLJydfTb1w6mb/vcrNuBshdmUH6qJvpOS07vC1vKTPG9eP65GSSbxjC5AU57Jtb/EPEmrmkzwfII2dZJrNfSqPfNddx86jZrM7fu66VJFVERERERKT2URCkNitazYyhtzP59/b0Gfc6sxZ+zKxnLqXekikMv2kA6SvDIY3AqgzSZ03h2WFpTFmQQx4QWJnOkGHzyGuVREr3LjRfl8WMUQNIX6YwSImW3Xhm+n94+pmRDLqpB12OBMgjZ8Gz3H7nBDI37F33ZXODaFmMiIiIiIhIzVMQpNbKJ+ulh8hoM4yRN3Qi0QPgIbFjKsMGdAOymTIsnaUB8ByfQuo1fbn/1k7hQ7NmM2NrCmNfHEbf63rRZ8BYRt7VFsgjfckPmg2ykyeBhGZt6dQxiW633s/YNz9m1rhUOiUC6+YyfGQ62UV73r2SpIqIiIiIiNQuCoLUVus+Z857jUhJal+uQknCMe3oBJCXzpIVpSENb2xxOdcuPUg9s3nEMW3bdwl/sSGPvVzpcQjzkNi5D0+/OIyURGDlFNIX5u5Vj71799ayGBERERERkVrCVdMDkOhys5eQxWqybktmcmXttuUDiVV36NzdYq91WLMU+j+YzdKhs8lakk3eJc2rc4Ur1Lt3b/r378/UqVNLcoWIiIiIiIjIgacgSC2VtyETSGLY9JGkNKvp0dQ9CWem0CNxNlMW5pJLtcJMFdq5LGbq1Kn079+fhQsX7qthioiIiIiIyG7QcphaLZPVfyqDR81oTvOTgeTmNK+ybdV2LosB6N+//z7oUURERERERHaXgiC1VGJiOMnpJ99Wksi0aClzF+UdsDHVLX4woW37Vns1C6SsiRMnArB8+XJVixEREREREakBCoLUUs1P6ExbIG96GuM/jpacM0D2zAVwzL66RZcI65aSkd2DPl3b7tNudwZC+vfvr0CIiIiIiIjIAaYgSE0LVbC9zYWkdk0E8sgY04+BT84mc00u+fn55P2+lLmThpBWeAEXHrmb5zPBv5dDPjTkkvXSBJ6dtZQ8c5dd+dmkj55H+7S+dKm/b8/6/+zdf1RU953/8ddomkDWNmD1u8PWqLixKRhbYZMt0CYZIHZXSPKN8I2uUG0jmF2V/ISkbUBBhaRRSJpEtJtK0saASVyGWMu4NTpMtGXIaQ541kTS1ZPR1ITZJlV2y1ZiiPP9Y2ZwQFBR4M4wz8c5c3q9986977mYpPPi83l/AhujsloMAAAAAIwuQhAjdbWqpdm7uW+/Ux19voxP1C0PrVNegjcIaf3VM1qdv0i33367spY8rJojCSr5XuLZ5XM/75Bz/z7fxVrU2mcd3NM6dvhd7+b+fWp1j+BnChUnDmvPK41qePZhZS1Zrc279qm1rUV7Xtmgh+97VRMeeFKL40dmRZ2f/OQnLJsLAAAAAAYgBDHIib2rZbn9YW094tvh2D3O6zAAACAASURBVKBF6Rat3hvQ4yNylhZXbtFT989XUqxv2stXZinzX57SlsrFmhXpO+/QVlnSF2mDf9GRI1v18O0WWV5613vM8h197+kW38F92vBPvmPhbOItevC55cqMj5E+3KdXn9ysmh1v6U+TM1SyZa3mXz9hRG///e9/X5J3NAjTYgAAAABgdLBErkEmpq+VI/0iThw/UYlZDygx64HBz4lfLIdj8SAHZ53nWHibMHuhHtm0UI8YcO/AZXN//vOf9/YKAQAAAACMHEaCAAbxL5vLtBgAAAAAGB2EIICBmBYDAAAAAKOHEAQwkH9ajMRqMQAAAAAw0ghBAIMxLQYAAAAARgchCBAEmBYDAAAAACOPEAQIAkyLAQAAAICRxxK5QJD4/ve/rwMHDujAgQP68MMPjS4HAAAAAMYcRoIAQeQnP/mJ5syZo48//tjoUgAAAABgzAmbkSAej6f3fz///HODq0F/Z86c4efis2TJkt6+IL///e8NrgYAAAAAxg7TsWOHPUYXEWjq1OtG5LopKSlyOp0jcm1gJDU1NclisRhdBoAg9tFHx9TT85nRZQAAAAS9sBkJ4mcymYwuAQH8I3T4uZzL/2zWrFlDCAIAAAAAwyBsQhCLxSKn06n77rtPWVlZRpcDn7S0NJ05c0YNDQ2KiooyupygUV1dre3bt+v666+Xw+FQWVmZysrKjC4LAAAAAEIajVGBIHb77bdL8o4GIQQBAAAAgMtDCAIEseuvv15NTU2SvEGIw+EwuCIAAAAACF1hMx0GCFUWi0WlpaVas2YN/UGCwH/+538aXUJQO3r0aO/29OnTDawkeH31q181ugQAAICwRQgChICysjK9+eabcjgcSk1N7R0dgtE3Z84cnTp1yugyEKJyc3P18ssvG10GAABA2CIEAUJEU1OTUlNTaZQaBMaPH6+vf/3rRpcRlI4ePaqTJ09qxowZuuaaa4wuJ6i0tbUZXQIAAEDYIwQBQkhpaakcDkfvtBimxhintbXV6BKC0rRp03Ty5EktXryYoC7Ajh07dNdddxldBgAAQNijMSoQQvz9QST1jgoBAAAAAFwcQhBI/92qzSssWvTkPnUYXQsuqKysrE8QAgAAAAC4OIQg0On339Krh6SOXTa1fmh0Ncboan5GWb7pJX1e+a/qsNHFDaCsrKx3KgxBCAAAAABcHEIQ6Mqv3aK8hImKmZehxK8YXY0ROvTmjgadGOBIUvYtmjnq9VycpqYmWSyW3hVjAAAAAADnR2NUSJGztPhpqxYPekKX9r3Sohv+6TZNHMWyRsvpNptejv2xrKtu0JX9jl05YYIhNV0sVowBAAAAgIvHSBBc2Idvyvae0UWMlA698UqL7rotSRMnTNCEfq/+oUgw8vcHWbNmDSEIAAAAAJwHIQguoEN7flGjFqPLGCGnD+3R67pLt1xndCWXzmKxqKmpSRJBCAAAAACcDyEIzqNLrT8rV/nugbpljAVdatlZo8Nv1eiHD63WM6/s0bsfnza6qEsSuHTumjVrWDrXaO/VKDMmRulPONU9CrfrPGBVxYIZyt7mHoW7hY7O92yqXpGpGQvqxJMBAACARE+Qc514V3t+ZVPDrxv17oeSvjJLmf+wUAvuvkXTIvuf26qGX7yuPW/v856rGM2yJOm27DzNn92vl8R/H1NLs017XvuTktaX6LaJHWqprdHm1/fo2IkYzZp3l/KWLVTiQE03hnKfS/gcXR+0qsVh09bXp+lR62LNkqSuVm1dVa6aNl8A4ihXlqXcu720WtavvKqsdfv63fQWlWxfq9sm+/54aKssK2rOHl5aLceSWQPXa4Qjjdq6S5JO6FjbPh1r26eGn07UtPTFKnlovmYGdzuQc/hHgKxZs0apqam9jVMx+lxOq2xut/RYvZofSlZaxMjcp/PtahU9Wq6aJu9X/Kz5I3OfkPOJXRUrqtTYZpPziKS7c42uCAAAAEGCkSABug5u1cP5m3Ts+u/q6Zcccjh2a9t3v6zGF1bre4Vb9e6pgJPde1Se/7C2nvqmHv1XhxwOh3bX5inmPxr0zH0/0Nbf+0cUnFDLKzV65vEf6odPvqo9rtPS5x3a8+RKPdNyQl82x0jq0Lu7Nuvh/HLt6f/ryou+zyV8jtOHteelV7X1p+Uqf2GPjgUO+JiQqMVPW+XYlOf9s6VEVof3/o4lszQxvUTWJ32BiSRl/Vi/cgQEIJIUv1iOXT/WfEm3PPQL/SqYAhBJmpqpp1/5mZ56eq0eWTJfSV+RpBM6tvcZLfvnDdoXgr86Lisr6x0R4m+YitEXm5qnvOvMSns8WykjFIBIUtSNK7XF3qbau0fuHiFpUpqKX2uU9fEcoysBAABAkCEE8fuwUeX31WjCv5Qo75sxunK8JF2pmJszNF+SDtWoZm9H7+nv7i7XnhPSDd9M1jTfiIErv3Kb8pYmSnpXDW8f8505UUn/lKcH1j2ihf737tyjK5datW3TU3pq0zb96sVHdNtESSf2qPzpRp29y1Ducwmf48qZum3JQi1fuvASloG9UhO/macHV/qCjVODTCM58Scdm7hYd82bpqAbWHHlBE0wz1Riwi3KXPqAfly7W9YnF3tH43zYqNVr+wVfISIwCFmzZo3B1YSp6VnacrhDe3+UrBHMQHzMip094jcJSeZr440uAQAAAEGGEESS1KV9L29Qi+YrIyWm76EJX1XCvBhJMZo5+Yu9u2Om3qaJExM1a0rfr/ZXRXr/fOLzfqHAlVf5QoAuTf2HxbrFHHCL2Ew9WDTfu/zsW69r35Gzx4Z2n6F/DknSNV9Wv7Mv2szb87RwoqRdr6rxyLnHD+9/XX9ecIsSQ2GZFV+w89SmEm8odahGWx0dF3xXMCorK5PFYpHD4VBqaqrR5QAAAABAUCAEkaSud9S2S9KN1/WOtjhrom75wTY5HNu0/JtnD060lMhqfUoLr/d+uz/98bva81K5Hqru3yejvwn6Yv/eIpIm3Hiz5kqSDuvdgHkpQ7rPJXyOyxaZqLuWJkl6V6/ubFFX4LHTrdr32pd1181DH2diKPNtvaFUy1vvKlTbwvp7gjgcDlaMAQAAAAARgnid6tKfLvGtJw41avMPvqdlP22VblyhH//LLZd2oSuna+Z5elhe1H0u43Ncjpj0BVo4UTqxY2uf0SBdb+3V1m9m6NavGFDUZZqQcpvmT5Tk6FBojgXxCpwWw4gQAAAAAOGOECTQ2x+o42JXSD11TI1PLlLWxiOa+S/V+sWqxbotfqKuGj/MNV3KfYbyOYZDZKJuWzRLfUeDdOjNXzm1+DtJwdcL5KLEKObrkiwxlzxVKBhYLBY1NTVJElNjRk233AesAy/N2tMtV0udKnLiFbPO6d3ntqtqaYpmmEwyzcxU0bb2wZfV7XHL/lyBspNnyGQyyTQzRfkb7HJdqHeN267qFdlKmWmSyWRSzOxMFTznVOfZE1S3wHusz8tff0tF3/3+2ofEqYr+1z/nWv3ryFbd8YCjTdUqWOB7Vr7Pn72iWs5PhlDFuvPcv//nHGxp3c52WdflK312zNmfwzqr2rsGOhkAAADBhBBEkiIn6MuSpDf01n8Mlh6cVuvufb6pESe07+mHtGHXND1S/IBuix3er/nT/o9/ndwh3mfIn2P4zPzOYs2fKJ3YUaPGI9LpNptq/rRQtySERDOQAXwqfS7NnDVNA61aHEoIQkbRcbuqnihXyfJsFWy2yRVwqPvtOlU8V6KC+bkq2dYut6Tulgplzq9RR1y2cpZnKPaITVU5aSpvGiAG6XKq4jsJym2IUt72Q/J4PPI4q5V8MFe5TwxekmtngVLmWxV9b42aD3vk+bhVVaknVX1/iuKW1PlqNCvnNY9Otm1Rjr9f0bc36tBrOTJLUlKx3n8pSzKnqdjWoVOrki/h4SSr+LOTan4qQ/5brPzlSXn6XMtbx6FNadLdW/T+qXrlTPF9jm25Skgr18m5NWr1eOTxnNL7q2PVvLlAKXdUqG3Q5KhfFas88px6X1sGWlEnqViez05q76qEQd/ffaBKmTcVqf3b5Wo82CHPqQ7tXRqtxtXZip9bISdBCAAAQFAjBJGkCdN03Tcl6YRefeHVAVcEOX3oVe39fKb3C/GJd7Rv9wlJszR92KZ6dKjjPyRNXKyE6327hnqfoX6O4XRNkjIWzZJ0WJvrG9S4e6tuWDT3EladCRIftmrPu/OV952Q/QR9WCwWeTwemqWOtClpKvxRuSofW3nOoYgbc1T8UKU2rk3z7rBtVNXHOWp01qrykUKVb2pU/foESW5V7GruNxrEpboVWSppz1XtL8uVMcW35sykBOVtqlWhWQM7UKXcOztUsG2jcuZE9b4n59lqVc6R3FtzVfDi2agmak6eahrKlSxJvylX+XbfOIgup+o2dai8oVHl88yXvuLNFVFKfmijyud5/9jdM9BJ3er4wylVPpan2N4bOVWXUye3UpQ5L07eTxKh2MXlKp8rqWWjbO8MoY6IWMUPtqLOFVGKj4sd+NgnNhXNq1XCi/UqTvU9hwiz0n5Uq+p7JLWUKOtx++AjeQAAAGA4QhBJUozm3r3QGwwcqtGqdVvV6vaNpPj8tDratmp1RZfSLTG9+7xH96nlYMCIi65jcr7l+3/ivv9z3/VBR99modqnd98/d5RGV/MeNZyYqNtWZpxdSWXI9xni5xiK43/q7TfScWjgZqH+0SDa9YyeeWux7ro5mMdQdKjlpxv0jLVVJz7vd6jrXW2tsGlW+XIlXWNIcSMmsFkqQcjIiZo8+D9jkRN8YURGgYrv6PtlOyE5w7tx1B0wVUXq3Fmlwq1uJTycq7T+A8ImpCl72UB36pb9tUo5l+cpY3r/Y3FK8HZilm2bvc+IlYikYtXW5cgst+ruL1TdUZfqVuTq0P21Kk4ajgV/Y5W9LE+SVPOz+j73liQdqVXVkQLlzun7nrjFZplTUxQ3KXB/pCKjJMnd++/CkeTaWa1qc66yv93/OUQpIdkbbrmfsKmZFAQAACBoXWF0AcHiyhvz9OTKY/pBdYtONNfo4eaaswcnJmn5+rVK9K/qMnmWvvlNad9bh7W1dJk6vpOhmFNtaj19sxbPukHavU/61VZtPv1lnf7ad/XA1L73anhytSauelQLEybqSp3WibZXtb6yQTFLq/VoesCXp0u5z1A+h0/H2/vkXWtmn1ra5mtWQsC3rKkzNV9Sw5HN+smTXUq88rBOJDyqR+IHeIi+0SAN1e9qZrAvi3visPa80qg9alRD/S1a+N3b9E3zlTrx+/2y/frPuvmHT2r+9cH8AS5dU1OTUlNTe4MQ/1QZBIErBlg6Sm7ZtlbLLSkveZBpGl8YaGeb7E+4JWUqevN57vmGW25JgXFM7KJq1ey3K3NznXJj65S8tln2RYOMjrgEUfNXqnJOjYp2laimKVflqWdDhbaGGiUst6vv4Bazsl7qUFbvn7vlbrGq5tlybdw+bGVdgEvOnTbpgE2JpqLznuf+RNKU0aoLAAAAQ8FIkF5XaubdP9ZLzz2g+Sm+PhATpynp/z6g6hd/rIXXBX4hjlHmY9Vanj5NE08cU+tbbTr99eV68geZSrJkaP5XpInXTNDEby3XA+eMurhFj5Qv0JW7V+l7Fossln/SQ9tP6JurrKpeMkt9v3Zfyn2G8jne1VaLRYue9C+3e1hbH7pdlrI9Z0d6TEjSgscXKukr0rv/cVinv75cD1gGH+ExM32hblNS8C+LO/EWPfjccmXGx0gf7tOrT25WzY639KfJGSrZslbzrw/Ndq4XixEhocSlQ74v+pFDia2Pu9QuSauavf1DBn0V69wOH1HKWG9VeZLvjxMiLn0KzIASlHV/hiS3KjZbzzYf/cSmGmu2slMHuVuPW84Xi5Q5O1GFb0hp6xtVNVBvjxHhlqtB0vxavX/e53m2jwkAAACCDyNB+pkwe74emD1fD1zoxGtmaeGqX2jhqv77k/RAreO8779qcqIyf5CohT+4iIIu8T4X9zlmabHDocUXKCEmZbl+nLL8IoqVTh87rNZ5GXowBJbFnTB7oR7ZtFCPGF2IQRgREiL8Ycalajkkl5I15HEcn7h0qCtWsXLJ+fBKVSTbh2k6jFfsokIVP2ZTxfZK1R7IUeEc73ST7kdrNdB4l+73alRwR74OzatVzf5KxfmmwZwznWakNbTK1Z0T0K8EAAAAoYSRIBhGXWrZ3ajMkF0WN/wwIiQETIlVom/TfnAIX/knmb3BxxtW2Y8MfprrxTq19d/Z5VTF0kZl7nxfe+tyZJZTJfPzVHd0SJWfX0Sash9NltSmomet6ux2qu75BOXMizr33ONW5aXmq2bmFtU+m+MLQEabWea5klQr2/7Bm350v1Ej64Dr6gIAACAYEIJg+Hz4pmyHQ3lZ3PBEEBLs4hR3j3fL3mA//8iHnoAloSISlXKPJNmUv7hCzs4Bzj9apwqXWXF9drpUt6JEerxGOdOl2EU1sq5KkNx1KlxdN6wjLxIWFylPkl6sUfWGGjUuyFbaACMs3M561bklJccPfUTLIMzmtCG+I1aJc72r91QtGSQQ6nKqapuUMNhqPQAAADAcIYgR+q9GEqJOH9mjV195VY37D6vD3aqt1TW6MpSXxQ1jgUGIyWSSw+EwuqTw1iOdjTOilHFvuXeKyK585a5zqm+e0amTH3u3rIcDhyBEKWOFb7nblhKl3JStim12tbs71dnpUltDlbLn1ip5SVpAv49uOdflq3HeloCpLxFKfrRa5UneJXVz1zmHbwnYSRnK+ZFZkk0lq6WixYM0fu3x3dHaKGfAclud7zSqcb93+1SPJHWq/UjA0+kZYJ1wn2izL/pxHuoT7HS+U6fKrb49fX4OUsKiEuWYJbnrlJucrvznrGo72qnOTrfam2pUdGeuTi7KHbagBgAAAMOPEGSUdLW1qkWStE/72jp07iK5oeaE9r1crs0/3awNq5Zp0T89LNs1D2p5ejAvi4vzaWpqUmlpqSQpNTVVZWVlBlcUqjplt9V7N7fXqzFwxECPS40NVu+2tVH2PmlGt9rbmr2bDfWyB7wvIqlQNU9lyCzJuTpFiRkFqm6wy95Qo6KlJWenX6zLVUpWgapbvBeOuLFYta/leb+UH7GqJCdd8THRio6eocSsakU/vlF51/lr65T9iUxlrY5S2k39vsZPSFbGAm/7VOfqLOX9rE2dw7IkbYTSlpYrQ5L5RznKmDTwWeabMpQhSQcqlJWcq6INJSrISFHR72KUcrP3nJr1RSpaWqL2K/xzZTpl323zbvb/OUiKSs7QSrOkXflKSctXyYYqFeWkqMiZoLzFvs/fUKj8e4tUsrXdG/xMyVJNQ7nSzJLcdtXcn63E2GhFR8coPq1EbXNrVT6XZiEAAADBjBBkpH28R6stFt3+UI3e9e3a9+QifceyWns+NrSyyzRRifMWKnGipK8kaeGqX+hnP7hF/dfCQWgpKyvrDULWrFlDEDJUx+uUbYpW+jp/lw2r8mNNMq1zSi0VMn1hhvL9S7oeqFB6dMAxU6TiV9jOfZ8kKUIJDzWqff9GrbwjTqd2VatgRYFq3olW3lMblTfbrLhF5ap1Nstu3aiVSWebZsTevUWtB+tVfo+/OapZcXcUqvZgq7bcfTbscD4RrfTH7HLLqvyZ2ao7fvZjOdeZlPiwvxa36u5NVPQXKuTUMLguWyuXZ6l8adrgK9Bcl6fa/ZXKucEs9zt22fZ3K2W9TVvuyVDuPSsVK7OiJ8Qoe/1GZU3X4D+HBXVnV6KZlKHKploVzouVu6lGddZ2xaywacuyOEVLMt+Qo/I6q2qfrVT54rje2iKSirW3ba82Ls9QnG/aS2xSnirtbdr7o+RhXkUHAAAAw8107Nhhj9FFBJo69boLn3QJHnvsMT3xxBO6//77lZWVNSL3wNClpaXpzJkzev311xUVZUi3w6BUXV2t7du36/nnn9eyZctG/f5lZWVas2aNJKm0tJQwJMDVV1+t06dPq6dnWIZCjDnTpk3TBx98wN+bfnbs2KG77rpLubm5evnll4f9+h99dEw9PZ8N+3UBAADGGkaCADgHI0IAAAAAjEWEIAAGVFZWpqamJkneIISVYwAAAACEOkIQAIOyWCzyeDysHAMAAABgTLjC6AJG289//nP9/Oc/N7oM+Hg83pY0S5YsMbgSnE9TU1Nvn5DU1FT6PQAAAAAISWEXgvzP//yP0SVgAPxcgp8/9FizZk1v01SCEAAAAAChJGxCkNLS0t5Gjwgen376ae/2VVddZWAluBj9g5A333yzt28IAAAAAAS7sAlB+IIdnPi5hJ6ysjJZLBalpqb29glhegwAAACAUEBjVABD5m+YyjK6AAAAAEJJ2IwEATD8+k+PWbNmzZgfFeJv5nvs2DGDKwlOPT09kqT//u//5hkF+N///V9J0unTpw2uBAAAILyZjh077DG6iEBTp15ndAkALoF/9RhJYzoIMZlMRpeAEDZ9+nS5XK5hv+5HHx1TT89nw35dAACAsYaRIACGxUBNU0tLS2WxWAyubHiZTCZ5PB6NHz/e6FKC0ueffy5JGjduHIFRP/5nAwAAAOMQggAYNv6mqWvWrJHD4ZDD4Rhzo0IiIiJ0+vTp3mkf6GvatGn64IMPtGrVqjH1c79cO3bs0F133aVvfetbRpcCAAAQ1ghBAAwri8Uii8XSOz3GP0VGEl+KAQAAABiKEATAiOg/Pab/fgAAAAAYbSyRC2DElJWVnbOUrslkIggBAAAAYAhCEAAjjjAEAAAAQDBgOgyAUeNvnOpwOJgmAwAAAGDUEYIAGFX+xqkS/UIAAAAAjC6mwwAwxGhOkXE6ncN+TQAAAAChhxAEgKHOF4YMVyCyf/9+ZWVlad++fcNyPQSpT9ple65AmTOzVXfc6GIAAAAQjAhBAASFgcKQ4RodcuzYMTU0NOjWW2/VnXfeKbvdPhwlG6uzXdZ1+UqZaZLJNEMpS6tkdxtdlFE6ZV+Xrcw7MpV5f7VsR4yuBwAAAMGKEARAUOkfhkiXP1Xmgw8+6N3euXOn0tPTNW/ePP3617++7HoNcdSmgnnxqvw4Q7UHPfJ4Dqk2tVW5MSmqaOk2ujoDRCltVb0am7ao0OhSAAAAENQIQQAEpcAw5HKnygSGIH7//u//rn/8x3/Ubbfdpl/96lfDVvfIa1PVokxVdxer6vEsxUZIUoRiF9eo9hGXSubnqe6o0TUaJCJS0UbXAAAAgKBGCAIgqPkDj/NNlRksEPnlL38pt9s9YAjit3fvXt1xxx2yWCx6/fXXR+QzDCfXiyUqapESlmQreULgkQilZRXI7K5T4XqbOo0qEAAAAAhihCAAQkZgGNJ/md2BApFrrrlGMTEx6uy8cCTw5ptvav78+frWt76l7du3j9hnuDxtsj5rkyRl3JRw7uE5ycqV5N5crXr6YgAAAADnIAQBEHLKysrU1NQ04HQZfyCSmpqqhoaGIV+7ublZCxYs0N///d9r27Ztw1365TlgV+0BScpS/PQBjkfEKm6uJNlk+13YdkkFAAAABkUIAiCk9Z8u4w9EHA6HnnnmmUu+7u9+9zvl5OQoMTFRL7300nCVe1nch1vVJkmKU+yUgc6IVGSUd8t6xDVqdQWvTrVvK1Lm7BiZTDGKz6lWG/OEAAAAwhohCIAxIzAQaWpq6rPCzKVqa2vT9773PX3ta19TTU3NMFR56TqO+Jf2jRzkDLNiZ/s2D7oU1mNBelyyPZyrov0RSluSq6zr3GrfVqDEe+vC+7kAAACEOUIQAGOSxWJRWVmZpkwZcMjEkP3+979Xfn6+Tp06pTNnzsjpdOrMmTPDcu2L1d3j+/o+1yzzqN451LhUv8mumNWNatxUrsJHKlXvrFeeJG2vlz1cV88BAAAAIQiAsW38+PHDfk2Px6O0tDTl5+cP+7UvSlTkoGNBIEmxyl6Rp4SogF2TEpQ2X5KscjEUBAAAIGxdYXQBADCSenp6hvV6JpNJkvTOO+/ob//2b4f12hftcIc6pAFGg7jVcXj0ywlK5/zXLZL/4gEAAICRIADGJofDodTUVH344YfDcr1bb71VO3bsUEREhMaNG2dIABJ7XZZ340C3ugc5p9t/YHYsU2YAAACAfvi9GIAxweFwSPIuk+vfHg5z587Vgw8+qIyMjGG75qUyz0yUWVa51aGTnZKi+p/RIdd+79bKOXGjXB0AAAAQ/BgJAiBk+Ud7BL78AYjFYlFtbe0lXzsjI0O7d+/W7t27gyIAkSTdmKYCsyTVq+3IAMc7O9ThlqQspSSck5AAAAAAYY8QBEBI6R98OBwOORwOWSwWWSwWNTU19S6RazabdcUVQxvwduedd8put6uxsVFz584doU9xqZKVszZDklv2Ntc5R7t/Z1e1JPMjK5U1PIviAAAAAGMK02EAhASHw3HOVBeLxSJJKi0t7d0OFBkZqU8//VSTJ0/WiRMnznv97OxsPfjgg/r2t789vIUPs9jF5Sp/waaSTVa1LStUQu+RTtkbaiVzjqpWpCnCwBqDwnn64Z4a3l65AAAACCGMBAEQ1AJHfgROdWlqaup9DRSASFJycrLGjRunadOmDXr9hQsXyul06t/+7d+CPgCRJEUkqHhbrXLcRVr5mE3uHkk9btmfyFVeQ7zKG2qUM93oIo3R2WRXoyTJqvomV9/msZ+0qtXXL8W2267OUa8OAAAAwYAQBEBQKisrk8lk6g0/+k91GSz4GMjUqVPP2ffd735Xb7/9tl555RUlJSUNZ+kjb3qOag82K7ezWmnXmmS6Nk1Vf8hQbdteFSeF4xgQt+oWmBSdViKnb4916QxFmrJVd9x7zDQ5U1Vu77G2demKNmWr7rhhBQMAAMAgTIcBEDQGm/Iy2HSXixUYgnz/+9/Xgw8+qG984xuXVavhJiVr5aZGrdxkdCHBwKyc1zzKGezw+Y4BAAAgrBCCADDcSIUfftOmTdOyNZdXRAAAIABJREFUZcv04IMPKj4+/rKvBwAAACA0EYIAMFRZWZnWrFnT+2d/8DEc4YffnXfeqZkzZw7b9QAAAACEJkIQAIYYKPwoKysbkXsRgAAAAACQCEEAjLL+U1+Gc9oLAAAAAJwPIQiAUUH4AQAAAMBohCAARlz/qS9DXeIWAAAAAIbDOKMLADB2ORwOmUym3gCktLRUHo+HAAQAAACAIRgJAmBEpKamMvUFAAAAQFAhBAEwrPr3/mDqCwAAAIBgYTp27LDH6CICTZ16ndElALhEgb0/LBaLmpqaDK5o+JlMJqNLQAibPn26XC7XsF/3o4+Oqafns2G/LgAAwFhDTxAAl83hcCg1NbVP74+xGIAAAAAACG2EIAAuS1lZWW//D//oj7KyMqPLGjGRkZEaP368PB4PrwFeU6dOlXS2CS4v7+v111+XJH3rW98y8q8vAABA2KMnCIBLFtj8tLS0dEyHHwAAAABCHyEIgCHzT3/xo/kpAAAAgFDAdBgAQ+Kf/iJ5m596PB4CEAAAAAAhgRAEwEULXP2F5qcAAAAAQg3TYQBclMD+H0x/AQAAABCKGAkC4Lz8/T8CV38hAAEAAAAQihgJAmBQgQ1Q/QEIAAAAAIQqRoIAGFBgA1T6fwAAAAAYCwhBAJyjfwPUsrIygyvCYNwtNSrKmKGKFqMrAQAAAIIfIQiAPghAQkGnXLuqlDs7RjHJ+ara5TK6IAAAACAk0BMEQC9WgAkRn3QrMrVQtTtj1B2bK6vR9QAAAAAhgpEgAORwOGQymVgBJlRMMsscIWl6nBLNRhcDAAAAhA5GggBhjhVgQlmMYm+WtN3oOgAAAIDQwEgQIIwFBiCsAAMAAABgrCMEwbDpfs+qiqXpio8xyWQyaUZyviq2tanT6MIwoP4BCA1QMZa4m6pVsCBFM0wmmUwxir+zQNW/4d9GAAAA4Y4QBMPCtbNAaXHZKnnRrna3b19LjUpyEhV3Z5XauoytD30RgGDscsl2f4qyGqKVt6lZ73s8OtlWpbSPq1Vwc5xyt7GSDgAAQDgjBMHl+8SmqntblfhCszpOeeTxeOT58/tqXJUmsyT3ziJlrLWr2+g6IYkABGNb29O5ynQXqPbZHCVM8u6LmpOjjZsrlSC36nIKVHPE2BoBAABgHEIQXDZXQ42ittu18Z5k74oVkjQhVhlrG2VdmyxJcm+wys5IdMMRgGBM67arfr1TKxdnKLb/sa8lKE2SZFNdE6NBAAAAwhUhCC6TW21duSr6dsQAxyKUfE+BsiRJ1Wp7b3QrQ18EIBjz3rarwi1V3xktk8nU9xWZrirfaXa329AyAQAAYBxCEFwms7IeylLUYIenxCpRkpSlWPOoFYV+CEAQDtx/aJckFe/3Tcsb7LUq2eBKAQAAYBRCEAyuxyXbunylzPStrpCWr6INVSq6s0LOoV5rToripo9EkbgQAhCEG2c7010AAAAwMEIQDMIt69IUlZ/KkvWgRx5Ph1pfylPswUpV7RzCZY4ckl1Sxv1ZShipUjEoAhCEk6hJ3k4g9ga7Bo9BXKrZ2jZaJQEAACDIEIJgYAdqVb41UXn3ZvQ2O42YkqyVm2pVOIRpLW0N1bInlat80TltCjEKCEAQTiISUpQnSbvylbvOqYF6Mbu2Vcg1JW6UKwMAAECwIATBwLq71SabrLva++6fkKbchwdqgjqAT2yqeSpC5U8XKuEi34LhQwASDk7pFKsunTUpQysf9/b7cK5OUeKCCtU1tcvd2anOo22ybshW+tZk5aXyLyQAAIBwRQiCgc1JVrFZsq1IU/q91bIdOftNK+GRQl24rWC37OsLdPKpWhUn8YVjtKWmpsrhcMhisRCAjGHd79lle8O73ex0qrPH2HqMF6GEH9Wq/h7vyDPX9hLlpsUrJjpa0bGJyn4+WpWb8s5dPhcAAABhgxAEA4tIU7mzXoWpkv1nBcqcGa0ZGUWqabm4pSVd2/JU8cVa1TANZtSVlZX1BiBNTU1Gl4ORcLxO2SaTIuPyZfXtsj2cougvmJS9LdyXf41V1gutOmQtV16S798/5jhlPFKrQ7/boiwaNAMAAIQ1QhAMbnqWKu0d6rBv1Mp5sXLtqlJ+coxmLLWep+mg1N1SoYI3srVlVbIYAzK6ysrKtGbNGkneaTAYo6bkqH6Q5V/rF7EWtRSluPnF2uJ83/tcOg6pcX2O4gZdyxsAAADhghAEF2ROXamNtvfVYa9U1nWS68Vs5T498OoK3QeqlPt8rDa+kMWQ81EWGIA0NTXJYrEYXBEAAAAABBdCEAyspUpVB/ruMqcWqn7nRqVJcjrb1X/Qffd7NSp4NkaVz+cQgIyy/iNACEAAAAAA4FyEIBhEtyqfqjt32sv0OCVI0qSoPlNdug9UKXe9VPhsjmKvGOBqnS7ZnyhS3ZERKzhsORyOPgEIjVABAAAAYGCEIBiUe2uu0hdUyX6027ujp1P2DSWqMmdoy/0Z8k+v7/xNhTLnFcn6Yr7iv2iSyXTuKzJ6htIPpyjjOsM+zpjFUrgAAAAAcHEIQTCotGUrldZpU0FypDfMuDZFVR252tvWqLyvec/pfrtCGTeXyH7BBSnMKl58NjjB8CAAAQAAAICLN8DEBUBSUrH2Jl34tIgbi9XsKR75enCO1NTU3qVwCUAAAAAA4MIYCQKEoLKyst4ApKmpyehyAAAAACAkEIIAIab/UrgAAAAAgItDCAKEEAIQAAAAALh0pmPHDnuMLiLQ1KksHwIMxmQySaIRqpHGjRsnj8ej8ePHG11KUPr8888lef+ujhtHzh7o888/1/Tp0+VynbP4+GX76KNj6un5bNivCwAAMNbQGBUIEawEExw8Hm9u7P+yj4F5PB6eEQAAAIIOIQgQAgIboRKAGCsiIkKfffbZiPw2fyxISkrSRx99pIceekgPPfSQ0eUEjd/85jfKycnRTTfdZHQpAAAAYY0QBAhygX1ASktLDa4G/ilJ1157rcGVBKcrrvD+Z+VLX/oSzyjA1VdfLUm68sorDa4EAAAgvDFhGwhiDoejTwBisVgMrggAAAAAQlfYjATp7u5Wd3e30WWgn08//bR3+6qrrjKwkuBEHxAAAAAAGD5hE4KsXbtWTzzxhNFlAENGAAIAAAAAwyNsQhA/lmwMLmfOnJHk7bPg77UA78oa/lVICEAAAAAAYHiEXQjyk5/8RPfdd5/RZcBn/PjxOnPmjP7rv/5LkydPNrqcoBDYCLWwsNDgagAAAABg7GBYBBBk/AGIJF1//fUGVgIAAAAAYwshCBBE/I1Qk5KSDK4ECH2d79lUvSJTMxbUyW10MQAAAAgKhCBAkCgrK5PD4ZDFYlFycrLR5SCYdbXLui5f6bNjvP10ZqYof12d2j4xurAg8YldFQsylXFHpgo22+Qyuh4AAAAEDUIQIAgE9gEpLS01uBoEtaM2FcyNV/bqGtnf8Y1vOOJUzepcJc7OVNUBlgLXpDQVv9Yo6+M5RlcCAACAIEMIAgSBwADEYrEYXA2CV6ds6/PUetMWNf/hlHcVoc9O6X1bsdLMktw2Fc0rkb3L6DqDg/naeKNLAAAAQJAhBAEM5l8Ct7S0lOVwcX5H6lUzySr7s3lKnhLh3XdFhGLnlauxoVzJkuSukrWp08gqAQAAgKBFCAIYKHAaDAEILsTd1qnc+5MVMcCxiKQ8Fdzt3a4+0D6qdQEAAAChghAEkKSeTrXvqlZBxgxlbxu9dSToA4KhMN9dqKxJgx5V7GzvVtZ082iVBAAAAISUK4wuADBa5xsVynuuUW07nXJJylo8OvdlGgxGRoJSZscaXQQAAAAQlBgJgrAXNbdY9b+0qnKUwg+JaTAYCS4d2i9p3kplzTG6FgAAACA4MRIEkCSZFTNz9O7GNBgMuwNWVb+RrPLf5YpxIAAAAMDACEGAUcY0GAy/Ttmer1TEWqsKbxyobSoAAAAAiRAEGFVMg8FI6H6jXAVdVdq7auCVYwAAAAB4EYIAo4hpMBh2R+uU90S0an+ZwzQYAAAA4AJojDpMuj9pl+25AmXOzFbdcUnqVPu2ImXOjpHJFKP4nCo5PxnonZ1qb6hQflq8YkwmmUwmxcxOV/46q9q7Bjj7PZuqV2QqPqZCTknqccu+IV8pM00ymWYo89G6gPf1q+HOItW91z34h3DbVb0i23ctk2JmZ6rgOac6L+/RXJqWCpl8zyPwVdEScM7xOmUHHl9Qp7OL2w7tuQ7MqYrz3N+5ru+xQZfW9T3Xa79skiRN+D8z9cmX/8GY54qxpcupihV2Zb9QrOQJRhcDAAAABD9CkMvmlv3pCpU/mqfM+6tlOyKpxyXr0gwV7Y9Q2pJc5dwgtW8rUsqSGrn6vLdbznUZis9qlPkRuzo8Hnk+O6naBadUszpbaSusZ7/Uf+JUzRMlKlqRp4LNNrW75f0ClJUn65/jlD0/R3Fml2wbcpX2qE2dcsm6NEXZ27qV4K9hZ5VyU0tkHyAEcO0sUMp8q6LvrVHzYY88H7eqKvWkqu9PUdySun51j4KkYnk+blblHWbfjpVqPOlRcVLAOVNyVO85pI1zpawX3tep13LkPXsIz/W8klXs8ejU4S3KGujoKo88H+9V8XlW4vA/V/uZmTp+wrvvXxdOMu65YuzoalPV0hrFbtqirOlGFwMAAACEBkKQy2ZW2kPFKt9UrkJJkku1622KfapZjZvKVfhIpWqbqpUnSbvqZD8S8NbjVlWudkrKVOY835f9K6KU9oj3Wu6t9Wr2f1uflKy8H5Vry9o83w67araeUp61URvXFqpwfa0O7apUgiT35nLl3luniMcP6dAvN6r8kUrVHrSpco4kd5WsTf3GIByoUu6dHSrYtlE5c6J890tQzrPVqpwjubfmquBFA76uT0pW4VPlypAkdau7Z4BzujvU8edKldwTe7YXwlCe60WIuC5eiYPWGK/4wVaV8T3X9Af+n6z/+qQk7zQYw58rQl9Xu2rur1bM+i3KIQABAAAALhohyHCJiFS0JClWuY+tVEJUwLFJCUqbL0l2uQOnxEyKU2KSFHtPXN+5/L3XGuCL/xWRvo005S1Pkzmwq8ucFGX7NjMeLlaGOfCNCUrxDWfo6AqcEtMt+2uVci7PU8Y5X6bilDDXu2XbZjdm1MJ12cq7R5JqVNNwbgWubVVqvz9XCYE7L+W5Druzz9Xxr2f7gHiboQbBc0Xo6mpT1dIq6dGNAwcg3Z1yNVWoaCt/s9RzyugKAAAAEGQIQUZF5MAtaCMSVOz06P0XsrzTOHo61b6rWgUZuSq5rPs51XnRDSfaZH/CLW3OVPQ5PTgilb7Bd9ob7oucQjLcopR1v3eEi211jex9Wpq0yfp8glbON/d9y4g916E4+1x/43BI8jZFDZ7nipDU6VTFnRkq2l6j/LjIAfvmmCKjNSPNpZR54d4mtVP23Tbv5vZ6NR41thoAAAAEB0KQYNDp7eURn5Cr6iOxWvnSFpWP1r2Pu9QuSaua5fF4zvMqVvJo1dTfnCytnCfJXaHqhoDWpztrVJ+VrbTB1gQ1+LnuC/hjU1NT8D1XhJbuNlXMS1FJ04VjM/OPcpQxaRRqClbH65Rtilb6ujbfDqvyY/s3TwYAAEA4IgQxWOcbJUqPS1F1T57sbY3aeF+G4iZFXviNw63lUBBPy4hV7iPFMkuyrq+V92uNS/Wbu1V0T8KA7wiG5/qe738fKC2VxWIZ1XtjDPKNcDp/WOl9dTyepsGywbAwJUf1Az2b3ubJAAAACFeEIAbqfrtCGd+p0KHFtar/Ub/+HqNlktnbN+MNa9+mrf24XqxT2+CHR1xEaraKkiQdKFJ1Q6e6W+pUM2fg33YHw3Mt++mv9bEk6cua/d2yQc8z+rkCAAAAQDghBDFQ+xsb5ZSUkhBv3G9tIxKVco8k2ZS/uELOgXqJHK1ThcusuFEura8E5T3qXRmn5mfVqnq+UdkLBv5t9/A/V7PMc4f2jjUVL/m2/hTkzxUAAAAAwgchyCg7FbAqSXePd3a6taHvCiHuXY1q9P+hR1JXu9qPD18NnV2BKyZEKWNFubcvRUuJUm7KVsU2u9rdnersdKmtoUrZc2uVvMT44fVR83JUbJa0q0QlKlLenIHPu+Tn+tlgd45WzHXereaDgVfsVPvWStUe9l/T+1y9K8BIxcvSQuK5AgAAAEC4IAQZJp1NjaqXJFlV/0a/7hqftKp1v3fTttsu/6CAhG97+1xoe67SMwpUsqFIucmZ2qhEpZm919q4tkgF99vUGSVJ3XK1t/re3apDR/oslaLuI4fUe7TdpT5Hu106dNC7aX/DLlfAwYgbi1X7Wp53WswRq0py0hUfE63o6BlKzKpW9OMblXfdJT6Y4RSRprzHMySZVbw4Q1GDnDb05yqp067Gnd5Na0OjXH2W0I1SyryVMkuy3Zui9HtLVLWhSLnJRWq+KU+5M33vezRfid+6RWvWeJfELX9+b2g8VwAAAAAIE4Qgl82tugUmRadV9PZ2sC6dIZMpW3XHvcdMkzNV5VuSoG1duqJN2ao7LkWklsheV6iM6yTXLpvs7THKa2hU+bwsZT+WJrNiFT0pUSufLVTyBKcqTJGasdTqv4vyZ0b6Vjvw3idyZr6sATVE+u7j3pYtU+QM5W/3HdyerxmRJlW0nP0UsXdvUevBepXfk+z90i6z4u4oVO3BVm25O3iW2oy9Y6VWzi9XXurg4yeG9lx9zyc6XRUHfBfYnq8ZXzApe9vZdSSi7qj0XdMt+8/qVN8eo4KdW5T3tWhJZsUtKldtQ60y5qZJkkpLS731hshzBQAAAIBwYDp27LDH6CICTZ06Mr8af+yxx/TEE0/o2Wef1X333Tci98DQjR8/XmfOnNEf//hHTZ482ehyLktZWVnvKBCP5/L+sXr44Yf19NNP6/nnn9eyZcuGozwMk6uvvlqnT59WT0/PhU8OQ9OmTdMHH3yg0tLS3qlhkHbs2KG77rpLubm5evnll4f9+h99dEw9PYPO6QMAAIAPI0GAYeIPQPyjQAAAAAAAwYUQBBgG/t9489tvAAAAAAhehCDAZXI4HL2jQAhAAAAAACB4XWF0AUCoczgckpgGEy4+/fRTeTweXX311UaXEpS6u71LT1VUVGj9+vUGVxN8fvvb3xpdAgAAQFgjBAEuQ2AzVEaBhIczZ85Ikk6dOmVwJcGtp6eH5rEAAAAIOoQgwGWgGWr4iYiI0GeffaZf//rXRpcSlHJycvTHP/5RS5Ys0ZIlS4wuJ2gcPnxYy5cv19e//nWjSwEAAAhrhCDAJaIZangymUySpPT0dIMrCU4RERGSpNjYWJ5RgK6uLknSF7/4RYMrAQAACG80RgUuEdNgAAAAACC0EIIAlyBwFAgAAAAAIDSEzXQY/woeDzzwgB544AGDq4Gfx+ORJP31X/+1wZVcPH/NkrR27VqtXbt2xO61f/9+LVu2bMSuDwAAAADhJGxCEL/AL7AIHqH6cwnVugEAAAAgHIXNdJhbb71VkvTss8/q888/5xUkr3HjvH8F3W634bVczGv16tWSpNWrV4/ofR588EFJ0s0332zMPzAAAAAAMAaFzUgQ/4oOknq/eCN4jBs3LiR+Lv6pL6mpqSNab+DfVwAAAADA8Aj+b51AkAhshmqxWAyuBsCFdL5nU/WKTM1YUCe30cUAAAAgKBCCABfB4XCwJC6CR49b9ucKlDk7RiaTSaaZKcpfZ1V7l9GFBYlP7KpYkKmMOzJVsNkml9H1AAAAIGgQggAXwb+6EEviwngu1S1NUPqzreqOiVfaDWbpiFM1q7MVP7dCbd1G1xcEJqWp+LVGWR/PMboSAAAABBlCEOACysrKGAWCINGttieK1Dy/WacON2vv7r3ae7BDHbZiJUtSS4lKtjHuwc98bbzRJQAAACDIEIIAF/Dmm29KYhQIgsAndtmnV2rj/FhFBOw2zytX9foESZLtON0vAAAAgMEQggDnUVZW1jsVhlEgMNykDBUuih3wUMwU7/6MKebRrAgAAAAIKYQgwHn4p8EwCgTBrVuHDjZLSeUquXvgkAQAAACAdIXRBQDByj/yw2KxMAoEQa3zN1UqeTFNtc5iJU8wuhoAAAAgeDESBBiEfxTIrbfeanAlwMC6jzpVty5biTeXKHJZntKmGF0RAAAAENwIQUJcZ0OV6o4bXcXY4x/5UVpayigQBCX3tmxFxqYod7VVLkn2demKicuX9ajRlQEAAADBixAkpLlU/7Nmo4sYk/yjQIBgZV5UL4/nlE62N2rjsjSZJelIjbIXVait2+jqAAAAgOBECBLCXNtKVLLL6CrGHkaBIHREKOprGVr5/F411+V4g5CWEtXuJwUBAAAABkIIEqI63yhRbk6d3EYXMgYxCgShKHZRtarv8W7b32k3thgAAAAgSBGCGO2TdtleLFLu7Fxvb48el2zrchUfY5LJNEMpS6tk75N0dMq+Ll1x36mQU5JkVe61JplMJplMvn093XK11KkiJ14x65ySutW+rUjpMSbFpFXI2TXqnzJkMAoEoStKafNXSpKiJ0QZXAsAAAAQnAhBDOOWbUOJCpZkKnNplere6ZZ6XKpbmqICm1sx02MlueR8sUjpCbmq6212GKW0VXvV4WlWuSQpS7V/8Mjj8cjjKVbC23WqeK5ERYtzVbKtXW5Jrm0FynvWpkNuyd1UosqdjB8ZDKNAEMqiJsdIkhKmxxhcCQAAABCcCEEMY1bGI+XaaN2iQt+e5ufrFLG2Q+8792qv832dPLhFOWZJ7jrlrqiR6yKuGnFjjoofqlTl6izvjoMbVadiNTsPqX3/FhWv2qKSO8wj9JlCW+DID0aBIBS5Dtolc7Eybo4wuhQAAAAgKF1hdAFhLyJS0ZKkTsUtKVbW9LOHom7IU/XzbbLfWS33rmpZD+SpcM7FXTbS/5OdkK2Vi2K91/t2nsq/PYy1j0GlpaVGlwAMrsettv0uRcxOVtykfseO1qlk9SmVN5QojQzEq+eU0RUAAAAgyDASJGhEKXrCAHvnZilXktSm5vZLmMYSGyO6A1ycsrKy3hcQjNzbVyoxLUXxk2co89Ea2d9zq7PTrfZdVcq+o0Yxz9eqOIkExKtT9t027+b2ejUePf/ZAAAACA+EIMEuIl6JdxtdBIBgYL6jRBvvSVOc2SXbhnylx6UoY0GJatxxqty/V5V3xBpdYnA4XqdsU7TS17X5dliVH2uSaQEragEAAIQ7psMAQKiYkKCVL+zVSqPrCHZTclTvyTG6CgAAAAQhRoKEkLhraWgKAAAAAMClIgQJei659ksyFyvtRqNrAQAAAAAgdBGCBA2rmg92n7O3c2etNrrNynkqb5AVH1zq+MS3edQpZ/8J738+pXOvCgAAAABA+CEECSLVS7NV0eT2hRbdcjdVKPfeasWutapmUf+Gh3FKWC5JbSpanq+S1QXKfLxDsWZJPW4172/2nra1RtYjxCAAAAAAABCCBI0sbWkoVMTWLMWbTDKZYpX2dIcy6jrUvCpZ5w4CiVLGo40qnBcrtdjV1p2iyqeyZG6pkOkLMcre7BsS4q5T7sxIVkUAAAAAAIQ9VocJIpFT0pT3QrMKX7jIN0zPUKXtfVUG7ksqlsdTPALVAQAAAAAQ2hgJAgAAAAAAwgIhCAAAAAAACAuEIMGkx+gCAAAAAAAYu+gJYrDOJrsaJUlW1Te5lHVP7ABNUAEEi08//VQej0eTJk0yupSgdPLkSUnShg0btHHjRoOrCT6//e1vjS4BAAAgrBGCGOV4nbKvzZU1YJd16QxFLs1S7R/qlTPFsMoAnMeZM2ckSX/6058MriS4/eUvf9Ff/vIXo8sAAAAA+iAEMcqUHNV7coyuAsAQXXXVVfrss8+0adMmo0sJSo899phOnDih22+/XbfffrvR5QSNzs5O/fCHP9RXv/pVo0sBAAAIa4QgADAE48aNk8lk0j//8z8bXUpQevzxx3XixAn93d/9Hc8owI4dOyRJkydPNrgSAACA8EZjVAAAAAAAEBYIQQAAAAAAQFgIm+kwDodDklRYWKjCwkKDq4Gfv8nk3/zN38hkMhlcTfDZv3+/li1bZnQZAAAAADAmhE0I4vfZZ58ZXQIG0NPTY3QJAAAAAIAxLmxCkJtuuklOp1MVFRW68847jS4HPt/4xjd05swZvfnmm5o4caLR5QSN5557Ts8//7y+8Y1vGF0KAAAAAIwZYROC/NVf/ZUk6Ytf/KJuuOEGg6tBf3FxcayaEMD/9/VLX/qSwZUAAAAAwNhBY1QAAAAAABAWCEEAYAzobqlQismk7G1uo0sBAAAAghYhCACEui6nypeXyGl0HQAAAECQIwQBgJDmUt2KXNUwAAQAAAC4IEIQAAhhrm0lKjFvUc0KoysBAAAAgh8hCACEqO63K5T7bLxqV6cp2uhiAAAAgBBACGKknk6176pWQcYMmhkCGJoup6rua1XBtmIlTzC6GAAAACA0EIIYpPONCmVnZSgzo0DVu1xGlxP2OncWKMZkkqn/K6FKbUYXB5zDLeuKXB26v1I5042uJQh1tsu6Ll/ps2O8/xzHxCtzRZWs73T+//buL7St++7j+EdbBgoLTIEW5JGVKHMg9lqoQjZi8eQiMr6IQrdVIoVITUcit7DKKTT2DI2UXiTSCo3dQms1kEbNqJFyEaTAgmWoibwtwzLriAx9iAsJVbOFWuwZxDCPCOpNz4WUxH/b2Il9ZJ/3C0zlc37y73uUGHI+/Z3vz+jKAAAAYDBCEIPY2sJK/z6jnkNGVwKpqPSZuBZai+N5zSvnqtcDfLPihU7FtyeVOOgwupS6Ux6NqbXJrbQtqOSnE6pUKrozGJGj0CXfM00KfDiustFFAgAAwDAbjC7A3Oxq2G50DSgPJxR7ekATKZesc85ZbTZDagIWNdarwHvN6h1qmff31fRuZxR8PqLrh65o4OiDz8f2rF99F6QJR0CpV9xq2FpUTxufHgB4nfZuAAARyUlEQVQAgBmxEgQmV1TydFYhv0d2m022OV/cJqGuTOUVO0YfkIWVlT8fVaokBX/unv+7u9WvyNtOSSX1dsd5zA0AAMCkCEFgauXRlOIKyfus0ZUA36as3MmArv+6lz4gCymPaOCDgiSvmrcsPMS51ye7JI0llRtbxdoAAABQNwhBYGKTyp6NqDAY0X63Tx2nU8rfplsA6tTtjOKni0q90DC/ga/FIteb1WEZf+38C6kF+9ysW6WSxu9d8GIPetodckmSCirzqw4AAGBKhCB1b1Ljl2JqdzfXdi/ZJteRmDKfz/kX/HRZxdGUYv5mNZzKV4+Vcuo94tI2i0WW7fvVdYGGgLOMJRQ9L0kljQ9nFO8OyPUjh5r9cRXYRAL1ZoNNjja33It8tTRWh9mfrh3bYrJ+NtN3Vf21HVFxsfRni0M7V68iAAAA1CEao9azqYJ6/T7lWs4pkQ3rnLWs0nCvgv6IfOcHFM3nFN5tVfmvKfVevaaRt3uVLUk6Wd0hwff6dTV5ffL/erNSZ7Lq9V+T1V5UdC+dLiRJO4LKFd26ViyqOJxT5kJc2ZsljV/o0M5PC0oPnZOXxw5QL+we9XziWfR0/lR1NYjreFLpg/ZVLKxOPNGgJkk5lXTtRknatcBnUL6rO5IkrxyLPDIDAACA9Y2VIHVrUtluj5LPJpV+wy27VZKssu8NK/lBUFJekeejypUl6y6/wq/3qO+ku/rWbJ96/8+vgXxSPb/pVPSDAaVrDQFjgyOsBrnHapNtq1PuvV4FT/Zp4MZdTWTDctsl3UzIdzCm/JTRRQJ4KDaX3IerLzP9AyouNOZ2sdoQ9XBAHkIQAAAAUyIEqVc304qfaVDAO38bTNszLXJLUimm7NUHkcbGTbXl754OhZ9zzHqPs6X2f5C/LIknPRZjlX1fVFfySfntkkYjil5c8FYKQN2xyXv8nDySNBhRfGh+3FscziinFvW85pXJHhYCAABADSFInSrms8qqoC7n/AaIlu3tyt0b98+HjDQ2bFyxWtedrX7Fz4Zkl5QdzJuruSSwljUGlfwkrBaV1PvSfkUGS7WVb2WVBiMKvHJHod8n1cluUAAAAKZFCFKnSl9mJHmVLFZUqSz+Zcpn/1eB7bmAOuySLhYXXlYPoC7Z2qIambiivudtyr3WoI0Wiyzb3Yr8tVm9EyPqm7NKDgAAAOZCY9S6ltG1G2X5t9LIdPU55NhT+6/RpQAPoeVERZUTRldRJ+xuhT5wK2R0HQAAAKg7rASpU3Z7tclpcugbGplO5ZS4xMMaK+OuNC05W5rEWhsAAAAAWB8IQeqU46ceOSWVTgcU7F/ogYyy8u+mpGe4RV8RN3NK5kOKHnIaXQkAAAAA4DEhBDHa14scfzagyCG7pJJSL7nU+kpcmbGiJicnVfo8p8Sx/Qr8y69A4xLnm5buPmLJ60NR2e52dbyfU2l6zqnJvGKHEnJd6pHnCUOKAwAAAACsAEIQI03mNHC5+jJzaUDFWTfjdnk/yCi6txqE5D7skM+5TZs3b1ZDU6siY24l33Q/2D53uqiBS5naDxtQbtamMWWNF0aqLy+llftyBa9prSgVlDydUPy1VjU0+dR1PqPccFap0+1q3dMj2/tZhXfTiwUAAAAA1hNCEIOULvhk2dyq2FjtwMV2bfueRb4LM3p8bGpR+JOCrrwXkufp2mMvjS0Kvn1FhU/CatlUGzcak+V729R+sfb9WEytmy2ynMpXz1k2qvnVbO1kRu2O2jkzs3sVv9qj4G6HdDOj3iNdipzJamJLUMlCWqFdNqMrBAAAAAA8ZuwOYxD7wbQqBx9i4Aa73Ef75D7at/iY3WFVKuFFTrZ8wzlzs/1Pp87lO3XO6EIAAAAAAKuClSAAAAAAAMAUCEEAAAAAAIApEIIAAAAAAABToCcIACzDiy++aHQJde2Pf/wjnxEAAADqDiEIACzRf/7zHyWTSaPLqGt/+MMfjC4BAAAAmIcQBACW4MKFC0aXUNf+8pe/SJK+853vaNeuXQZXAwAAAMxGCAIAS/CLX/zC6BLqGp8PAAAA6hmNUQEAAAAAgCkQggAAAAAAAFOw3Lp1o2J0ETM99VTjivxcl8ulfD6vTZs2rcjPx/JMTU1Jkr7//e/LYrEYXE19mZqa0qFDh/Txxx8bXQqAOvfVV7c0Pf210WUAAADUPdP1BLl304368u9//9voEgAAAAAA65xpQpCf/OQnyufzeuONN/Szn/3M6HJQ4/V6ValU9Lvf/U4/+MEPjC6nbmQyGfX39+vHP/6x0aUAAAAAwLphmhDkySeflCQ1NDTol7/8pcHV4B6LxaJKpSKPx3P/zwjSn/70J0nSD3/4Q4MrAQAAAID1g8aoAAAAAADAFAhBAAAAAACAKRCCAAAAAAAAUyAEAQAAAAAApkAIAgAAAAAATIEQBAAAAAAAmAIhCKR/5tTVYtG2IxkVja4FAAAAAIAVQggClT/LqndUKp5PKHfT6GqMMXm5Qw0Wiyxzv5y9KhhdHAAAAADgsSAEgaw/9Sm61y7H4aDcjUZXY4Si0mfiKi1wxvOaV85VrwcAAAAAsBI2GF0A6sCmFoVzEwovOmBSmdNZuX7jl30Vy1ot5eGEYk8PaCLlknXOOavNZkhNAAAAAIDHjxAE3+5mWolPN8pldB0roqjk6axCv43KTt4BAAAAAOsaj8PgWxSVOhlR1ugyVkh5NKW4QvI+a3QlAAAAAICVRgiCbzCp3PGAAv0LdctYDyaVPRtRYTCi/W6fOk6nlL9dNrooAAAAAMAKIQSZq5RX6lS7XNtru4Nsd6n9VEbjUwuNzSn+qu/BWMs2uV7oUPzPk/PH/nNc2fNdCjwTUOq2pOmisqcCam6ove9Ir3KLZQ1LmWcZ1zH5eU6pUwE1N8SUv38wp5i7Sa1v1Y5cDDzYPeVUXqULvvk7qVh81Wu7ZzQ2+/ypvOrKWELR85JU0vhwRvHugFw/cqjZH1fhGz5aAAAAAMDaRAgyw+SfY2p1dur6rrBy4xVVKnf1xfEGJd70qbktpvzMAOHLlALOVkWnPEp8WlGlUtHdG1E5rsbVscej2F/vrSgoKXs6oo6X9mv/kV6l/rcsTReVOuJSR7akhq0OSUXlz3ep1RlQ6ss5RT30PMu4jnJBqVO9inYHFHgzpfGZIYzNrXBuQpV8tPr9gaQmKtX5KydaZD+Y1EQ2rJZ7448O6E4lLf+WGT9jd1iVfw0oJMn7wXXdOdGiurIjqFzxmq7k0jp3IiRPoySVNH6hQzt/2q7M3D8LAAAAAMCaRghyz82EAnsisr2dVHSfQ9YNkmSV4/mgQpI0GlHkQvH+8Hx/QKmS5Nq3X021hprWRr+iJ92S8uobGq+NtMvzm6j6MufUWTsycjYl68kJfZG/oiv5L3Tns3Py2yWVUgq8mtCDWZYyzzKuw+qU/0Snek52LWMbWKvs+6KKv1MLNqYWeYykNKFxe1ihw02qu76jVptsW51y7/UqeLJPAzfuaiIbltsu6WZCvoNzgi8AAAAAwJpGCCJJmlTmt+3KKqTgc47Zp2w75T7skOSQc8vm+4cdO/yy291ybZ99a79xU/X70vScUMC6UZtrczW9FJZ364wpng4qfjZU3X52MK7M2INzS5tn6dchSXqiQXNGPzTny1F12iWd71FibP75wqW47hzzyT1379m6VA12ruST1VBqNKLoxeK3vgsAAAAAsDYQgkjS5Ihy5yW1Oe+vtnjALu9HX6hS+UI9+x6ctB9IamLiijp3Ve/uy7fzSp0KyH0s8y2T2bR50wJH27wKSJIKGpnxXMqS5lnGdTyyTW6FTnok5dVzNqtZrTTKOaXfaVDo+aWvMzHUVv/9UCo7mNd6bQsLAAAAAGZDCCJJU5OaWOZbS6MJdXmatbM7J7X1auBt7/J+kLVZOw884jyPcB2PwnGwU512qXQmOms1yORgSrF9QfkaDSjqEdmeC6jDLuliUawFAQAAAID1gRBkpqFxFR92h9SpcSWObFPD6wXtfHtE11Nh+XfbtXHDY65pOfMs5Toeh01uBbpbNHs1SFHpDwcUPuSpv14gD8Uhxx5JBxzLflQIAAAAAFBfCEEkaZNNDZKkpLJXF0sPysr1Z2qPRpSUedWt9vNNOtffJ//Tj/c2v+lH9tqrJc6z5Ot4fJyHIgrZpdKZiBJjUnk4ochEl3x710QzkAXclaYlZ0uT7N8+GAAAAACwBhCCSJKtSc59klRS75u9C+4IUh7tVWraWb0hLo0o3V+S5FLzY3vUo6jiVUn2sNy7aoeWOs9Sr+NxesKjYHeLpIK63osr0R+TqzuwjF1n6sTNnJL5kKKH1uwVAAAAAADmIASRJDkUeL2zGgyMRuT1x5T7sraSYrqs4nBMvkN35D/guH+sejatgT/PWHExOa6BwZHq669rhz4vzm4WqoxGPpu/SmPyclJ9Jbv87wQf7KSy5HmWeB1LcWPifr+R4ujCzULvrQbR+Q51DIYVer6e11AUle1uV8f7OZWm55yazCt2KCHXpR55njCkOAAAAADACiAEqbG2RZV9xyO7pNLliFodG2WxWGT53kZt84/IfTEq971dXba0yLNPkgqKHdipQHevIq/ul+vYiBpaXNUxH0bV1d2uyGea1xMjfsSn2HCpFnCUVRqOKfBKXI6TGSUOzggoljHPkq6jpjiUVnWvmbQGhmdHNtrhVEiSxroUOhJR5NX9iv3dsfBKkvurQSRnvW+LWyooeTqh+Gutamjyqet8RrnhrFKn29W6p0e297MK767nCwAAAAAALBUhyH1WOV8f0PjVPoWeq/WBsDfJ8+s+jXw2oM5nZ94QOxT8eEQ9B5tkL40rN5hTeU+Psh8F5TkQVKhRsj9hU8PPe9Q3b9WFV+cudcra71WzxSKLxSH3uxPypCY0cqJFs2+7lzPPUq4jr5jFom1H7m23W1DMvVmWF1IPVnrYPOr8fac8jVL+akHlPT3qO7D4Cg/nwS755an/bXHtXsWv9ii42yHdzKj3SJciZ7Ka2BJUspBWaNfabOcKAAAAAFic5datGxWji5jpqadWZj/V48eP66233tJ7772no0ePrsgc3yyvmMWliLxK/j0t/xYDSlgF5eGIHP07Nf6R96F2hfnud7+r//73v/rHP/6hJ598csXrWyuOHTumd999V2fPntXLL79sdDkA6txXX93S9PTXRpcBAABQ91gJgsdoUtn+hIJrdltcAAAAAMB6RgiCx+dmWonCWt4WFwAAAACwnm0wugBTmrsbyRpVHkspPjQhW6NbbucdpY5FZO0urN1tcQEAAAAA6xohyCqZHM5pQJKUUXq4KO9hh9b2eomSMr8NqOvigyOOw2ldOVjP2+ICAAAAAMyMx2FW2u2UfBaLNrsjytcOZY5s00aLT6nbhlb2iOxyH+6U2y6p0aPO1HVd+8iruXvhAAAAAABQL1gJstK2+JWu+I2uYkXY9/XoykSP0WUAAAAAAPBQWAkCAAAAAABMgRAEAAAAAACYAiEIAAAAAAAwBdP1BBkaGtLQ0JDRZWCOX/3qV9qwwXR/HQEAAAAAq8h0d52XL182ugQsYHBw0OgSAAAAAADrnGlCkLa2NrW1tRldBuYYGxuTJO3YsUNWq9XgagAAAAAA65nl1q0bFaOLmOmppxqNLgEAgDXlq69uaXr6a6PLAAAAqHs0RgUAAAAAAKZACAIAAAAAAEyBEAQAAAAAAJgCIQgAAAAAADAFQhAAAAAAAGAKhCAAAAAAAMAUCEEAAAAAAIApEIIAAAAAAABTIAQBAAAAAACmsMHoAub6299uGl0CAAAAAABYh1gJAgAAAAAATIEQBAAAAAAAmAIhCAAAAAAAMAVCEAAAAAAAYAqEIAAAAAAAwBQIQQAAAAAAgCkQggAAAAAAAFMgBAEAAAAAAKZACAIAAAAAAEyBEAQAAAAAAJgCIQgAAAAAADAFQhAAAAAAAGAKhCAAAAAAAMAUCEEAAAAAAIApEIIAAAAAAABTIAQBAAAAAACmQAgCAAAAAABMgRAEAAAAAACYAiEIAAAAAAAwBUIQAAAAAABgCoQgAAAAAADAFAhBAAAAAACAKfw/afOtZQNtxBcAAAAASUVORK5CYII=;" vertex="1" parent="1">
                    <mxGeometry x="430" y="390" width="1059" height="635.98" as="geometry"/>
                </mxCell>
                <mxCell id="13" value="&lt;span style=&quot;background-color: rgb(225 , 225 , 219) ; color: rgb(38 , 38 , 37) ; font-family: &amp;#34;open sans&amp;#34; , sans-serif ; font-size: 16px&quot;&gt;&lt;br&gt;&lt;/span&gt;" style="text;html=1;align=center;verticalAlign=middle;resizable=0;points=[];autosize=1;strokeColor=none;fillColor=none;fontSize=21;fontColor=#F00018;" vertex="1" parent="1">
                    <mxGeometry x="300" y="820" width="20" height="30" as="geometry"/>
                </mxCell>
                <mxCell id="14" value="&lt;p style=&quot;text-align: left ; line-height: 1.45em ; color: rgb(38 , 38 , 37) ; font-family: &amp;#34;open sans&amp;#34; , sans-serif ; font-size: 16px ; background-color: rgb(225 , 225 , 219)&quot;&gt;两个数据指针指向了同一位置。这就有了一个问题：当&amp;nbsp;&lt;code class=&quot;hljs&quot; style=&quot;font-size: 0.875em ; display: inline ; background: rgb(246 , 247 , 246) ; padding: 0.1em 0.3em ; border-radius: 3px ; font-family: &amp;#34;source code pro&amp;#34; , &amp;#34;consolas&amp;#34; , &amp;#34;ubuntu mono&amp;#34; , &amp;#34;menlo&amp;#34; , &amp;#34;dejavu sans mono&amp;#34; , monospace , monospace &amp;#34;important&amp;#34;&quot;&gt;s2&lt;/code&gt;&amp;nbsp;和&amp;nbsp;&lt;code class=&quot;hljs&quot; style=&quot;font-size: 0.875em ; display: inline ; background: rgb(246 , 247 , 246) ; padding: 0.1em 0.3em ; border-radius: 3px ; font-family: &amp;#34;source code pro&amp;#34; , &amp;#34;consolas&amp;#34; , &amp;#34;ubuntu mono&amp;#34; , &amp;#34;menlo&amp;#34; , &amp;#34;dejavu sans mono&amp;#34; , monospace , monospace &amp;#34;important&amp;#34;&quot;&gt;s1&lt;/code&gt;&amp;nbsp;离开作用域，他们都会尝试释放相同的内存。&lt;/p&gt;&lt;p style=&quot;text-align: left ; line-height: 1.45em ; color: rgb(38 , 38 , 37) ; font-family: &amp;#34;open sans&amp;#34; , sans-serif ; font-size: 16px ; background-color: rgb(225 , 225 , 219)&quot;&gt;这是一个叫做&amp;nbsp;&lt;strong&gt;二次释放&lt;/strong&gt;（&lt;em&gt;double free&lt;/em&gt;）的错误，也是之前提到过的内存安全性 bug 之一。两次释放（相同）内存会导致内存污染，它可能会导致潜在的安全漏洞。&lt;/p&gt;&lt;p style=&quot;text-align: left ; line-height: 1.45em ; color: rgb(38 , 38 , 37) ; font-family: &amp;#34;open sans&amp;#34; , sans-serif ; font-size: 16px ; background-color: rgb(225 , 225 , 219)&quot;&gt;为了确保内存安全，在&amp;nbsp;&lt;code class=&quot;hljs&quot; style=&quot;font-size: 0.875em ; display: inline ; background: rgb(246 , 247 , 246) ; padding: 0.1em 0.3em ; border-radius: 3px ; font-family: &amp;#34;source code pro&amp;#34; , &amp;#34;consolas&amp;#34; , &amp;#34;ubuntu mono&amp;#34; , &amp;#34;menlo&amp;#34; , &amp;#34;dejavu sans mono&amp;#34; , monospace , monospace &amp;#34;important&amp;#34;&quot;&gt;let s2 = s1&lt;/code&gt;&amp;nbsp;之后，Rust 认为&amp;nbsp;&lt;code class=&quot;hljs&quot; style=&quot;font-size: 0.875em ; display: inline ; background: rgb(246 , 247 , 246) ; padding: 0.1em 0.3em ; border-radius: 3px ; font-family: &amp;#34;source code pro&amp;#34; , &amp;#34;consolas&amp;#34; , &amp;#34;ubuntu mono&amp;#34; , &amp;#34;menlo&amp;#34; , &amp;#34;dejavu sans mono&amp;#34; , monospace , monospace &amp;#34;important&amp;#34;&quot;&gt;s1&lt;/code&gt;&amp;nbsp;不再有效，因此 Rust 不需要在&amp;nbsp;&lt;code class=&quot;hljs&quot; style=&quot;font-size: 0.875em ; display: inline ; background: rgb(246 , 247 , 246) ; padding: 0.1em 0.3em ; border-radius: 3px ; font-family: &amp;#34;source code pro&amp;#34; , &amp;#34;consolas&amp;#34; , &amp;#34;ubuntu mono&amp;#34; , &amp;#34;menlo&amp;#34; , &amp;#34;dejavu sans mono&amp;#34; , monospace , monospace &amp;#34;important&amp;#34;&quot;&gt;s1&lt;/code&gt;&amp;nbsp;离开作用域后清理任何东西。&lt;/p&gt;" style="text;html=1;align=right;verticalAlign=middle;resizable=0;points=[];autosize=1;strokeColor=none;fillColor=none;fontSize=21;fontColor=#F00018;labelPosition=left;verticalLabelPosition=middle;" vertex="1" parent="1">
                    <mxGeometry x="2110" y="690" width="1170" height="140" as="geometry"/>
                </mxCell>
            </root>
        </mxGraphModel>
    </diagram>
</mxfile>